<svg width="615" height="320" viewBox="0 0 615 320" fill="none" xmlns="http://www.w3.org/2000/svg">
<path d="M95.6491 346.972C48.5289 362.282 3.88519 369.97 -30.194 370.034C-47.2364 370.066 -61.6075 368.192 -72.3175 364.43C-83.0365 360.665 -89.9968 355.046 -92.4002 347.649C-94.8034 340.252 -92.4753 331.615 -86.0165 322.269C-79.563 312.93 -69.0388 302.966 -55.2322 292.974C-27.6238 272.995 13.0129 252.975 60.133 237.664C107.253 222.354 151.897 214.666 185.976 214.601C203.018 214.569 217.39 216.444 228.1 220.206C238.818 223.971 245.779 229.59 248.182 236.987C250.585 244.384 248.258 253.021 241.799 262.368C235.345 271.706 224.821 281.67 211.014 291.661C183.406 311.64 142.769 331.662 95.6491 346.972Z" stroke="#0190C3"/>
<path d="M154.071 366.65C90.2496 387.386 29.234 396.126 -17.8131 393.507C-41.3382 392.197 -61.3436 388.049 -76.4552 381.162C-91.5661 374.275 -101.736 364.673 -105.699 352.475C-109.663 340.277 -107.079 326.531 -98.902 312.077C-90.7247 297.623 -76.9784 282.508 -58.7159 267.621C-22.1934 237.849 32.3063 209.055 96.1272 188.318C159.948 167.582 220.965 158.842 268.012 161.461C291.537 162.77 311.542 166.919 326.654 173.806C341.765 180.693 351.935 190.295 355.898 202.493C359.862 214.691 357.278 228.437 349.101 242.89C340.924 257.344 327.177 272.459 308.915 287.347C272.392 317.119 217.892 345.913 154.071 366.65Z" stroke="#0190C3"/>
<path d="M207.54 371.072C127.009 397.239 50.1306 408.635 -9.05412 405.923C-38.6485 404.567 -63.7919 399.685 -82.7495 391.378C-101.707 383.071 -114.425 371.366 -119.292 356.388C-124.158 341.411 -120.749 324.466 -110.295 306.602C-99.8405 288.739 -82.3688 270.01 -59.2235 251.518C-12.936 214.536 55.9587 178.569 136.49 152.403C217.021 126.237 293.899 114.839 353.084 117.551C382.678 118.907 407.821 123.79 426.778 132.097C445.736 140.404 458.455 152.109 463.321 167.086C468.188 182.063 464.778 199.009 454.323 216.872C443.869 234.736 426.398 253.464 403.253 271.957C356.966 308.938 288.071 344.906 207.54 371.072Z" stroke="#0190C3"/>
<path d="M261.883 378.194C164.643 409.789 71.839 423.643 0.41277 420.514C-35.3022 418.95 -65.6444 413.14 -88.5176 403.2C-111.391 393.26 -126.741 379.217 -132.592 361.208C-138.444 343.2 -134.28 322.816 -121.617 301.33C-108.955 279.844 -87.8225 257.309 -59.848 235.051C-3.90192 190.536 79.3211 147.195 176.561 115.6C273.802 84.0046 366.606 70.1509 438.032 73.2795C473.747 74.8439 504.09 80.6532 526.963 90.5929C549.837 100.533 565.186 114.577 571.037 132.585C576.888 150.594 572.726 170.977 560.063 192.464C547.401 213.95 526.267 236.485 498.293 258.743C442.347 303.257 359.124 346.598 261.883 378.194Z" stroke="#0190C3"/>
</svg>
