<svg width="24" height="24" viewBox="0 0 24 24" fill="none" xmlns="http://www.w3.org/2000/svg">
<g clip-path="url(#clip0_3002_2182)">
<path d="M11.9063 23C17.9814 23 22.9063 18.0751 22.9063 12C22.9063 5.92487 17.9814 1 11.9063 1M11.9063 23C5.83112 23 0.90625 18.0751 0.90625 12M11.9063 23C14.9953 23 17.4995 18.0751 17.4995 12C17.4995 5.92487 14.9953 1 11.9063 1M11.9063 23C8.8172 23 6.31303 18.0751 6.31303 12C6.31303 5.92487 8.8172 1 11.9063 1M0.90625 12C0.90625 5.92487 5.83112 1 11.9063 1M0.90625 12H23.0927M5.00795 3.33051C5.00795 3.33051 12.3102 6.68644 18.8046 3.33051M18.8046 20.6695C18.8046 20.6695 11.5023 17.3136 5.00795 20.6695" stroke="#0190C3" stroke-width="0.5"/>
</g>
<defs>
<clipPath id="clip0_3002_2182">
<rect width="24" height="24" fill="white"/>
</clipPath>
</defs>
</svg>
