<svg width="180" height="80" viewBox="0 0 180 80" fill="none" xmlns="http://www.w3.org/2000/svg">
<g clip-path="url(#clip0_1395_1281)">
<path opacity="0.5" d="M47.6358 39.1563L47.7059 39.0998C47.8251 38.9932 47.9372 38.8802 48.0354 38.761C47.9793 38.9618 47.9723 39.1626 48.0144 39.3382C47.9092 39.2504 47.776 39.1939 47.6358 39.1563ZM64.8096 13.3199C64.8517 13.276 64.8377 13.1944 64.7676 13.1317C64.6975 13.0752 64.6133 13.0627 64.5643 13.1066C64.5222 13.1505 64.5432 13.2321 64.6133 13.2948C64.6764 13.3513 64.7676 13.3638 64.8096 13.3199ZM59.4191 9.43627C59.4542 9.38608 59.4332 9.30451 59.3701 9.24805C59.3 9.18531 59.2159 9.17276 59.1808 9.21668C59.1388 9.2606 59.1668 9.34843 59.2299 9.4049C59.293 9.46764 59.3771 9.48019 59.4191 9.43627ZM53.9866 6.0483C54.0217 6.00438 53.9936 5.91655 53.9235 5.85381C53.8604 5.79734 53.7833 5.79107 53.7483 5.83498C53.7203 5.88518 53.7483 5.96674 53.8114 6.0232C53.8815 6.08594 53.9586 6.09222 53.9866 6.0483ZM48.7364 3.28146C48.7574 3.23127 48.7223 3.14343 48.6592 3.08696C48.5962 3.0305 48.5261 3.02422 48.505 3.07442C48.477 3.12461 48.512 3.21244 48.5751 3.26891C48.6382 3.32538 48.7153 3.33165 48.7364 3.28146ZM43.8856 1.2926C43.8997 1.23613 43.8646 1.14829 43.8015 1.09183C43.7384 1.03536 43.6753 1.03536 43.6613 1.08555C43.6473 1.14202 43.6824 1.22985 43.7454 1.28632C43.8085 1.34279 43.8716 1.34279 43.8856 1.2926ZM39.6588 0.219738C39.6658 0.163272 39.6237 0.0817097 39.5677 0.0315175C39.5186 -0.0124006 39.4695 -0.0124006 39.4625 0.0440656C39.4555 0.100532 39.4976 0.188368 39.5536 0.232286C39.6027 0.282478 39.6518 0.276204 39.6588 0.219738ZM36.2661 0.232286C36.2661 0.17582 36.224 0.0879837 36.175 0.0440656C36.1189 0.000147434 36.0838 0.0126955 36.0838 0.0691616C36.0908 0.131902 36.1329 0.219738 36.182 0.263656C36.231 0.307574 36.2731 0.295026 36.2661 0.232286ZM33.8337 1.39925C33.8267 1.33651 33.7776 1.24868 33.7356 1.20476C33.6865 1.16711 33.6585 1.18594 33.6655 1.24868C33.6795 1.31769 33.7216 1.40553 33.7706 1.44945C33.8197 1.48709 33.8477 1.46827 33.8337 1.39925ZM32.3687 3.70182C32.3547 3.62653 32.3056 3.54497 32.2635 3.50732C32.2215 3.46968 32.2005 3.49478 32.2145 3.56379C32.2355 3.6328 32.2776 3.72064 32.3196 3.75828C32.3617 3.79593 32.3827 3.77083 32.3687 3.70182ZM31.7308 6.97058C31.7168 6.90157 31.6747 6.81373 31.6327 6.78236C31.5976 6.75099 31.5836 6.78236 31.5976 6.85137C31.6186 6.92666 31.6607 7.00822 31.6958 7.0396C31.7378 7.07097 31.7518 7.03959 31.7308 6.97058ZM31.6537 10.9358C31.6327 10.8667 31.5976 10.7852 31.5626 10.7601C31.5345 10.7287 31.5205 10.7601 31.5345 10.8291C31.5485 10.8981 31.5906 10.9797 31.6186 11.0048C31.6537 11.0361 31.6677 11.0048 31.6537 10.9358ZM31.7168 15.1833C31.7098 15.1268 31.6817 15.0641 31.6537 15.0452C31.6327 15.0201 31.6186 15.0515 31.6257 15.108C31.6327 15.1644 31.6607 15.2272 31.6887 15.246C31.7098 15.2711 31.7238 15.2397 31.7168 15.1833ZM31.4855 19.2928C31.4925 19.2488 31.4714 19.1924 31.4504 19.1735C31.4294 19.1547 31.4084 19.1735 31.4084 19.2237C31.4084 19.2739 31.4224 19.3241 31.4434 19.3429C31.4714 19.3618 31.4855 19.3429 31.4855 19.2928ZM30.5462 22.8438C30.5602 22.8062 30.5532 22.7623 30.5392 22.7497C30.5181 22.7309 30.4901 22.7435 30.4761 22.7811C30.462 22.8188 30.4691 22.8627 30.4901 22.8815C30.5041 22.9003 30.5321 22.8815 30.5462 22.8438ZM28.6045 25.5417C28.6325 25.5166 28.6395 25.4852 28.6255 25.4664C28.6045 25.4538 28.5694 25.4601 28.5414 25.4852C28.5133 25.5103 28.5063 25.5417 28.5274 25.5542C28.5414 25.573 28.5834 25.5668 28.6045 25.5417ZM25.5833 27.267C25.6253 27.2545 25.6394 27.2357 25.6183 27.2168C25.6043 27.198 25.5552 27.1917 25.5132 27.2043C25.4711 27.2168 25.4501 27.2419 25.4711 27.2608C25.4922 27.2733 25.5412 27.2796 25.5833 27.267ZM21.6018 28.1015C21.6578 28.1015 21.6859 28.0827 21.6649 28.0638C21.6438 28.045 21.5807 28.0325 21.5247 28.0325C21.4756 28.0325 21.4476 28.0513 21.4686 28.0701C21.4896 28.0889 21.5527 28.1015 21.6018 28.1015ZM17.0034 28.3022C17.0665 28.3085 17.1015 28.296 17.0735 28.2709C17.0525 28.2521 16.9824 28.227 16.9193 28.2207C16.8562 28.2144 16.8211 28.227 16.8492 28.2458C16.8702 28.2709 16.9403 28.296 17.0034 28.3022ZM12.2438 28.2332C12.3139 28.2458 12.349 28.2332 12.3209 28.2081C12.2859 28.183 12.2088 28.1517 12.1387 28.1391C12.0686 28.1266 12.0405 28.1391 12.0686 28.1642C12.0966 28.1893 12.1737 28.2207 12.2438 28.2332ZM7.81367 28.3022C7.88377 28.3211 7.91882 28.3085 7.88377 28.2771C7.85573 28.2458 7.7646 28.2081 7.69451 28.1956C7.62441 28.183 7.59637 28.1956 7.62441 28.227C7.65946 28.2583 7.74358 28.2897 7.81367 28.3022ZM4.16161 28.8732C4.23171 28.8857 4.25274 28.8669 4.21769 28.8355C4.18264 28.7979 4.09152 28.7665 4.02142 28.7477C3.95132 28.7414 3.92328 28.754 3.96534 28.7916C4.00039 28.823 4.09152 28.8606 4.16161 28.8732ZM1.59606 30.1907C1.65915 30.197 1.68018 30.1719 1.63812 30.1343C1.59606 30.0966 1.51194 30.059 1.44185 30.0527C1.37876 30.0464 1.35773 30.0715 1.39979 30.1092C1.44185 30.1468 1.52596 30.1844 1.59606 30.1907ZM0.292255 32.3741C0.355342 32.3741 0.369362 32.3427 0.320294 32.3051C0.278236 32.2611 0.194119 32.2235 0.131032 32.2235C0.0679444 32.2235 0.053925 32.2549 0.102993 32.2925C0.145051 32.3364 0.236177 32.3678 0.292255 32.3741ZM0.285245 35.4107C0.341323 35.4044 0.341323 35.3668 0.292255 35.3229C0.243187 35.2789 0.159071 35.2476 0.102993 35.2539C0.053925 35.2539 0.0469153 35.2915 0.0959832 35.3354C0.145051 35.3793 0.229168 35.4107 0.285245 35.4107ZM1.46989 39.1877C1.51895 39.1751 1.51895 39.1312 1.46989 39.0873C1.42082 39.0434 1.3367 39.012 1.28763 39.0245C1.23857 39.0371 1.23857 39.081 1.28763 39.1249C1.3367 39.1688 1.42082 39.2002 1.46989 39.1877ZM3.69897 43.5356C3.74804 43.5167 3.74103 43.4665 3.69196 43.4163C3.63589 43.3724 3.55878 43.3473 3.50971 43.3662C3.46765 43.3787 3.46765 43.4352 3.52373 43.4791C3.5728 43.5293 3.65692 43.5544 3.69897 43.5356ZM6.79026 48.2411C6.83231 48.216 6.8253 48.1595 6.76923 48.1156C6.72016 48.0654 6.64305 48.0466 6.60099 48.0654C6.55192 48.0905 6.56594 48.147 6.61501 48.1972C6.67109 48.2411 6.7482 48.2662 6.79026 48.2411ZM10.5755 53.1034C10.6176 53.0783 10.6035 53.0156 10.5545 52.9654C10.4984 52.9152 10.4213 52.8964 10.3792 52.9278C10.3372 52.9529 10.3512 53.0156 10.4003 53.0658C10.4563 53.116 10.5334 53.1348 10.5755 53.1034ZM14.9215 57.9344C14.9636 57.9031 14.9496 57.834 14.8935 57.7839C14.8374 57.7399 14.7603 57.7211 14.7252 57.7525C14.6832 57.7839 14.6902 57.8529 14.7463 57.9031C14.8024 57.9533 14.8795 57.9658 14.9215 57.9344ZM24.8963 66.8624C24.9384 66.831 24.9174 66.762 24.8613 66.7118C24.8122 66.6616 24.7351 66.649 24.7001 66.6867C24.665 66.7243 24.679 66.7933 24.7351 66.8373C24.7912 66.8875 24.8613 66.9 24.8963 66.8624ZM30.2938 70.7522C30.3218 70.7146 30.3078 70.6456 30.2518 70.5954C30.1957 70.5515 30.1256 70.5389 30.0975 70.5766C30.0625 70.6142 30.0835 70.6832 30.1396 70.7271C30.1957 70.7773 30.2588 70.7899 30.2938 70.7522ZM35.7263 74.1339C35.7474 74.0963 35.7263 74.0273 35.6703 73.9771C35.6212 73.9332 35.5581 73.9269 35.5301 73.9645C35.502 74.0022 35.5231 74.0712 35.5791 74.1214C35.6352 74.1653 35.6983 74.1716 35.7263 74.1339ZM40.9906 76.9071C41.0117 76.8631 40.9766 76.7816 40.9205 76.7314C40.8645 76.6812 40.8014 76.6749 40.7803 76.7188C40.7593 76.7628 40.7873 76.8443 40.8434 76.8945C40.9065 76.951 40.9696 76.9573 40.9906 76.9071ZM45.8413 78.9022C45.8554 78.852 45.8133 78.7704 45.7572 78.7202C45.7011 78.6701 45.6451 78.6638 45.6311 78.714C45.617 78.7642 45.6521 78.8457 45.7082 78.8959C45.7712 78.9524 45.8273 78.9524 45.8413 78.9022ZM50.0542 79.9562C50.0612 79.8998 50.0191 79.8182 49.9631 79.768C49.914 79.7178 49.8649 79.7241 49.8579 79.7806C49.8509 79.837 49.893 79.9186 49.949 79.9688C49.9981 80.019 50.0472 80.0127 50.0542 79.9562ZM53.4399 79.9374C53.4329 79.8747 53.3908 79.7868 53.3417 79.7429C53.2857 79.699 53.2506 79.7115 53.2506 79.7743C53.2576 79.8307 53.2997 79.9186 53.3487 79.9625C53.3978 80.0127 53.4399 80.0002 53.4399 79.9374ZM55.8652 78.7579C55.8512 78.6952 55.8091 78.6073 55.7601 78.5634C55.711 78.5258 55.683 78.5446 55.697 78.6073C55.704 78.6763 55.7531 78.7642 55.7951 78.8081C55.8442 78.8457 55.8722 78.8269 55.8652 78.7579ZM57.3162 76.4553C57.3022 76.38 57.2602 76.2985 57.2181 76.2608C57.176 76.2232 57.155 76.2483 57.169 76.3173C57.1831 76.3863 57.2251 76.4742 57.2672 76.5118C57.3092 76.5494 57.3303 76.5243 57.3162 76.4553ZM57.9471 73.174C57.9261 73.0925 57.877 73.0046 57.835 72.967C57.7999 72.9293 57.7789 72.9607 57.7999 73.0423C57.8139 73.1175 57.863 73.2117 57.905 73.2493C57.9471 73.2869 57.9611 73.2493 57.9471 73.174ZM58.0102 69.1963C57.9892 69.121 57.9471 69.0332 57.9121 69.0018C57.884 68.9704 57.863 69.0018 57.884 69.0771C57.898 69.1524 57.9401 69.2402 57.9752 69.2716C58.0102 69.3029 58.0242 69.2716 58.0102 69.1963ZM57.9191 64.9174C57.9121 64.8484 57.877 64.7731 57.849 64.748C57.8139 64.7166 57.7999 64.7543 57.8069 64.8233C57.8209 64.8923 57.849 64.9676 57.884 64.9927C57.9121 65.0241 57.9261 64.9864 57.9191 64.9174ZM58.1294 60.7954C58.1294 60.7326 58.1083 60.6699 58.0873 60.6448C58.0593 60.6197 58.0382 60.6511 58.0312 60.7075C58.0312 60.764 58.0523 60.833 58.0803 60.8581C58.1013 60.8769 58.1294 60.8518 58.1294 60.7954ZM59.0546 57.2255C59.0687 57.1815 59.0617 57.1251 59.0406 57.1063C59.0126 57.0874 58.9845 57.1063 58.9635 57.1502C58.9495 57.1941 58.9565 57.2506 58.9775 57.2694C59.0056 57.2882 59.0336 57.2694 59.0546 57.2255ZM60.9753 54.5151C61.0104 54.4837 61.0174 54.4461 60.9963 54.4273C60.9753 54.4022 60.9262 54.4147 60.8982 54.4398C60.8631 54.4712 60.8561 54.5151 60.8772 54.5339C60.8982 54.5527 60.9473 54.5465 60.9753 54.5151ZM63.9965 52.7835C64.0456 52.7709 64.0666 52.7395 64.0456 52.7207C64.0175 52.6956 63.9614 52.6894 63.9054 52.7082C63.8563 52.7207 63.8353 52.7521 63.8633 52.7709C63.8843 52.7897 63.9474 52.796 63.9965 52.7835ZM67.971 51.949C68.0341 51.9427 68.0691 51.9239 68.0411 51.9051C68.0131 51.88 67.943 51.8612 67.8729 51.8612C67.8098 51.8612 67.7817 51.8863 67.8028 51.9051C67.8308 51.9302 67.9009 51.949 67.971 51.949ZM72.5694 51.7545C72.6465 51.7608 72.6885 51.7482 72.6605 51.7232C72.6254 51.6918 72.5413 51.6667 72.4642 51.6541C72.3871 51.6479 72.345 51.6604 72.3801 51.6918C72.4081 51.7169 72.4923 51.742 72.5694 51.7545ZM77.343 51.8298C77.4271 51.8424 77.4691 51.8298 77.4341 51.7984C77.399 51.7671 77.3009 51.7294 77.2168 51.7169C77.1327 51.6981 77.0906 51.7169 77.1257 51.7482C77.1607 51.7796 77.2589 51.8173 77.343 51.8298ZM81.7871 51.7733C81.8712 51.7859 81.9133 51.7733 81.8712 51.7357C81.8292 51.6981 81.724 51.6541 81.6399 51.6416C81.5488 51.6228 81.5137 51.6416 81.5558 51.673C81.5979 51.7106 81.696 51.7545 81.7871 51.7733ZM85.4602 51.2212C85.5443 51.2338 85.5794 51.215 85.5303 51.171C85.4883 51.1271 85.3761 51.0832 85.292 51.0707C85.2079 51.0518 85.1728 51.0769 85.2219 51.1146C85.2639 51.1585 85.3761 51.2024 85.4602 51.2212ZM88.0398 49.9162C88.1239 49.9288 88.1449 49.8974 88.0959 49.8535C88.0468 49.8096 87.9346 49.7657 87.8575 49.7531C87.7734 49.7406 87.7524 49.7719 87.8015 49.8158C87.8505 49.866 87.9627 49.91 88.0398 49.9162ZM89.3576 47.7517C89.4347 47.758 89.4487 47.7203 89.3927 47.6701C89.3366 47.6199 89.2314 47.576 89.1613 47.576C89.0842 47.5698 89.0702 47.6074 89.1263 47.6576C89.1824 47.7078 89.2875 47.7517 89.3576 47.7517ZM89.3857 44.7339C89.4557 44.7276 89.4628 44.6774 89.4067 44.6272C89.3436 44.5708 89.2384 44.5331 89.1754 44.5394C89.1053 44.5457 89.0983 44.5896 89.1543 44.6461C89.2174 44.6963 89.3226 44.7339 89.3857 44.7339ZM88.215 40.9632C88.2711 40.9507 88.2711 40.8942 88.208 40.8377C88.1449 40.7813 88.0468 40.7499 87.9837 40.7624C87.9276 40.775 87.9276 40.8315 87.9907 40.8879C88.0538 40.9444 88.1519 40.9758 88.215 40.9632ZM85.993 36.6279C86.049 36.609 86.042 36.5463 85.9789 36.4898C85.9088 36.4271 85.8177 36.402 85.7616 36.4208C85.7056 36.4396 85.7126 36.5024 85.7757 36.5651C85.8387 36.6216 85.9369 36.653 85.993 36.6279ZM82.9087 31.9286C82.9577 31.9035 82.9507 31.8345 82.8806 31.7718C82.8176 31.7153 82.7194 31.6902 82.6703 31.7153C82.6143 31.7467 82.6283 31.8157 82.6914 31.8722C82.7615 31.9349 82.8526 31.96 82.9087 31.9286ZM79.1305 27.0725C79.1795 27.0412 79.1655 26.9659 79.0954 26.9031C79.0323 26.8467 78.9342 26.8278 78.8851 26.8592C78.836 26.8906 78.8501 26.9659 78.9202 27.0286C78.9832 27.0851 79.0814 27.1102 79.1305 27.0725ZM74.7844 22.2478C74.8335 22.2102 74.8195 22.1286 74.7494 22.0721C74.6863 22.0094 74.5952 21.9969 74.5461 22.0345C74.497 22.0721 74.5111 22.1537 74.5741 22.2102C74.6442 22.2729 74.7354 22.2855 74.7844 22.2478ZM69.9828 17.6239C70.0248 17.5799 70.0108 17.4984 69.9407 17.4356C69.8776 17.3792 69.7865 17.3666 69.7374 17.4043C69.6884 17.4482 69.7094 17.5298 69.7725 17.5925C69.8426 17.649 69.9337 17.6678 69.9828 17.6239ZM62.7488 15.9675C62.8609 15.8483 62.7908 15.6099 62.5875 15.428C62.3913 15.2523 62.1389 15.2021 62.0338 15.3276C61.9216 15.4468 61.9987 15.6915 62.195 15.8671C62.3913 16.0428 62.6366 16.0867 62.7488 15.9675ZM57.6317 12.2784C57.7228 12.1529 57.6457 11.9145 57.4494 11.7388C57.2602 11.5694 57.0358 11.5318 56.9447 11.6635C56.8536 11.7953 56.9377 12.0337 57.127 12.2031C57.3162 12.3725 57.5405 12.4102 57.6317 12.2784ZM52.5777 9.19786C52.6478 9.05355 52.5566 8.80887 52.3674 8.63947C52.1781 8.47007 51.9678 8.45125 51.8977 8.58928C51.8276 8.73358 51.9258 8.98454 52.108 9.14767C52.2973 9.31706 52.5006 9.33589 52.5777 9.19786ZM47.79 6.86392C47.8391 6.70707 47.734 6.44984 47.5517 6.28671C47.3695 6.12359 47.1872 6.12359 47.1381 6.27416C47.0891 6.43102 47.2012 6.69452 47.3765 6.85137C47.5587 7.0145 47.741 7.0145 47.79 6.86392ZM43.5211 5.43972C43.5492 5.27032 43.43 5.00681 43.2548 4.84996C43.0795 4.69311 42.9183 4.71194 42.8973 4.88133C42.8762 5.05701 42.9954 5.32051 43.1636 5.47109C43.3389 5.62794 43.4931 5.60912 43.5211 5.43972ZM39.9672 5.06955C39.9742 4.88133 39.841 4.61155 39.6798 4.46725C39.5186 4.32295 39.3854 4.36059 39.3854 4.54881C39.3854 4.73703 39.5186 5.01309 39.6798 5.15112C39.841 5.29542 39.9672 5.25777 39.9672 5.06955ZM37.2825 5.83498C37.2615 5.63422 37.1283 5.35816 36.9811 5.2264C36.8269 5.09465 36.7287 5.15112 36.7498 5.35816C36.7708 5.5652 36.904 5.84126 37.0512 5.96674C37.1984 6.09849 37.3035 6.04203 37.2825 5.83498ZM35.488 7.72346C35.453 7.51015 35.3198 7.24036 35.1866 7.12116C35.0534 6.99568 34.9693 7.07724 35.0043 7.29056C35.0464 7.51015 35.1796 7.77993 35.3128 7.89914C35.4389 8.01834 35.5231 7.93678 35.488 7.72346ZM34.4716 10.5781C34.4365 10.3648 34.3104 10.1139 34.1982 10.0135C34.0791 9.90682 34.023 9.99466 34.058 10.208C34.1001 10.4213 34.2192 10.6723 34.3314 10.7726C34.4436 10.873 34.5066 10.7852 34.4716 10.5781ZM33.9739 14.1292C33.9459 13.9285 33.8407 13.6901 33.7426 13.6022C33.6445 13.5144 33.5884 13.6085 33.6234 13.8093C33.6515 14.0163 33.7566 14.2484 33.8547 14.3363C33.9459 14.4241 34.0019 14.33 33.9739 14.1292ZM33.6164 17.9878C33.6094 17.8058 33.5253 17.5925 33.4412 17.5172C33.3571 17.4419 33.301 17.5298 33.308 17.7117C33.322 17.8999 33.3991 18.107 33.4832 18.1823C33.5673 18.2575 33.6234 18.1697 33.6164 17.9878ZM32.9645 21.7145C32.9855 21.5577 32.9365 21.382 32.8664 21.313C32.7893 21.2502 32.7192 21.3193 32.6981 21.4761C32.6771 21.6267 32.7122 21.8086 32.7893 21.8714C32.8594 21.9404 32.9435 21.8651 32.9645 21.7145ZM31.6327 24.9268C31.6958 24.8076 31.6887 24.6633 31.6186 24.6006C31.5556 24.5378 31.4504 24.588 31.3873 24.7072C31.3242 24.8202 31.3242 24.9645 31.3943 25.0272C31.4644 25.0837 31.5696 25.0398 31.6327 24.9268ZM29.3896 27.3549C29.5017 27.2796 29.5298 27.1666 29.4667 27.1039C29.3966 27.0474 29.2564 27.0663 29.1512 27.1415C29.0391 27.2168 29.004 27.3235 29.0741 27.38C29.1372 27.4427 29.2844 27.4302 29.3896 27.3549ZM26.2071 28.9296C26.3544 28.892 26.4244 28.8104 26.3544 28.7477C26.2843 28.685 26.102 28.6661 25.9548 28.6975C25.8006 28.7352 25.7305 28.8167 25.8006 28.8795C25.8707 28.9422 26.0529 28.9673 26.2071 28.9296ZM22.2677 29.7704C22.4499 29.7641 22.5411 29.7013 22.464 29.6386C22.3869 29.5696 22.1766 29.5194 21.9943 29.5194C21.8051 29.5257 21.7209 29.5821 21.798 29.6512C21.8751 29.7202 22.0854 29.7704 22.2677 29.7704ZM17.9637 30.1656C18.174 30.1844 18.2722 30.1343 18.188 30.059C18.0969 29.9837 17.8586 29.9021 17.6483 29.8833C17.431 29.8582 17.3329 29.9084 17.424 29.99C17.5151 30.0652 17.7534 30.1468 17.9637 30.1656ZM13.7649 30.4981C13.9892 30.5295 14.0874 30.4793 13.9822 30.3852C13.8841 30.2974 13.6177 30.197 13.3934 30.1656C13.1621 30.1343 13.0639 30.1844 13.1691 30.2723C13.2742 30.3664 13.5406 30.4668 13.7649 30.4981ZM10.1339 31.1318C10.3582 31.1632 10.4493 31.1067 10.3302 31.0001C10.218 30.8997 9.93761 30.7868 9.70629 30.7554C9.47497 30.7177 9.38385 30.7805 9.50301 30.8871C9.62218 30.9938 9.90257 31.1005 10.1339 31.1318ZM7.44917 32.3678C7.66647 32.3929 7.74358 32.3176 7.61039 32.1984C7.47721 32.0792 7.19682 31.9663 6.97251 31.9412C6.7482 31.9161 6.6781 31.9914 6.81128 32.1106C6.94447 32.2298 7.23187 32.349 7.44917 32.3678ZM5.9561 34.3755C6.16639 34.3818 6.21546 34.2814 6.06825 34.1559C5.92806 34.0241 5.64066 33.9112 5.43037 33.8987C5.22008 33.8924 5.17101 33.9928 5.31822 34.1245C5.46542 34.2563 5.75282 34.3629 5.9561 34.3755ZM5.74581 37.18C5.93507 37.1674 5.96311 37.0482 5.80189 36.9039C5.64767 36.7659 5.36728 36.6592 5.17802 36.6718C4.98876 36.6781 4.96072 36.8035 5.11493 36.9416C5.27616 37.0859 5.55655 37.1925 5.74581 37.18ZM6.76222 40.706C6.93746 40.6746 6.94447 40.5303 6.77624 40.3797C6.61501 40.2354 6.33462 40.135 6.16639 40.1664C5.99115 40.1978 5.98414 40.3421 6.15237 40.4927C6.3206 40.6432 6.59398 40.7373 6.76222 40.706ZM8.88616 44.7841C9.04037 44.7339 9.02635 44.5708 8.85812 44.4139C8.68288 44.2633 8.41651 44.1755 8.26229 44.2257C8.10808 44.2759 8.1221 44.439 8.29734 44.5959C8.46558 44.7527 8.73194 44.8343 8.88616 44.7841ZM11.9424 49.2198C12.0826 49.1508 12.0545 48.9689 11.8723 48.812C11.6971 48.6552 11.4447 48.5799 11.2975 48.6426C11.1573 48.7116 11.1853 48.8936 11.3676 49.0567C11.5428 49.2135 11.8022 49.2888 11.9424 49.2198ZM15.7557 53.8061C15.8889 53.7183 15.8398 53.5175 15.6575 53.3481C15.4753 53.185 15.2159 53.116 15.0827 53.2038C14.9496 53.2854 14.9916 53.4924 15.1739 53.6555C15.3631 53.8249 15.6225 53.8877 15.7557 53.8061ZM20.1367 58.3297C20.2559 58.2293 20.2068 58.016 20.0176 57.8466C19.8283 57.6835 19.583 57.6207 19.4568 57.7211C19.3376 57.8152 19.3867 58.0348 19.576 58.2042C19.7652 58.3736 20.0176 58.4238 20.1367 58.3297ZM24.9384 62.6274C25.0435 62.5145 24.9805 62.2949 24.7982 62.1255C24.6089 61.9561 24.3706 61.9122 24.2585 62.0188C24.1463 62.1255 24.2094 62.3513 24.3986 62.5207C24.5879 62.6901 24.8262 62.7341 24.9384 62.6274ZM29.9854 66.5424C30.0835 66.4232 30.0064 66.191 29.8242 66.0279C29.6349 65.8585 29.4106 65.8209 29.3125 65.9401C29.2143 66.0593 29.2914 66.2914 29.4737 66.4545C29.6629 66.6239 29.8943 66.6616 29.9854 66.5424ZM35.0885 69.9366C35.1656 69.8049 35.0814 69.5665 34.8992 69.4033C34.7169 69.2402 34.5066 69.2151 34.4295 69.3469C34.3454 69.4723 34.4295 69.7108 34.6188 69.8802C34.8011 70.0433 35.0113 70.0684 35.0885 69.9366ZM40.0303 72.6533C40.0864 72.509 39.9882 72.2643 39.806 72.1074C39.6307 71.9506 39.4415 71.938 39.3854 72.0761C39.3223 72.2204 39.4205 72.4651 39.5957 72.6282C39.7779 72.785 39.9672 72.7976 40.0303 72.6533ZM44.5656 74.5355C44.5936 74.3724 44.4885 74.1214 44.3132 73.9708C44.145 73.814 43.9768 73.8202 43.9417 73.9771C43.9067 74.1339 44.0118 74.3912 44.1871 74.5417C44.3623 74.6986 44.5305 74.6923 44.5656 74.5355ZM48.477 75.4264C48.491 75.2444 48.3648 74.9747 48.1966 74.8304C48.0284 74.6798 47.8882 74.7049 47.8742 74.8868C47.8601 75.0625 47.9863 75.3323 48.1545 75.4829C48.3228 75.6334 48.463 75.6083 48.477 75.4264ZM51.5683 75.2005C51.5613 74.9998 51.4281 74.73 51.2739 74.5919C51.1197 74.4539 51.0005 74.4978 51.0075 74.6986C51.0215 74.8931 51.1547 75.1629 51.3089 75.3072C51.4631 75.4452 51.5823 75.395 51.5683 75.2005ZM53.7623 73.8202C53.7343 73.6069 53.5941 73.3371 53.4539 73.2117C53.3137 73.0862 53.2226 73.1552 53.2506 73.3622C53.2786 73.5756 53.4118 73.8453 53.559 73.9771C53.6992 74.1026 53.7904 74.0336 53.7623 73.8202ZM55.0871 71.3734C55.0451 71.1538 54.9189 70.8903 54.7927 70.7773C54.6666 70.6644 54.5965 70.7522 54.6385 70.9656C54.6736 71.1852 54.8068 71.4549 54.9329 71.5679C55.0591 71.6808 55.1292 71.593 55.0871 71.3734ZM55.7461 68.0732C55.704 67.8599 55.5848 67.6027 55.4797 67.5086C55.3745 67.4145 55.3115 67.5086 55.3465 67.7219C55.3886 67.9352 55.5077 68.1862 55.6129 68.2866C55.725 68.3869 55.7811 68.2928 55.7461 68.0732ZM56.0615 64.2649C56.0405 64.0641 55.9423 63.832 55.8512 63.7504C55.7601 63.6689 55.704 63.763 55.725 63.9638C55.7461 64.1645 55.8442 64.3967 55.9353 64.4782C56.0335 64.5661 56.0895 64.472 56.0615 64.2649ZM56.4681 60.375C56.4681 60.1993 56.412 59.9986 56.3279 59.9296C56.2508 59.8543 56.1807 59.9358 56.1737 60.1115C56.1666 60.2872 56.2297 60.488 56.3138 60.5632C56.398 60.6385 56.4611 60.5507 56.4681 60.375ZM57.3793 56.8302C57.4284 56.6859 57.4003 56.5165 57.3303 56.4538C57.2531 56.3847 57.155 56.4475 57.113 56.5918C57.0709 56.7361 57.0989 56.9118 57.169 56.9808C57.2461 57.0435 57.3373 56.9808 57.3793 56.8302ZM59.1247 53.9692C59.2159 53.8689 59.2369 53.7371 59.1668 53.6744C59.0967 53.6116 58.9635 53.6367 58.8724 53.7434C58.7813 53.8438 58.7672 53.9818 58.8373 54.0445C58.9074 54.1073 59.0336 54.0759 59.1247 53.9692ZM61.8445 51.9678C61.9847 51.9051 62.0408 51.811 61.9707 51.742C61.9006 51.6792 61.7253 51.673 61.5851 51.7357C61.445 51.7922 61.3959 51.8988 61.466 51.9616C61.5361 52.0243 61.7043 52.0243 61.8445 51.9678ZM65.4545 50.7946C65.6368 50.7758 65.7279 50.7068 65.6438 50.6377C65.5667 50.5625 65.3564 50.5185 65.1741 50.5436C64.9919 50.5625 64.9078 50.6377 64.9849 50.7068C65.062 50.782 65.2723 50.8134 65.4545 50.7946ZM69.6603 50.2488C69.8776 50.255 69.9828 50.2048 69.8917 50.1233C69.8005 50.0417 69.5482 49.9664 69.3309 49.9539C69.1206 49.9476 69.0154 50.0041 69.1066 50.0856C69.1907 50.1609 69.443 50.2362 69.6603 50.2488ZM74.0134 49.9664C74.2587 49.9978 74.3709 49.9476 74.2657 49.8535C74.1606 49.7594 73.8802 49.659 73.6418 49.6339C73.4035 49.6025 73.2914 49.659 73.3965 49.7468C73.4946 49.8409 73.775 49.9413 74.0134 49.9664ZM78.0439 49.5774C78.2963 49.6151 78.4014 49.5586 78.2753 49.4457C78.1561 49.339 77.8547 49.2198 77.6023 49.1884C77.357 49.1508 77.2518 49.2073 77.371 49.3139C77.4902 49.4206 77.7916 49.5398 78.0439 49.5774ZM81.2894 48.7179C81.5418 48.7555 81.6329 48.6803 81.4927 48.5548C81.3525 48.4293 81.0441 48.3101 80.7988 48.2787C80.5534 48.2473 80.4623 48.3226 80.5955 48.4418C80.7357 48.561 81.0441 48.6865 81.2894 48.7179ZM83.4554 47.1619C83.6938 47.1808 83.7569 47.0867 83.6026 46.9486C83.4484 46.8106 83.133 46.6851 82.9017 46.6663C82.6703 46.6537 82.6003 46.7479 82.7475 46.8859C82.9017 47.0176 83.2171 47.1431 83.4554 47.1619ZM84.3597 44.7966C84.577 44.7966 84.619 44.6774 84.4508 44.5269C84.2826 44.3763 83.9742 44.2571 83.7569 44.2633C83.5396 44.2633 83.4975 44.3826 83.6587 44.5331C83.827 44.6774 84.1354 44.7966 84.3597 44.7966ZM83.9812 41.6534C84.1844 41.6345 84.1985 41.484 84.0232 41.3271C83.841 41.1703 83.5396 41.0573 83.3433 41.0824C83.147 41.1075 83.126 41.2518 83.3012 41.4087C83.4765 41.5655 83.7849 41.6784 83.9812 41.6534ZM82.425 37.8576C82.6073 37.8137 82.6003 37.6443 82.411 37.4749C82.2287 37.3117 81.9273 37.2113 81.7521 37.2553C81.5768 37.3055 81.5768 37.4749 81.7661 37.638C81.9483 37.8011 82.2428 37.9015 82.425 37.8576ZM79.8384 33.5975C79.9996 33.5348 79.9786 33.3403 79.7824 33.1709C79.5931 32.9952 79.3057 32.9136 79.1445 32.9764C78.9832 33.0454 79.0043 33.2336 79.2005 33.403C79.3898 33.5724 79.6772 33.6603 79.8384 33.5975ZM76.4037 29.0865C76.5579 29.0049 76.5158 28.7916 76.3196 28.6159C76.1233 28.4403 75.8429 28.365 75.6957 28.4465C75.5485 28.5344 75.5905 28.7414 75.7868 28.9171C75.9761 29.0865 76.2565 29.1681 76.4037 29.0865ZM72.303 24.519C72.4362 24.4249 72.3871 24.199 72.1908 24.0234C71.9876 23.8414 71.7212 23.7787 71.588 23.8791C71.4478 23.9794 71.5039 24.199 71.7002 24.3747C71.8964 24.5504 72.1698 24.6194 72.303 24.519ZM67.6976 20.0958C67.8168 19.9892 67.7607 19.7508 67.5574 19.5751C67.3611 19.3931 67.0948 19.3367 66.9756 19.4496C66.8564 19.5625 66.9195 19.7947 67.1158 19.9703C67.3121 20.146 67.5714 20.2025 67.6976 20.0958ZM60.9543 18.4458C61.1225 18.2575 61.0033 17.8748 60.6949 17.5988C60.3865 17.3227 60.001 17.2537 59.8467 17.4545C59.6855 17.649 59.8047 18.0317 60.1131 18.3015C60.4145 18.5712 60.7931 18.6403 60.9543 18.4458ZM56.1666 15.0829C56.2998 14.8696 56.1666 14.4743 55.8582 14.1982C55.5568 13.9285 55.1993 13.8845 55.0731 14.1041C54.947 14.33 55.0871 14.7253 55.3886 14.9888C55.683 15.2586 56.0335 15.2962 56.1666 15.0829ZM51.4982 12.4102C51.5963 12.1655 51.4421 11.7577 51.1407 11.4941C50.8463 11.2244 50.5308 11.2118 50.4327 11.4565C50.3416 11.7075 50.5028 12.1153 50.7902 12.3725C51.0846 12.636 51.393 12.6486 51.4982 12.4102ZM47.1872 10.597C47.2573 10.3272 47.0821 9.90682 46.7947 9.65586C46.5143 9.39863 46.2339 9.41745 46.1778 9.6935C46.1217 9.96956 46.304 10.3899 46.5774 10.6346C46.8507 10.8856 47.1241 10.8667 47.1872 10.597ZM43.4791 9.80644C43.5071 9.51156 43.3179 9.07865 43.0515 8.84024C42.7851 8.60183 42.5538 8.65829 42.5328 8.95944C42.5117 9.2606 42.708 9.6935 42.9674 9.92564C43.2197 10.1578 43.451 10.1013 43.4791 9.80644ZM40.535 10.139C40.528 9.81898 40.3247 9.3798 40.0864 9.16021C39.841 8.9469 39.6518 9.02846 39.6588 9.35471C39.6728 9.68723 39.8761 10.1201 40.1144 10.3335C40.3457 10.5405 40.535 10.4589 40.535 10.139ZM38.397 11.5757C38.376 11.2495 38.1797 10.8228 37.9624 10.6283C37.7451 10.4401 37.5979 10.553 37.626 10.8918C37.661 11.2244 37.8573 11.651 38.0676 11.8329C38.2779 12.0212 38.4251 11.9082 38.397 11.5757ZM37.0091 14.01C36.9741 13.6775 36.7918 13.2697 36.6026 13.1003C36.4133 12.9246 36.2941 13.0627 36.3292 13.4077C36.3712 13.7402 36.5465 14.1481 36.7287 14.3112C36.911 14.4743 37.0371 14.3426 37.0091 14.01ZM36.1049 17.1533C36.0838 16.8333 35.9366 16.4506 35.7684 16.3063C35.6072 16.1557 35.495 16.3063 35.5231 16.6263C35.5441 16.9525 35.6913 17.329 35.8525 17.467C36.0067 17.6113 36.1259 17.467 36.1049 17.1533ZM35.3338 20.6228C35.3478 20.3342 35.2427 19.9954 35.0955 19.87C34.9553 19.7445 34.8361 19.8762 34.8291 20.1711C34.8221 20.4597 34.9202 20.7922 35.0534 20.9177C35.1936 21.0369 35.3198 20.9114 35.3338 20.6228ZM34.2893 23.9983C34.3524 23.7599 34.2964 23.4712 34.1702 23.3583C34.051 23.2454 33.9038 23.3583 33.8407 23.603C33.7776 23.8414 33.8197 24.1237 33.9389 24.2304C34.058 24.3371 34.2192 24.2367 34.2893 23.9983ZM32.614 26.9094C32.7472 26.7275 32.7472 26.4953 32.6351 26.3887C32.5229 26.2883 32.3266 26.3573 32.2005 26.5392C32.0673 26.7212 32.0462 26.9408 32.1584 27.0412C32.2776 27.1478 32.4808 27.0914 32.614 26.9094ZM30.1256 29.1241C30.3218 29.0049 30.3849 28.823 30.2728 28.7226C30.1606 28.6222 29.9153 28.641 29.719 28.754C29.5157 28.8732 29.4386 29.0363 29.5578 29.1367C29.6699 29.2433 29.9293 29.2371 30.1256 29.1241ZM26.8661 30.6111C27.1254 30.5546 27.2376 30.4166 27.1184 30.3037C26.9992 30.197 26.6908 30.1656 26.4245 30.2158C26.1581 30.2723 26.0389 30.3978 26.1581 30.5107C26.2843 30.6174 26.5997 30.6675 26.8661 30.6111ZM23.0878 31.5459C23.4033 31.5334 23.5435 31.4204 23.4103 31.2949C23.2701 31.1757 22.9056 31.0879 22.5901 31.1005C22.2677 31.1067 22.1205 31.2071 22.2607 31.3326C22.4009 31.4581 22.7724 31.5522 23.0878 31.5459ZM19.2044 32.2298C19.5479 32.2486 19.7021 32.1419 19.5479 32.0039C19.3937 31.8659 18.9801 31.7341 18.6297 31.7153C18.2722 31.6902 18.1109 31.7843 18.2722 31.9286C18.4334 32.0792 18.854 32.211 19.2044 32.2298ZM15.6856 33.0329C16.0501 33.0579 16.1973 32.9513 16.022 32.7882C15.8398 32.625 15.3912 32.4745 15.0267 32.4368C14.6481 32.4054 14.5009 32.5058 14.6902 32.6752C14.8724 32.8446 15.3211 33.0015 15.6856 33.0329ZM12.9728 34.2814C13.3303 34.3002 13.4565 34.1684 13.2532 33.9865C13.0499 33.8046 12.5803 33.6289 12.2158 33.6038C11.8443 33.5724 11.7181 33.7042 11.9284 33.8924C12.1457 34.0806 12.6083 34.2563 12.9728 34.2814ZM11.3536 36.1824C11.6971 36.1887 11.7952 36.0256 11.5639 35.8185C11.3325 35.6115 10.8629 35.4421 10.5124 35.4295C10.1619 35.417 10.0708 35.5801 10.3021 35.7934C10.5404 36.0067 11.0101 36.1824 11.3536 36.1824ZM10.9891 38.8238C11.3045 38.7987 11.3676 38.5979 11.1152 38.3783C10.8629 38.1525 10.4003 37.9831 10.0708 38.0019C9.74835 38.0207 9.69227 38.2215 9.95163 38.4536C10.204 38.6795 10.6736 38.8489 10.9891 38.8238ZM11.8723 42.149C12.1597 42.0925 12.1807 41.8541 11.9144 41.6157C11.648 41.3773 11.1924 41.2267 10.8979 41.2706C10.6035 41.3208 10.5825 41.5592 10.8559 41.8039C11.1293 42.0486 11.5849 42.2055 11.8723 42.149ZM13.8981 46.0075C14.1575 45.9197 14.1434 45.6499 13.8631 45.3989C13.5827 45.148 13.1411 45.01 12.8747 45.0915C12.6083 45.1668 12.6293 45.4429 12.9097 45.7001C13.1971 45.9573 13.6387 46.0891 13.8981 46.0075ZM16.8912 50.186C17.1226 50.0731 17.0805 49.7719 16.7931 49.5147C16.5057 49.2575 16.0781 49.1383 15.8398 49.2449C15.6015 49.3578 15.6505 49.659 15.9449 49.9225C16.2393 50.186 16.6599 50.3052 16.8912 50.186ZM20.6555 54.4774C20.8587 54.3394 20.7886 54.0069 20.4942 53.7497C20.1998 53.4861 19.7933 53.3795 19.583 53.5175C19.3727 53.6555 19.4428 53.9881 19.7372 54.2516C20.0386 54.5214 20.4452 54.6217 20.6555 54.4774ZM24.9734 58.6559C25.1557 58.4865 25.0576 58.1415 24.7632 57.878C24.4687 57.6145 24.0832 57.5329 23.8939 57.6897C23.7117 57.8529 23.8028 58.2042 24.1042 58.4677C24.4057 58.7375 24.7912 58.8253 24.9734 58.6559ZM29.6349 62.5145C29.7891 62.3262 29.6699 61.9623 29.3755 61.6988C29.0881 61.4353 28.7236 61.3726 28.5624 61.5545C28.4012 61.7428 28.5133 62.1066 28.8148 62.3764C29.1162 62.6399 29.4807 62.7027 29.6349 62.5145ZM34.4225 65.8773C34.5417 65.6577 34.4085 65.2688 34.1141 65.0052C33.8197 64.7417 33.4762 64.7041 33.343 64.9111C33.2099 65.1245 33.35 65.5134 33.6445 65.7832C33.9459 66.0467 34.2964 66.0907 34.4225 65.8773ZM39.063 68.525C39.1541 68.2866 38.9929 67.8787 38.7125 67.6278C38.4251 67.3706 38.1237 67.358 38.0185 67.5964C37.9204 67.8286 38.0746 68.2301 38.369 68.4936C38.6564 68.7508 38.9718 68.7697 39.063 68.525ZM43.3249 70.3005C43.3809 70.0307 43.2057 69.6104 42.9323 69.372C42.6659 69.1273 42.3926 69.1461 42.3295 69.4096C42.2664 69.6731 42.4416 70.0872 42.722 70.3382C42.9954 70.5828 43.2688 70.5703 43.3249 70.3005ZM46.9769 71.0346C46.9979 70.7397 46.8087 70.3131 46.5563 70.0872C46.304 69.8613 46.0727 69.9115 46.0446 70.2001C46.0166 70.4887 46.2058 70.9154 46.4652 71.1475C46.7316 71.3859 46.9629 71.3357 46.9769 71.0346ZM49.8579 70.6456C49.8439 70.3256 49.6476 69.8927 49.4163 69.6857C49.178 69.4786 48.9957 69.5602 48.9957 69.8739C49.0027 70.1876 49.199 70.6205 49.4443 70.8338C49.6827 71.0471 49.8649 70.9656 49.8579 70.6456ZM51.8977 69.121C51.8697 68.7885 51.6734 68.3618 51.4631 68.1736C51.2528 67.9917 51.1056 68.1046 51.1267 68.4309C51.1547 68.7634 51.351 69.1837 51.5683 69.3782C51.7856 69.5727 51.9328 69.4598 51.8977 69.121ZM53.2085 66.6114C53.1665 66.2726 52.9842 65.8585 52.802 65.6891C52.6127 65.5197 52.4865 65.6577 52.5216 65.9965C52.5496 66.3353 52.7389 66.7494 52.9282 66.9251C53.1244 67.1008 53.2506 66.9627 53.2085 66.6114ZM54.0147 63.3865C53.9866 63.0603 53.8394 62.6776 53.6782 62.5333C53.517 62.389 53.3978 62.5333 53.4188 62.8533C53.4399 63.1795 53.5941 63.5685 53.7623 63.7191C53.9305 63.8696 54.0427 63.7191 54.0147 63.3865ZM54.7016 59.8417C54.7156 59.5468 54.6105 59.2081 54.4703 59.0826C54.3301 58.9571 54.2039 59.0888 54.1899 59.3775C54.1759 59.6723 54.288 60.0174 54.4282 60.1492C54.5754 60.2809 54.6946 60.1429 54.7016 59.8417ZM55.69 56.4098C55.7531 56.1652 55.711 55.8765 55.5848 55.7636C55.4587 55.657 55.2974 55.7573 55.2344 56.002C55.1643 56.2467 55.2203 56.5416 55.3465 56.6545C55.4797 56.7675 55.6199 56.6545 55.69 56.4098ZM57.3232 53.4611C57.4494 53.2791 57.4704 53.047 57.3583 52.9466C57.2391 52.8399 57.0288 52.9027 56.8957 53.0846C56.7625 53.2666 56.7555 53.5112 56.8746 53.6116C56.9938 53.7183 57.1901 53.6493 57.3232 53.4611ZM59.7977 51.2401C60.001 51.1208 60.0781 50.9452 59.9659 50.8385C59.8467 50.7319 59.5804 50.7381 59.3701 50.8573C59.1668 50.9765 59.1037 51.1648 59.2159 51.2714C59.335 51.3781 59.5874 51.3593 59.7977 51.2401ZM63.0782 49.7657C63.3516 49.7092 63.4778 49.5774 63.3516 49.4645C63.2254 49.3516 62.896 49.3014 62.6226 49.3641C62.3492 49.4206 62.237 49.5649 62.3632 49.6778C62.4824 49.7908 62.8048 49.8284 63.0782 49.7657ZM66.9125 48.8873C67.249 48.881 67.4102 48.7681 67.263 48.6363C67.1158 48.5046 66.7233 48.4042 66.3868 48.4167C66.0573 48.4293 65.9101 48.5485 66.0503 48.674C66.1905 48.8057 66.5761 48.8936 66.9125 48.8873ZM70.866 48.2662C71.2445 48.2913 71.4128 48.1909 71.2445 48.0403C71.0693 47.8834 70.6347 47.7391 70.2632 47.7266C69.8987 47.7078 69.7304 47.8144 69.8987 47.965C70.0599 48.1093 70.4945 48.2411 70.866 48.2662ZM74.469 47.5447C74.8615 47.5823 75.0228 47.4694 74.8265 47.2937C74.6302 47.1117 74.1536 46.9423 73.768 46.9173C73.3895 46.8859 73.2353 47.0051 73.4245 47.1745C73.6138 47.3439 74.0835 47.507 74.469 47.5447ZM77.2799 46.3777C77.6724 46.4091 77.8056 46.271 77.5813 46.0703C77.357 45.8695 76.8663 45.6875 76.4878 45.6687C76.1023 45.6436 75.9691 45.7817 76.1864 45.9762C76.4037 46.1706 76.8944 46.3463 77.2799 46.3777ZM78.9832 44.5582C79.3548 44.5645 79.4599 44.3951 79.2076 44.1692C78.9552 43.9496 78.4575 43.7614 78.1 43.7614C77.7355 43.7551 77.6374 43.9308 77.8757 44.1441C78.1211 44.3575 78.6117 44.5457 78.9832 44.5582ZM79.4319 41.9859C79.7753 41.9671 79.8314 41.7537 79.565 41.5153C79.2917 41.2706 78.801 41.095 78.4645 41.1201C78.1281 41.1452 78.072 41.3585 78.3313 41.5906C78.5977 41.829 79.0884 42.0047 79.4319 41.9859ZM78.6117 38.7234C78.9272 38.6669 78.9412 38.416 78.6538 38.1587C78.3664 37.9015 77.8827 37.7384 77.5813 37.8011C77.2729 37.8576 77.2589 38.1085 77.5392 38.3595C77.8196 38.6105 78.2963 38.7736 78.6117 38.7234ZM76.635 34.9088C76.9154 34.8272 76.9014 34.5323 76.5999 34.2626C76.2985 33.9928 75.8289 33.8547 75.5555 33.9426C75.2821 34.0367 75.3031 34.319 75.5976 34.5825C75.885 34.846 76.3546 34.9966 76.635 34.9088ZM73.6769 30.7554C73.9292 30.6425 73.8802 30.3225 73.5718 30.0401C73.2563 29.7641 72.8077 29.6386 72.5624 29.7641C72.324 29.8833 72.3731 30.2033 72.6745 30.4731C72.9759 30.7428 73.4245 30.8746 73.6769 30.7554ZM69.9267 26.4765C70.151 26.3385 70.0739 25.9934 69.7655 25.7173C69.4571 25.4413 69.0295 25.3346 68.8192 25.4852C68.6019 25.6295 68.679 25.9683 68.9804 26.2444C69.2888 26.5141 69.7094 26.6208 69.9267 26.4765ZM65.6227 22.3106C65.812 22.1412 65.7209 21.7835 65.4054 21.5012C65.09 21.2252 64.6905 21.1373 64.5012 21.3067C64.3189 21.4824 64.4101 21.8463 64.7185 22.1161C65.0269 22.3921 65.4265 22.4737 65.6227 22.3106ZM59.293 20.8613C59.5103 20.5977 59.3631 20.0896 58.9565 19.7257C58.5499 19.3618 58.0523 19.2928 57.842 19.5688C57.6387 19.8449 57.7929 20.3531 58.1854 20.7044C58.578 21.0558 59.0687 21.1248 59.293 20.8613ZM54.8558 17.8811C55.0311 17.5799 54.8488 17.0467 54.4493 16.689C54.0567 16.3314 53.6011 16.3 53.4399 16.6137C53.2857 16.9337 53.4679 17.467 53.8464 17.8058C54.232 18.1509 54.6806 18.1823 54.8558 17.8811ZM50.5799 15.6726C50.7061 15.3338 50.5028 14.788 50.1243 14.4492C49.7457 14.1104 49.3532 14.123 49.2411 14.4743C49.1359 14.8257 49.3392 15.3715 49.7037 15.6915C50.0682 16.0177 50.4537 16.0052 50.5799 15.6726ZM46.7526 14.4367C46.8297 14.0665 46.6054 13.5018 46.2479 13.1881C45.8904 12.8682 45.5539 12.9246 45.4909 13.3073C45.4278 13.6963 45.6591 14.261 45.9956 14.5621C46.339 14.8696 46.6755 14.8131 46.7526 14.4367ZM43.5632 14.2986C43.5982 13.8971 43.3599 13.3262 43.0304 13.0313C42.701 12.7364 42.4206 12.8431 42.3996 13.2634C42.3785 13.6838 42.6169 14.2484 42.9323 14.5245C43.2407 14.8068 43.5281 14.7064 43.5632 14.2986ZM41.1098 15.2837C41.1168 14.857 40.8785 14.2924 40.5841 14.0289C40.2826 13.7591 40.0583 13.9034 40.0653 14.3488C40.0724 14.788 40.3037 15.3464 40.5841 15.5974C40.8645 15.8483 41.1028 15.7103 41.1098 15.2837ZM39.3433 17.2725C39.3363 16.8396 39.119 16.2938 38.8597 16.0616C38.6003 15.8295 38.404 16.0052 38.4181 16.4443C38.4391 16.8898 38.6424 17.4231 38.8877 17.6427C39.1401 17.8623 39.3433 17.6992 39.3433 17.2725ZM38.0465 20.008C38.0606 19.5939 37.8853 19.0857 37.654 18.8849C37.4297 18.6842 37.2545 18.8661 37.2474 19.2928C37.2474 19.7131 37.4087 20.2025 37.619 20.397C37.8363 20.5915 38.0325 20.4158 38.0465 20.008ZM36.8829 23.1074C36.939 22.7372 36.8198 22.2917 36.6306 22.1223C36.4343 21.9467 36.2451 22.1161 36.196 22.4925C36.1469 22.8627 36.2451 23.2956 36.4273 23.4587C36.6166 23.6218 36.8198 23.4713 36.8829 23.1074ZM35.474 26.1628C35.6002 25.8554 35.5511 25.4789 35.3829 25.3221C35.2076 25.1715 34.9833 25.3033 34.8641 25.617C34.738 25.9244 34.766 26.282 34.9272 26.4326C35.0955 26.5832 35.3478 26.464 35.474 26.1628ZM33.5043 28.8167C33.7145 28.5908 33.7426 28.2771 33.5884 28.1328C33.4272 27.9885 33.1398 28.0701 32.9295 28.3022C32.7192 28.5281 32.6631 28.8167 32.8243 28.961C32.9785 29.1053 33.294 29.0426 33.5043 28.8167ZM30.8546 30.8746C31.149 30.7303 31.2471 30.4793 31.0859 30.335C30.9247 30.1907 30.5602 30.2033 30.2658 30.3476C29.9573 30.4981 29.8382 30.724 29.9994 30.8683C30.1676 31.0189 30.5532 31.0252 30.8546 30.8746ZM27.6161 32.3553C27.9876 32.2737 28.1418 32.0729 27.9666 31.9161C27.7913 31.7592 27.3497 31.7028 26.9712 31.778C26.5787 31.8533 26.4104 32.0353 26.5927 32.1984C26.7749 32.3615 27.2306 32.4368 27.6161 32.3553ZM24.1112 33.4595C24.5388 33.4281 24.7281 33.2524 24.5318 33.0768C24.3285 32.9011 23.8168 32.7819 23.3752 32.8007C22.9266 32.8195 22.7233 32.9827 22.9336 33.1646C23.1439 33.3528 23.6696 33.4909 24.1112 33.4595ZM20.7816 34.5135C21.2513 34.5072 21.4405 34.3316 21.2162 34.1308C20.9849 33.93 20.4171 33.7606 19.9335 33.7544C19.4498 33.7418 19.2535 33.9049 19.4918 34.1183C19.7372 34.3378 20.312 34.5135 20.7816 34.5135ZM18.0969 35.8499C18.5736 35.8499 18.7418 35.6554 18.4825 35.4233C18.2231 35.1911 17.6132 34.9903 17.1296 34.9778C16.6319 34.9652 16.4566 35.1535 16.737 35.3982C17.0104 35.6428 17.6203 35.8499 18.0969 35.8499ZM16.4146 37.7195C16.8702 37.707 17.0034 37.4749 16.716 37.2113C16.4216 36.9541 15.7977 36.7408 15.3211 36.7471C14.8444 36.7471 14.7112 36.9729 15.0197 37.249C15.3281 37.5313 15.9519 37.7384 16.4146 37.7195ZM15.9379 40.2542C16.3725 40.2041 16.4566 39.9343 16.1342 39.6394C15.8118 39.3508 15.1879 39.1437 14.7393 39.1814C14.2906 39.2128 14.2065 39.4888 14.543 39.7962C14.8865 40.0974 15.5103 40.3044 15.9379 40.2542ZM16.723 43.4163C17.1156 43.3285 17.1506 43.0085 16.8001 42.6948C16.4496 42.3811 15.8398 42.1929 15.4332 42.2619C15.0267 42.3372 14.9916 42.6635 15.3561 42.9897C15.7206 43.316 16.3305 43.5042 16.723 43.4163ZM18.6647 47.0678C19.0152 46.9361 19.0012 46.5722 18.6367 46.2397C18.2651 45.9134 17.6763 45.7377 17.3118 45.8569C16.9473 45.9761 16.9613 46.3463 17.3399 46.6914C17.7254 47.0302 18.3142 47.1996 18.6647 47.0678ZM21.5948 51.0016C21.8962 50.826 21.8401 50.4119 21.4616 50.0731C21.0831 49.7343 20.5153 49.59 20.1928 49.7468C19.8704 49.9037 19.9264 50.324 20.326 50.6754C20.7185 51.0267 21.2863 51.171 21.5948 51.0016ZM25.2749 54.9605C25.5342 54.7472 25.4431 54.2955 25.0576 53.9504C24.672 53.6054 24.1323 53.4861 23.8519 53.6869C23.5715 53.8877 23.6696 54.3394 24.0692 54.697C24.4687 55.0547 25.0085 55.1676 25.2749 54.9605ZM29.4456 58.6936C29.6699 58.4426 29.5368 57.9658 29.1512 57.6207C28.7657 57.2757 28.268 57.1878 28.0297 57.4262C27.7913 57.6646 27.9175 58.1477 28.3171 58.4991C28.7166 58.8567 29.2213 58.9445 29.4456 58.6936ZM33.8477 61.9686C34.03 61.68 33.8618 61.1718 33.4832 60.833C33.1047 60.4942 32.6421 60.444 32.4528 60.7201C32.2565 60.9961 32.4178 61.5043 32.8103 61.8557C33.2028 62.207 33.6725 62.2572 33.8477 61.9686ZM38.1938 64.5535C38.3269 64.2273 38.1307 63.694 37.7662 63.3677C37.4017 63.0352 36.9881 63.0289 36.8409 63.3364C36.6937 63.6501 36.8829 64.1833 37.2615 64.5221C37.647 64.8672 38.0676 64.8798 38.1938 64.5535ZM42.2173 66.2412C42.3014 65.8711 42.0841 65.3189 41.7337 64.999C41.3832 64.6853 41.0187 64.7166 40.9135 65.0743C40.8154 65.4256 41.0257 65.984 41.3972 66.3102C41.7687 66.6428 42.1332 66.6114 42.2173 66.2412ZM45.6661 66.8624C45.7082 66.4545 45.4698 65.8899 45.1474 65.6013C44.8179 65.3064 44.5095 65.3817 44.4534 65.7707C44.3973 66.1659 44.6287 66.7306 44.9721 67.038C45.3156 67.3455 45.624 67.2639 45.6661 66.8624ZM48.3859 66.3416C48.3929 65.9087 48.1545 65.344 47.8601 65.0805C47.5587 64.8108 47.2994 64.9362 47.2783 65.3503C47.2643 65.7707 47.5026 66.3353 47.8111 66.6177C48.1265 66.9 48.3859 66.7745 48.3859 66.3416ZM50.3626 64.7229C50.3486 64.2837 50.1243 63.7316 49.8579 63.4995C49.5985 63.2611 49.3812 63.4179 49.3812 63.8446C49.3812 64.2775 49.6056 64.8296 49.8859 65.0805C50.1663 65.3315 50.3766 65.1746 50.3626 64.7229ZM51.7365 62.2133C51.7295 61.7741 51.5402 61.2534 51.3019 61.0463C51.0706 60.833 50.8743 61.0087 50.8673 61.4353C50.8673 61.8682 51.0706 62.4015 51.3159 62.6211C51.5613 62.847 51.7505 62.6588 51.7365 62.2133ZM52.802 59.139C52.823 58.7312 52.6898 58.2607 52.4865 58.0787C52.2833 57.8968 52.08 58.0662 52.0449 58.4677C52.0099 58.8693 52.1711 59.3524 52.3814 59.5406C52.5987 59.7351 52.7739 59.5531 52.802 59.139ZM53.9446 55.9205C54.0287 55.5691 53.9656 55.1676 53.7904 55.0045C53.6081 54.8476 53.3768 54.9856 53.2857 55.3307C53.1875 55.6821 53.2786 56.1024 53.4679 56.2718C53.6502 56.4349 53.8605 56.2781 53.9446 55.9205ZM55.5428 52.9717C55.704 52.6956 55.725 52.3631 55.5568 52.2188C55.3956 52.0682 55.1082 52.1623 54.9329 52.4321C54.7647 52.7082 54.7787 53.0658 54.947 53.2164C55.1152 53.3669 55.3675 53.254 55.5428 52.9717ZM57.8279 50.5876C58.0943 50.3931 58.1854 50.1295 58.0172 49.9852C57.856 49.8409 57.4985 49.866 57.2391 50.0605C56.9728 50.2488 56.9097 50.5374 57.0709 50.6879C57.2391 50.8322 57.5686 50.782 57.8279 50.5876ZM60.8281 48.8559C61.1856 48.743 61.3398 48.5422 61.1646 48.3791C60.9893 48.2222 60.5547 48.1783 60.2042 48.2975C59.8538 48.4105 59.7276 48.6426 59.8958 48.7995C60.064 48.95 60.4776 48.9689 60.8281 48.8559ZM64.3189 47.6639C64.7465 47.6137 64.9428 47.4443 64.7465 47.2686C64.5432 47.0866 64.0385 46.98 63.618 47.0365C63.1974 47.0867 63.0221 47.2811 63.2114 47.4505C63.4007 47.6199 63.8913 47.7078 64.3189 47.6639ZM67.8869 46.7165C68.3705 46.7165 68.5808 46.5534 68.3495 46.3463C68.1182 46.1393 67.5504 45.9761 67.0808 45.995C66.6181 46.0075 66.4219 46.1832 66.6392 46.3777C66.8565 46.5722 67.4172 46.7228 67.8869 46.7165ZM71.0693 45.6687C71.567 45.6813 71.7632 45.5056 71.5039 45.2672C71.2375 45.0288 70.6277 44.8343 70.137 44.8343C69.6533 44.8343 69.4641 45.0162 69.7094 45.2421C69.9618 45.4617 70.5646 45.6499 71.0693 45.6687ZM73.4105 44.1943C73.9152 44.2006 74.0765 43.9936 73.775 43.7238C73.4736 43.454 72.8357 43.2407 72.3521 43.247C71.8754 43.2595 71.7142 43.4728 72.0016 43.7238C72.282 43.981 72.9128 44.1881 73.4105 44.1943ZM74.6232 42.1051C75.0999 42.0863 75.219 41.829 74.8826 41.5279C74.5531 41.233 73.9082 41.0197 73.4456 41.051C72.9899 41.0824 72.8778 41.3396 73.1932 41.622C73.5087 41.9043 74.1536 42.1239 74.6232 42.1051ZM74.5671 39.3382C75.0087 39.2818 75.0718 38.9743 74.7073 38.6481C74.3498 38.3281 73.7119 38.1211 73.2914 38.1901C72.8708 38.2654 72.8077 38.5665 73.1512 38.8802C73.4946 39.1877 74.1325 39.3947 74.5671 39.3382ZM73.2703 35.9816C73.6699 35.8813 73.6769 35.5236 73.2914 35.1786C72.9128 34.8335 72.296 34.6515 71.9104 34.7645C71.5319 34.8774 71.5249 35.235 71.8894 35.5613C72.2539 35.8875 72.8708 36.0757 73.2703 35.9816ZM70.866 32.211C71.2165 32.0667 71.1814 31.6651 70.7819 31.3075C70.3823 30.9499 69.7935 30.793 69.45 30.9436C69.1206 31.1005 69.1556 31.502 69.5342 31.8471C69.9197 32.1921 70.5155 32.3553 70.866 32.211ZM67.5714 28.2709C67.8799 28.0827 67.7958 27.6372 67.3892 27.2733C66.9826 26.9094 66.4148 26.7777 66.1204 26.9722C65.826 27.1729 65.9101 27.6184 66.3027 27.9634C66.6952 28.3148 67.263 28.4528 67.5714 28.2709ZM63.625 24.4061C63.8913 24.1802 63.7722 23.6971 63.3586 23.3332C62.952 22.9631 62.4123 22.8627 62.167 23.1011C61.9146 23.3332 62.0338 23.8163 62.4263 24.1677C62.8259 24.519 63.3586 24.6257 63.625 24.4061ZM57.6807 23.2203C57.9541 22.8878 57.7929 22.2666 57.3092 21.8337C56.8256 21.4071 56.2367 21.3444 55.9844 21.702C55.732 22.0596 55.9003 22.6744 56.3559 23.0823C56.8115 23.4901 57.4003 23.5528 57.6807 23.2203ZM53.6011 20.6605C53.8184 20.2778 53.6151 19.6315 53.1525 19.2175C52.6898 18.8034 52.1641 18.7971 51.9748 19.1986C51.7856 19.6065 51.9889 20.2527 52.4235 20.6417C52.8651 21.0307 53.3908 21.0369 53.6011 20.6605ZM49.7457 18.9791C49.9 18.5461 49.6686 17.8811 49.227 17.4858C48.7924 17.0906 48.3298 17.1408 48.2036 17.5925C48.0704 18.0505 48.3088 18.7155 48.7153 19.0857C49.1289 19.4559 49.5915 19.4057 49.7457 18.9791ZM46.3601 18.3454C46.4652 17.8748 46.2129 17.1972 45.8063 16.8271C45.3997 16.4632 45.0072 16.5698 44.9301 17.0655C44.853 17.5611 45.0983 18.2387 45.4838 18.5775C45.8624 18.9226 46.2549 18.8159 46.3601 18.3454ZM43.6052 18.8347C43.6683 18.3328 43.416 17.6615 43.0515 17.329C42.68 16.9965 42.3505 17.1533 42.3085 17.6803C42.2734 18.2011 42.5117 18.8724 42.8552 19.1798C43.1987 19.4872 43.5351 19.3367 43.6052 18.8347ZM41.4673 20.3593C41.5234 19.8574 41.292 19.2112 40.9696 18.9226C40.6472 18.634 40.3738 18.8285 40.3387 19.3492C40.3107 19.87 40.521 20.5036 40.8224 20.7734C41.1238 21.0432 41.4182 20.8613 41.4673 20.3593ZM39.799 22.6933C39.8691 22.2102 39.6868 21.6079 39.4064 21.3569C39.126 21.1059 38.8737 21.313 38.8176 21.8149C38.7615 22.3043 38.9228 22.894 39.1821 23.1262C39.4415 23.3646 39.7289 23.1701 39.799 22.6933ZM38.2779 25.4538C38.404 25.0147 38.2849 24.4751 38.0395 24.2555C37.8012 24.0422 37.5278 24.2304 37.4157 24.6821C37.3105 25.1213 37.3876 25.6358 37.619 25.8428C37.8503 26.0499 38.1517 25.8805 38.2779 25.4538ZM36.5465 28.227C36.7498 27.8631 36.7217 27.3988 36.5044 27.2043C36.2871 27.0098 35.9717 27.1604 35.7684 27.5305C35.5721 27.8944 35.5581 28.3273 35.7754 28.5156C35.9857 28.7038 36.3432 28.5783 36.5465 28.227ZM34.3384 30.6738C34.6468 30.404 34.7029 30.0213 34.4926 29.8331C34.2893 29.6449 33.8968 29.739 33.5954 30.0088C33.294 30.2786 33.1888 30.6236 33.3991 30.8118C33.6024 30.9938 34.037 30.9436 34.3384 30.6738ZM31.5976 32.6439C31.9972 32.4619 32.1304 32.1419 31.9201 31.9537C31.7098 31.7655 31.2261 31.7718 30.8195 31.9474C30.406 32.1231 30.2377 32.4054 30.455 32.5999C30.6723 32.8007 31.1911 32.8258 31.5976 32.6439ZM28.4923 34.1873C28.969 34.0743 29.1652 33.8046 28.9339 33.5975C28.7026 33.3905 28.1208 33.3215 27.6301 33.4156C27.1324 33.5159 26.9151 33.7544 27.1605 33.974C27.3988 34.1935 28.0016 34.3002 28.4923 34.1873ZM25.401 35.5425C25.9268 35.4797 26.1441 35.2288 25.8847 34.9966C25.6183 34.7645 24.9734 34.6264 24.4267 34.6704C23.8729 34.7143 23.6416 34.9464 23.915 35.1911C24.1954 35.4421 24.8613 35.6052 25.401 35.5425ZM22.7934 37.0357C23.3472 36.9855 23.5505 36.7282 23.2491 36.4585C22.9546 36.195 22.2467 36.0067 21.6719 36.0318C21.0971 36.0569 20.8798 36.3079 21.2022 36.5902C21.5177 36.8788 22.2326 37.0796 22.7934 37.0357ZM21.0831 38.9367C21.6298 38.8802 21.798 38.5854 21.4546 38.2842C21.1181 37.9831 20.3891 37.7697 19.8143 37.8011C19.2395 37.8387 19.0713 38.1274 19.4288 38.4536C19.7933 38.7736 20.5363 38.9932 21.0831 38.9367ZM20.5363 41.4087C21.055 41.3146 21.1672 40.9695 20.7886 40.637C20.4171 40.2982 19.6741 40.0848 19.1344 40.1539C18.5876 40.2166 18.4754 40.5617 18.875 40.9193C19.2745 41.2769 20.0176 41.4965 20.5363 41.4087ZM21.2443 44.439C21.7139 44.301 21.77 43.8994 21.3634 43.5356C20.9569 43.1717 20.2279 42.9709 19.7302 43.0838C19.2325 43.1968 19.1764 43.5983 19.611 43.9873C20.0386 44.37 20.7746 44.577 21.2443 44.439ZM23.1299 47.9023C23.5575 47.7141 23.5435 47.2435 23.1159 46.8608C22.6813 46.4718 21.9663 46.2899 21.5177 46.4593C21.069 46.6224 21.076 47.0929 21.5387 47.5007C21.9943 47.9148 22.7093 48.0905 23.1299 47.9023ZM25.9898 51.5475C26.3544 51.3028 26.2843 50.782 25.8426 50.3868C25.394 49.9852 24.7141 49.8347 24.3285 50.0543C23.936 50.2738 23.9991 50.8009 24.4758 51.2212C24.9454 51.6479 25.6253 51.7922 25.9898 51.5475ZM29.5508 55.0986C29.8592 54.8037 29.74 54.239 29.2844 53.8312C28.8358 53.4297 28.1979 53.323 27.8685 53.5928C27.539 53.8689 27.6511 54.4398 28.1278 54.8664C28.6115 55.2931 29.2424 55.3997 29.5508 55.0986ZM33.5043 58.2732C33.7496 57.9219 33.5884 57.3196 33.1398 56.918C32.6911 56.5165 32.1163 56.46 31.843 56.78C31.5696 57.1125 31.7308 57.7148 32.2005 58.1415C32.6771 58.5618 33.2589 58.6246 33.5043 58.2732ZM37.5278 60.7828C37.7101 60.3876 37.5138 59.7476 37.0792 59.3586C36.6446 58.9696 36.1259 58.9634 35.9156 59.3398C35.7053 59.7163 35.9016 60.3562 36.3572 60.7703C36.8198 61.1781 37.3456 61.1844 37.5278 60.7828ZM41.3061 62.3953C41.4322 61.9435 41.2009 61.2848 40.7944 60.9209C40.3808 60.5507 39.9322 60.6009 39.7779 61.0275C39.6237 61.4542 39.848 62.1129 40.2826 62.5019C40.7243 62.8909 41.1799 62.847 41.3061 62.3953ZM44.5796 62.9285C44.6567 62.4392 44.4114 61.7679 44.0328 61.4291C43.6543 61.0903 43.2688 61.1906 43.1636 61.6612C43.0655 62.1255 43.3108 62.8031 43.7174 63.1607C44.117 63.5246 44.5095 63.4179 44.5796 62.9285ZM47.2152 62.3262C47.2503 61.8055 47.012 61.1342 46.6685 60.8267C46.325 60.5193 45.9885 60.6699 45.9184 61.1655C45.8554 61.6675 46.1007 62.3451 46.4722 62.6776C46.8437 63.0038 47.1732 62.847 47.2152 62.3262ZM49.192 60.6636C49.22 60.1366 49.0097 59.4967 48.7083 59.2206C48.3999 58.9508 48.1055 59.1328 48.0494 59.641C47.9933 60.1492 48.2246 60.8017 48.5541 61.0965C48.8765 61.3851 49.1569 61.1906 49.192 60.6636ZM50.7131 58.1979C50.7692 57.696 50.6079 57.1063 50.3416 56.8678C50.0752 56.6294 49.7948 56.8239 49.7177 57.307C49.6476 57.7964 49.8299 58.405 50.1173 58.6622C50.3977 58.9194 50.657 58.7061 50.7131 58.1979ZM52.108 55.3244C52.2202 54.879 52.1361 54.3582 51.9047 54.1512C51.6734 53.9442 51.365 54.1136 51.2388 54.5465C51.1126 54.9856 51.2318 55.5315 51.4771 55.7573C51.7225 55.9769 51.9959 55.7824 52.108 55.3244ZM53.7553 52.476C53.9516 52.1059 53.9656 51.6667 53.7483 51.4722C53.531 51.2777 53.1735 51.4032 52.9632 51.7671C52.7529 52.1372 52.788 52.6078 53.0053 52.8086C53.2296 53.0093 53.552 52.8525 53.7553 52.476ZM55.9213 49.9915C56.2297 49.7155 56.3349 49.3578 56.1246 49.1696C55.9073 48.9814 55.4657 49.0316 55.1572 49.3077C54.8558 49.59 54.7927 49.979 55.003 50.1735C55.2203 50.3617 55.6129 50.2676 55.9213 49.9915ZM58.6901 48.0466C59.1107 47.8646 59.279 47.576 59.0617 47.3753C58.8373 47.1745 58.3116 47.1494 57.898 47.3376C57.4915 47.5196 57.3513 47.8458 57.5686 48.0403C57.7859 48.2348 58.2766 48.2222 58.6901 48.0466ZM61.8725 46.5722C62.3843 46.4655 62.6016 46.2208 62.3562 46.0012C62.1039 45.7754 61.494 45.6687 60.9963 45.7879C60.5057 45.9009 60.3094 46.1769 60.5477 46.3902C60.786 46.5973 61.3678 46.6726 61.8725 46.5722ZM65.076 45.3174C65.6508 45.2672 65.8891 45.035 65.6017 44.7778C65.3143 44.5206 64.6274 44.3512 64.0736 44.4202C63.5338 44.4829 63.3165 44.7464 63.5829 44.9849C63.8493 45.2233 64.5152 45.3676 65.076 45.3174ZM67.8308 43.9559C68.4266 43.9245 68.6439 43.6736 68.3145 43.3787C67.985 43.0838 67.249 42.8768 66.6742 42.9207C66.1064 42.9709 65.9031 43.2407 66.2045 43.5167C66.513 43.7928 67.235 43.981 67.8308 43.9559ZM69.6884 42.1866C70.2772 42.149 70.4594 41.8478 70.0879 41.5153C69.7094 41.1828 68.9524 40.9569 68.3846 41.0197C67.8238 41.0761 67.6485 41.3836 67.999 41.691C68.3425 42.0047 69.0996 42.218 69.6884 42.1866ZM70.3753 39.8402C70.9291 39.7711 71.0553 39.4198 70.6417 39.0496C70.2281 38.6795 69.4641 38.4536 68.9313 38.5477C68.3986 38.6418 68.2794 38.9994 68.665 39.3382C69.0505 39.6833 69.8145 39.9092 70.3753 39.8402ZM69.7795 36.9102C70.2982 36.7973 70.3473 36.3769 69.9057 35.9816C69.4641 35.5864 68.707 35.3731 68.2233 35.5174C67.7397 35.6554 67.6836 36.0695 68.1042 36.4459C68.5177 36.8161 69.2678 37.0294 69.7795 36.9102ZM67.985 33.5348C68.4477 33.3654 68.4336 32.8885 67.971 32.4682C67.5013 32.0478 66.7723 31.8659 66.3447 32.0604C65.9171 32.2549 65.9242 32.7317 66.3658 33.127C66.8004 33.5159 67.5294 33.7042 67.985 33.5348ZM65.1881 29.9398C65.5877 29.7139 65.5176 29.1806 65.0339 28.7477C64.5503 28.3211 63.8633 28.1705 63.4918 28.4214C63.1203 28.6661 63.1834 29.1994 63.639 29.6072C64.0946 30.015 64.7886 30.1656 65.1881 29.9398ZM61.6482 26.4012C61.9847 26.1252 61.8655 25.5417 61.3819 25.1088C60.8912 24.6696 60.2463 24.5629 59.9309 24.8704C59.6224 25.1715 59.7416 25.7487 60.2042 26.1628C60.6599 26.5769 61.3048 26.6835 61.6482 26.4012ZM56.0685 25.5166C56.398 25.1213 56.2437 24.4124 55.711 23.9418C55.1853 23.465 54.5124 23.4336 54.2179 23.8665C53.9305 24.2994 54.0848 25.0021 54.5754 25.4413C55.0661 25.8742 55.732 25.9118 56.0685 25.5166ZM52.3604 23.4211C52.6197 22.9631 52.4235 22.2164 51.9118 21.7647C51.4 21.3067 50.8112 21.3381 50.5869 21.8337C50.3696 22.3294 50.5659 23.0634 51.0355 23.4838C51.5052 23.9042 52.094 23.8791 52.3604 23.4211ZM48.8836 22.2855C49.0798 21.7773 48.8485 21.0118 48.3718 20.5852C47.8952 20.1586 47.3835 20.2527 47.2223 20.8048C47.068 21.3506 47.2924 22.1035 47.727 22.4988C48.1686 22.8878 48.6873 22.7999 48.8836 22.2855ZM45.8694 22.2541C46.0166 21.7083 45.7853 20.9491 45.3507 20.5601C44.9161 20.1774 44.4885 20.3342 44.3693 20.9177C44.2571 21.4887 44.4815 22.2415 44.874 22.5929C45.2736 22.9442 45.7222 22.7937 45.8694 22.2541ZM43.409 23.3081C43.5422 22.7497 43.3249 22.0094 42.9393 21.6643C42.5538 21.3255 42.1823 21.5326 42.0841 22.1223C41.986 22.6995 42.1753 23.4211 42.5258 23.7348C42.8762 24.0485 43.2828 23.8602 43.409 23.3081ZM41.3902 25.2342C41.5374 24.6947 41.3692 24.0045 41.0327 23.7034C40.6962 23.4022 40.3457 23.6281 40.2266 24.1928C40.1074 24.7511 40.2336 25.4162 40.542 25.6923C40.8504 25.9683 41.243 25.7675 41.3902 25.2342ZM39.5326 27.6686C39.7359 27.1792 39.6448 26.5643 39.3504 26.3008C39.0559 26.0373 38.6914 26.2444 38.5092 26.7526C38.3199 27.2482 38.369 27.838 38.6424 28.0827C38.9158 28.3273 39.3293 28.1517 39.5326 27.6686ZM37.5208 30.2033C37.8152 29.7955 37.8152 29.2559 37.5489 29.0175C37.2825 28.7853 36.8689 28.9485 36.5815 29.3626C36.3011 29.7704 36.2451 30.2597 36.4974 30.4919C36.7568 30.724 37.2264 30.6048 37.5208 30.2033ZM35.1375 32.4996C35.5301 32.1921 35.6212 31.7404 35.3759 31.5145C35.1235 31.2887 34.6188 31.3765 34.2263 31.6777C33.8267 31.9851 33.6795 32.3866 33.9319 32.6188C34.1912 32.8446 34.745 32.807 35.1375 32.4996ZM32.3967 34.4445C32.8944 34.2312 33.0626 33.8422 32.7963 33.6038C32.5369 33.3717 31.9341 33.3716 31.4294 33.5787C30.9177 33.7857 30.7074 34.1245 30.9808 34.3755C31.2541 34.6202 31.899 34.6641 32.3967 34.4445ZM29.5648 36.1385C30.1326 35.9879 30.3429 35.6366 30.0555 35.3793C29.7681 35.1221 29.0741 35.0405 28.4853 35.166C27.8825 35.304 27.6371 35.6115 27.9456 35.8938C28.261 36.1699 28.99 36.2891 29.5648 36.1385ZM27.0693 37.8325C27.6722 37.7133 27.8965 37.3682 27.567 37.0796C27.2446 36.7847 26.4665 36.6341 25.8356 36.7282C25.1837 36.8224 24.9454 37.1423 25.3029 37.4623C25.6534 37.776 26.4525 37.9517 27.0693 37.8325ZM25.359 39.8151C25.9688 39.6959 26.1651 39.3194 25.7936 38.9869C25.4221 38.6544 24.6019 38.4724 23.957 38.5603C23.3051 38.6481 23.0948 39.0057 23.5014 39.3696C23.908 39.7335 24.7421 39.9343 25.359 39.8151ZM24.7702 42.2619C25.352 42.1114 25.4922 41.6847 25.0786 41.3146C24.665 40.9444 23.8309 40.7436 23.207 40.8628C22.5831 40.982 22.4359 41.3961 22.8916 41.7977C23.3402 42.2055 24.1813 42.4125 24.7702 42.2619ZM25.4291 45.1856C25.9618 44.9849 26.0319 44.4955 25.5833 44.0939C25.1347 43.6924 24.3075 43.5042 23.7327 43.6673C23.1649 43.8367 23.0878 44.3198 23.5785 44.759C24.0622 45.1919 24.8963 45.3864 25.4291 45.1856ZM27.2656 48.4356C27.7353 48.1721 27.7353 47.6199 27.2586 47.1933C26.7819 46.7729 25.9898 46.6098 25.4781 46.8357C24.9664 47.0616 24.9734 47.6199 25.4851 48.0779C25.9969 48.5359 26.796 48.6991 27.2656 48.4356ZM30.0485 51.7482C30.448 51.422 30.3779 50.8009 29.8872 50.368C29.4036 49.9288 28.6535 49.8158 28.2119 50.1045C27.7773 50.3993 27.8474 51.0142 28.3731 51.4847C28.8989 51.9616 29.6489 52.0745 30.0485 51.7482ZM33.4622 54.7974C33.7917 54.4022 33.6585 53.7308 33.1678 53.2917C32.6771 52.8525 31.9831 52.7835 31.6116 53.1411C31.2401 53.505 31.3733 54.1826 31.899 54.6594C32.4318 55.1362 33.1327 55.199 33.4622 54.7974ZM37.1143 57.2506C37.3666 56.7863 37.1844 56.071 36.7077 55.6444C36.231 55.2178 35.6072 55.2115 35.3128 55.6381C35.0184 56.0585 35.1936 56.78 35.7123 57.2443C36.231 57.7086 36.8549 57.7086 37.1143 57.2506ZM40.6542 58.8065C40.8364 58.292 40.6261 57.5454 40.1775 57.1439C39.7219 56.7361 39.1681 56.7988 38.9438 57.2819C38.7195 57.765 38.9368 58.5116 39.4275 58.9508C39.9181 59.3963 40.4649 59.3273 40.6542 58.8065ZM43.7875 59.2833C43.9207 58.725 43.6964 57.9658 43.2758 57.5956C42.8622 57.2255 42.3785 57.3447 42.2103 57.8717C42.0421 58.405 42.2804 59.1641 42.729 59.5719C43.1847 59.9798 43.6543 59.848 43.7875 59.2833ZM46.3671 58.6183C46.4652 58.0285 46.2549 57.2882 45.8834 56.9494C45.5049 56.6106 45.0773 56.7863 44.9441 57.3384C44.8039 57.9031 45.0352 58.6622 45.4488 59.0324C45.8624 59.3963 46.2689 59.2143 46.3671 58.6183ZM48.4139 56.9369C48.5191 56.3596 48.3508 55.657 48.0214 55.3621C47.6849 55.0609 47.2924 55.2617 47.1592 55.8138C47.019 56.3785 47.2223 57.1 47.5798 57.4262C47.9443 57.7462 48.3088 57.5266 48.4139 56.9369ZM50.1523 54.5653C50.3065 54.032 50.2084 53.3983 49.921 53.1348C49.6266 52.8713 49.227 53.0658 49.0588 53.5803C48.8836 54.1073 49.0167 54.7723 49.3322 55.0547C49.6476 55.337 50.0051 55.1111 50.1523 54.5653ZM51.9328 51.9302C52.1641 51.4659 52.1711 50.9201 51.9047 50.6817C51.6384 50.4495 51.1968 50.6001 50.9514 51.0456C50.6991 51.5036 50.7481 52.087 51.0285 52.338C51.3089 52.589 51.6945 52.3945 51.9328 51.9302ZM54.0497 49.4269C54.3932 49.0692 54.4983 48.6112 54.246 48.3854C53.9866 48.1532 53.4679 48.2348 53.1244 48.5987C52.7739 48.9563 52.7319 49.4582 52.9912 49.6904C53.2506 49.9225 53.7062 49.7908 54.0497 49.4269ZM56.6433 47.3125C57.1059 47.0553 57.2882 46.6788 57.0218 46.4404C56.7555 46.202 56.1526 46.202 55.697 46.4655C55.2414 46.729 55.1082 47.1557 55.3675 47.3878C55.6269 47.6199 56.1807 47.5698 56.6433 47.3125ZM59.5593 45.5934C60.1341 45.424 60.3725 45.0978 60.0711 44.828C59.7766 44.5645 59.0687 44.4767 58.5149 44.6649C57.9751 44.8468 57.7719 45.2233 58.0523 45.4742C58.3326 45.7252 58.9986 45.7628 59.5593 45.5934ZM62.4193 44.0563C63.0572 43.9434 63.3165 43.6297 62.9731 43.3222C62.6366 43.0148 61.8515 42.8642 61.2347 43.0023C60.6318 43.134 60.4005 43.4854 60.7159 43.7677C61.0314 44.05 61.7884 44.1692 62.4193 44.0563ZM64.7325 42.3937C65.4054 42.3059 65.6368 41.9608 65.2512 41.6157C64.8587 41.2644 64.0175 41.0699 63.3866 41.1891C62.7558 41.3083 62.5455 41.6722 62.896 41.9921C63.2535 42.3121 64.0736 42.4815 64.7325 42.3937ZM66.0784 40.3484C66.7373 40.2417 66.9195 39.8464 66.4849 39.4574C66.0433 39.0622 65.1811 38.8489 64.5573 38.9869C63.9474 39.1186 63.7792 39.5265 64.1787 39.8904C64.5783 40.248 65.4265 40.4487 66.0784 40.3484ZM66.1975 37.7886C66.8144 37.6443 66.9265 37.18 66.4429 36.7471C65.9662 36.3204 65.104 36.1134 64.5292 36.2891C63.9544 36.471 63.8493 36.9353 64.2909 37.3306C64.7325 37.7258 65.5877 37.9266 66.1975 37.7886ZM65.0479 34.777C65.6017 34.5763 65.6438 34.043 65.1251 33.5787C64.6133 33.1207 63.7792 32.9387 63.2605 33.1772C62.7488 33.4156 62.7137 33.9489 63.1904 34.3755C63.66 34.7959 64.4942 34.9778 65.0479 34.777ZM62.7768 31.5208C63.2605 31.2573 63.2254 30.655 62.6927 30.1782C62.1599 29.7013 61.3608 29.557 60.9192 29.8582C60.4706 30.1594 60.5127 30.7617 61.0033 31.2071C61.494 31.6463 62.2931 31.7906 62.7768 31.5208ZM59.6575 28.3211C60.071 27.9885 59.9659 27.336 59.4332 26.8529C58.8934 26.3761 58.1574 26.282 57.7929 26.6459C57.4214 27.0161 57.5265 27.6686 58.0242 28.114C58.5149 28.5595 59.2509 28.6536 59.6575 28.3211ZM54.4352 27.7689C54.8348 27.3047 54.7016 26.5267 54.1408 26.0248C53.5801 25.5229 52.8511 25.5291 52.5076 26.0373C52.1641 26.5455 52.2903 27.3172 52.795 27.7752C53.3067 28.227 54.0357 28.2207 54.4352 27.7689ZM51.0636 26.144C51.379 25.617 51.2038 24.8013 50.671 24.3245C50.1383 23.8477 49.4934 23.9293 49.227 24.5002C48.9607 25.0711 49.1289 25.8805 49.6056 26.3134C50.0892 26.7463 50.7411 26.671 51.0636 26.144ZM47.9022 25.573C48.1616 25.0021 47.9653 24.1739 47.4746 23.7348C46.9839 23.2956 46.4302 23.4524 46.2199 24.0673C46.0096 24.6821 46.1848 25.4915 46.6264 25.8867C47.068 26.282 47.6428 26.144 47.9022 25.573ZM45.1614 26.1252C45.3927 25.5291 45.2035 24.7198 44.7689 24.3245C44.3272 23.9355 43.8436 24.1426 43.6543 24.7762C43.4721 25.4036 43.6263 26.1942 44.0188 26.5455C44.4114 26.8969 44.9371 26.7149 45.1614 26.1252ZM42.8202 27.6435C43.0585 27.06 42.9183 26.2946 42.5398 25.9495C42.1542 25.6044 41.6986 25.8366 41.4883 26.4514C41.285 27.0537 41.3762 27.7878 41.7266 28.1015C42.0771 28.4152 42.5818 28.2144 42.8202 27.6435ZM40.6612 29.7766C40.9626 29.2496 40.8995 28.5532 40.563 28.252C40.2196 27.9446 39.7569 28.1642 39.4765 28.7163C39.2032 29.2559 39.2032 29.9021 39.5186 30.1907C39.841 30.4731 40.3668 30.2974 40.6612 29.7766ZM38.4181 32.1043C38.8036 31.6651 38.8386 31.0628 38.5302 30.7868C38.2218 30.5107 37.7031 30.6801 37.3245 31.1256C36.946 31.571 36.8409 32.1168 37.1423 32.3866C37.4437 32.6564 38.0325 32.5435 38.4181 32.1043ZM35.9366 34.319C36.4273 33.974 36.5535 33.4532 36.2521 33.1834C35.9506 32.9136 35.3408 33.0015 34.8431 33.3403C34.3384 33.6791 34.1562 34.1434 34.4576 34.4194C34.766 34.6955 35.4459 34.6641 35.9366 34.319ZM33.329 36.3204C33.9038 36.0632 34.1001 35.5927 33.7846 35.3103C33.4692 35.028 32.7472 35.028 32.1514 35.2664C31.5345 35.5174 31.2962 35.9252 31.6327 36.2326C31.9691 36.5338 32.7332 36.5902 33.329 36.3204ZM30.9387 38.2528C31.5766 38.0395 31.7939 37.5941 31.4504 37.2804C31.0999 36.9667 30.2868 36.8851 29.6139 37.067C28.9339 37.249 28.6746 37.6568 29.0601 37.9956C29.4386 38.3407 30.2868 38.4662 30.9387 38.2528ZM29.2424 40.3484C29.8943 40.1413 30.1045 39.6833 29.705 39.3257C29.3125 38.9743 28.4432 38.8426 27.7423 39.0057C27.0343 39.1688 26.81 39.6017 27.2446 39.997C27.6792 40.386 28.5764 40.5491 29.2424 40.3484ZM28.6255 42.7952C29.2564 42.5694 29.4106 42.0612 28.969 41.6659C28.5344 41.2769 27.6301 41.1201 26.9502 41.302C26.2702 41.4902 26.102 41.9796 26.5857 42.4188C27.0693 42.8517 27.9876 43.0274 28.6255 42.7952ZM29.2634 45.6248C29.8382 45.3425 29.9223 44.7653 29.4456 44.3386C28.969 43.912 28.0787 43.7677 27.4479 43.9998C26.817 44.2382 26.7259 44.8029 27.2516 45.2797C27.7773 45.7503 28.6816 45.9071 29.2634 45.6248ZM31.0719 48.6489C31.5766 48.2975 31.5836 47.645 31.0789 47.1996C30.5812 46.7541 29.726 46.6349 29.1652 46.9423C28.6045 47.2435 28.5975 47.8897 29.1512 48.3854C29.705 48.881 30.5672 49.0002 31.0719 48.6489ZM33.7846 51.5475C34.2052 51.1208 34.1351 50.4056 33.6234 49.9539C33.1187 49.4959 32.3196 49.4331 31.843 49.8096C31.3663 50.1923 31.4364 50.9075 31.9972 51.4095C32.5579 51.9114 33.3571 51.9741 33.7846 51.5475ZM36.9881 53.9442C37.3316 53.4422 37.1984 52.6768 36.7007 52.2313C36.203 51.7859 35.474 51.7859 35.0814 52.2376C34.6889 52.6894 34.8221 53.4611 35.3759 53.9567C35.9296 54.4523 36.6516 54.4461 36.9881 53.9442ZM40.2826 55.4876C40.549 54.9229 40.3808 54.1198 39.9041 53.6869C39.4205 53.2603 38.7756 53.3293 38.4531 53.8563C38.1377 54.3771 38.3129 55.1864 38.8457 55.6632C39.3784 56.1401 40.0163 56.0585 40.2826 55.4876ZM43.2968 55.933C43.5071 55.3182 43.3319 54.5088 42.8903 54.1136C42.4486 53.7183 41.8738 53.8563 41.6145 54.4273C41.3551 54.9982 41.5514 55.8201 42.0421 56.2593C42.5328 56.6984 43.0865 56.5479 43.2968 55.933ZM45.8624 55.224C46.0516 54.5966 45.8974 53.8061 45.4979 53.4548C45.1053 53.1034 44.5866 53.2854 44.3553 53.8751C44.124 54.4712 44.3132 55.2805 44.7478 55.6758C45.1894 56.0648 45.6801 55.864 45.8624 55.224ZM48.0284 53.5489C48.2317 52.9466 48.1405 52.2125 47.79 51.8988C47.4396 51.5851 46.9419 51.7796 46.6965 52.3568C46.4582 52.9403 46.5984 53.7057 46.9839 54.0508C47.3695 54.3959 47.8251 54.1637 48.0284 53.5489ZM50.0472 51.284C50.3135 50.7444 50.3135 50.0856 49.9981 49.8033C49.6757 49.5147 49.1499 49.6904 48.8485 50.2174C48.5471 50.7507 48.6102 51.4471 48.9537 51.7545C49.2971 52.0619 49.7668 51.8424 50.0472 51.284ZM52.1991 48.8747C52.5777 48.423 52.6828 47.8646 52.3814 47.5948C52.073 47.3251 51.4771 47.438 51.0916 47.8834C50.6991 48.3289 50.664 48.9438 50.9795 49.2198C51.2879 49.5021 51.8136 49.3328 52.1991 48.8747ZM54.6736 46.6537C55.1783 46.3087 55.3675 45.8381 55.0591 45.5621C54.7437 45.2797 54.0637 45.3111 53.566 45.6624C53.0684 46.0138 52.9422 46.5471 53.2436 46.8169C53.545 47.0867 54.1689 46.9988 54.6736 46.6537ZM57.3583 44.7213C57.9822 44.4704 58.2275 44.0563 57.884 43.7489C57.5405 43.4414 56.7625 43.385 56.1666 43.6548C55.5848 43.9245 55.3886 44.3951 55.704 44.6837C56.0264 44.966 56.7555 44.966 57.3583 44.7213ZM59.8888 42.9207C60.5828 42.7325 60.8421 42.3247 60.4566 41.9796C60.064 41.6283 59.2089 41.5028 58.5499 41.7224C57.9051 41.942 57.6807 42.3937 58.0382 42.7074C58.3887 43.0274 59.2089 43.1089 59.8888 42.9207ZM61.7604 40.982C62.4754 40.8126 62.7067 40.3735 62.2651 39.9782C61.8235 39.5829 60.9122 39.4198 60.2463 39.6268C59.5804 39.8339 59.3771 40.2982 59.7696 40.6558C60.1692 41.0134 61.0524 41.1514 61.7604 40.982ZM62.5525 38.6857C63.2464 38.4975 63.4147 37.9956 62.924 37.5564C62.4333 37.1172 61.501 36.9416 60.8561 37.1737C60.2183 37.4058 60.064 37.9203 60.5057 38.3218C60.9543 38.7171 61.8655 38.874 62.5525 38.6857ZM62.0618 35.9942C62.6997 35.7495 62.7908 35.1723 62.2581 34.6955C61.7253 34.2186 60.8141 34.0618 60.2253 34.3441C59.6365 34.6327 59.5593 35.2162 60.036 35.6491C60.5197 36.082 61.4239 36.2263 62.0618 35.9942ZM60.3444 33.0517C60.9122 32.7442 60.9192 32.0917 60.3584 31.5898C59.7977 31.0879 58.9285 30.9687 58.4168 31.3263C57.9051 31.6839 57.898 32.3364 58.4027 32.7944C58.9145 33.2462 59.7766 33.3591 60.3444 33.0517ZM57.6737 30.1844C58.1574 29.8017 58.0873 29.0802 57.5195 28.5658C56.9447 28.0576 56.1386 27.9948 55.711 28.4277C55.2834 28.8606 55.3535 29.5821 55.8652 30.0464C56.3839 30.5044 57.1901 30.5672 57.6737 30.1844ZM52.7599 29.9649C53.2296 29.4441 53.1385 28.6097 52.5637 28.0952C51.9889 27.5807 51.2038 27.6372 50.8042 28.2144C50.4047 28.7853 50.4888 29.6135 50.9935 30.0715C51.4982 30.5232 52.2903 30.4793 52.7599 29.9649ZM49.6476 28.8355C50.0402 28.2521 49.914 27.3862 49.3742 26.9094C48.8415 26.4263 48.1475 26.5581 47.8181 27.198C47.4956 27.8254 47.6008 28.6724 48.0774 29.099C48.5541 29.5257 49.2621 29.4127 49.6476 28.8355ZM46.7246 28.8418C47.068 28.227 46.9349 27.3674 46.4512 26.9282C45.9605 26.489 45.3507 26.6898 45.0633 27.3549C44.7689 28.0136 44.867 28.8481 45.3016 29.2371C45.7362 29.6261 46.3811 29.4567 46.7246 28.8418ZM44.1029 29.9272C44.4464 29.3186 44.3553 28.503 43.9207 28.114C43.4931 27.7313 42.9323 27.9634 42.6239 28.6097C42.3225 29.2433 42.3645 30.0276 42.7501 30.3727C43.1426 30.724 43.7595 30.5295 44.1029 29.9272ZM41.6776 31.7843C42.0771 31.2197 42.0561 30.4731 41.6776 30.128C41.292 29.7892 40.7243 30.0088 40.3527 30.5923C39.9812 31.1632 39.9322 31.8659 40.2897 32.1859C40.6471 32.5058 41.285 32.3364 41.6776 31.7843ZM39.2592 33.9677C39.7429 33.4909 39.813 32.8195 39.4625 32.5058C39.112 32.1921 38.4811 32.3615 37.9975 32.8384C37.5208 33.3215 37.3736 33.9238 37.7241 34.2375C38.0676 34.5512 38.7756 34.4445 39.2592 33.9677ZM36.7778 36.1699C37.3526 35.7809 37.5138 35.1786 37.1633 34.8649C36.8128 34.5574 36.0838 34.6453 35.495 35.0154C34.8922 35.3982 34.6679 35.9252 35.0324 36.2514C35.3969 36.5777 36.196 36.5588 36.7778 36.1699ZM34.4576 38.3093C35.1025 37.9831 35.3058 37.4309 34.9412 37.0984C34.5697 36.7722 33.7426 36.7722 33.0626 37.0608C32.3757 37.3619 32.1233 37.8576 32.5229 38.2215C32.9225 38.5791 33.7987 38.6293 34.4576 38.3093ZM32.7542 40.5366C33.4272 40.2417 33.6374 39.6833 33.2309 39.3194C32.8173 38.9555 31.9201 38.8928 31.1981 39.1437C30.462 39.4073 30.2237 39.9217 30.6723 40.3295C31.128 40.7373 32.0673 40.8377 32.7542 40.5366ZM32.1093 43.0211C32.7682 42.7011 32.9295 42.1051 32.4808 41.7035C32.0252 41.2957 31.0929 41.2016 30.3779 41.4714C29.6559 41.7412 29.4667 42.3121 29.9784 42.7639C30.4831 43.2219 31.4434 43.3411 32.1093 43.0211ZM32.7472 45.7503C33.35 45.3738 33.4412 44.7151 32.9505 44.2759C32.4668 43.843 31.5415 43.7551 30.8686 44.0751C30.2027 44.3888 30.0975 45.0413 30.6443 45.5307C31.1981 46.0263 32.1374 46.1267 32.7472 45.7503ZM34.5697 48.4983C35.0955 48.0466 35.1095 47.3125 34.5978 46.8545C34.0861 46.4028 33.1958 46.3526 32.607 46.7416C32.0112 47.1368 31.9902 47.8709 32.565 48.3854C33.1468 48.8998 34.044 48.9563 34.5697 48.4983ZM37.2124 50.8636C37.654 50.3366 37.5979 49.5398 37.0862 49.0818C36.5745 48.6238 35.7544 48.6363 35.2497 49.1069C34.745 49.5837 34.8011 50.3805 35.3759 50.9013C35.9506 51.4157 36.7708 51.3969 37.2124 50.8636ZM40.2055 52.4258C40.556 51.8235 40.4579 50.9891 39.9742 50.5499C39.4835 50.1107 38.7405 50.1923 38.3199 50.7381C37.8993 51.284 38.0045 52.131 38.5583 52.6266C39.112 53.1223 39.841 53.0281 40.2055 52.4258ZM43.1146 52.865C43.409 52.2251 43.3038 51.3781 42.8552 50.9765C42.3996 50.5687 41.7266 50.713 41.3692 51.3091C41.0046 51.9051 41.1448 52.7709 41.6495 53.2289C42.1612 53.6869 42.8061 53.5175 43.1146 52.865ZM45.7152 52.1372C46.0026 51.4847 45.9325 50.6691 45.5189 50.2989C45.1053 49.9288 44.4745 50.117 44.138 50.7319C43.7945 51.3467 43.9137 52.2 44.3763 52.6078C44.839 53.0219 45.4208 52.8023 45.7152 52.1372ZM48.0354 50.4621C48.3648 49.8472 48.3718 49.1006 48.0003 48.7681C47.6218 48.4356 46.9979 48.6175 46.6334 49.2073C46.2619 49.797 46.325 50.5938 46.7316 50.9577C47.1381 51.3216 47.7059 51.0895 48.0354 50.4621ZM50.3276 48.2913C50.7481 47.758 50.8463 47.0929 50.4958 46.7792C50.1453 46.4655 49.4654 46.6036 49.0238 47.1306C48.5821 47.6576 48.5611 48.3791 48.9256 48.7053C49.2971 49.0379 49.9 48.8371 50.3276 48.2913ZM52.7599 46.0514C53.2997 45.6123 53.4959 45.0413 53.1385 44.7213C52.781 44.4014 52.0239 44.4704 51.4842 44.9096C50.9444 45.3488 50.8252 45.9887 51.1757 46.3024C51.5262 46.6161 52.2132 46.4781 52.7599 46.0514ZM55.2694 43.9434C55.9283 43.6046 56.1807 43.0901 55.7951 42.745C55.4096 42.4 54.5544 42.3811 53.9235 42.7388C53.8464 42.7827 53.7763 42.8329 53.7132 42.8831C54.0427 42.5066 54.0988 42.0988 53.7833 41.8102C53.4048 41.4714 52.6548 41.4526 52.0239 41.76C52.122 41.4526 52.073 41.1577 51.8346 40.9444C51.4701 40.6244 50.8112 40.593 50.2154 40.8377C50.2434 40.5679 50.1593 40.317 49.949 40.1288C49.8649 40.0472 49.7598 39.9907 49.6546 39.9468C49.921 39.8715 50.2014 39.7523 50.4607 39.5829C50.4047 39.8653 50.4818 40.135 50.6991 40.3233C51.1617 40.7436 52.1361 40.6683 52.9071 40.1978C52.781 40.4927 52.823 40.7938 53.0613 41.0071C53.4889 41.3961 54.4212 41.3773 55.1783 41.0071C55.9353 40.6307 56.1877 40.0096 55.704 39.5829C55.2343 39.1626 54.281 39.1249 53.5801 39.5139C53.7553 39.1626 53.7062 38.7987 53.4048 38.5226C52.9282 38.096 52.0239 38.0897 51.3229 38.4975C51.351 38.3595 51.358 38.2277 51.337 38.096C51.8557 38.2215 52.5216 38.0897 53.0684 37.7384C53.6642 37.3557 53.9025 36.7847 53.7062 36.3142C54.225 36.5149 54.9399 36.4522 55.4937 36.1259C56.2017 35.7056 56.3279 34.959 55.7531 34.4445C55.1783 33.93 54.1899 33.9049 53.552 34.388C53.0684 34.7582 52.8931 35.2915 53.0613 35.7181C52.4865 35.486 51.7225 35.5927 51.1687 36.0381C50.7061 36.4083 50.4888 36.8914 50.5378 37.3055C50.2925 37.2364 50.0051 37.2364 49.7247 37.2929C50.1523 36.9227 50.3696 36.4585 50.3556 36.0381C50.7902 36.0381 51.2739 35.875 51.6664 35.5613C52.1571 35.166 52.3464 34.6139 52.2062 34.1434C52.6828 34.2437 53.2366 34.1245 53.6642 33.792C54.26 33.3215 54.3161 32.556 53.8184 32.0353C54.3441 32.4243 55.1502 32.418 55.676 32.0039C56.2297 31.571 56.2087 30.7868 55.6199 30.266C55.0381 29.739 54.1689 29.7202 53.6782 30.2221C53.2156 30.6926 53.2156 31.4079 53.6502 31.8784C53.0613 31.433 52.2062 31.4894 51.6874 32.0165C51.3159 32.3992 51.1827 32.9011 51.2949 33.3277C50.7622 33.196 50.1453 33.3654 49.7107 33.8108C49.3602 34.1622 49.178 34.5951 49.178 34.9841C48.7013 34.9715 48.1826 35.166 47.762 35.555C47.8321 35.2978 47.8321 35.0343 47.755 34.8084C48.2106 34.8586 48.7574 34.6641 49.171 34.25C49.6686 33.7544 49.7878 33.0579 49.5144 32.5498C49.9981 32.7066 50.5939 32.5498 51.0145 32.1106C51.5472 31.5459 51.5192 30.6675 50.9514 30.1594C50.3766 29.6449 49.5495 29.7515 49.0798 30.3852C48.7153 30.8871 48.6452 31.5271 48.8836 31.9976C48.3578 31.8094 47.7129 32.0227 47.2783 32.556C46.8858 33.0454 46.7456 33.6477 46.8858 34.112C46.7316 34.0869 46.5774 34.0932 46.4161 34.1308C46.8788 33.4971 46.8718 32.6878 46.3951 32.2611C46.0797 31.9851 45.6661 31.9474 45.2665 32.1168C45.7152 31.4894 45.6801 30.6236 45.2105 30.2033C44.7338 29.7829 44.0469 30.0025 43.6333 30.6738C43.2267 31.3389 43.2057 32.167 43.6333 32.5498C43.8716 32.7693 44.2151 32.8007 44.5516 32.6815L44.5375 32.7003C44.0118 33.3905 43.9277 34.2563 44.3903 34.6704C44.6076 34.8649 44.9091 34.9339 45.2315 34.8837C45.0282 35.1221 44.888 35.3856 44.8109 35.6366C44.7618 35.5362 44.6918 35.4421 44.6006 35.3605C44.3903 35.1723 44.1029 35.097 43.7945 35.1221C44.0749 34.5888 44.0469 33.9991 43.6824 33.6728C43.444 33.4532 43.1076 33.4093 42.7571 33.5097C43.1146 32.945 43.0935 32.2674 42.715 31.9286C42.2944 31.5522 41.6075 31.7655 41.1308 32.3804C40.6612 32.9889 40.556 33.7418 40.9556 34.0994C41.1518 34.2751 41.4252 34.3253 41.7196 34.2626C41.25 34.8711 41.1518 35.5864 41.5584 35.9503C41.7196 36.0946 41.9439 36.1636 42.1823 36.1636C41.8738 36.609 41.7687 37.0859 41.9019 37.4498C41.6706 37.3807 41.3972 37.3807 41.1098 37.4498C41.5865 36.9102 41.6565 36.2451 41.271 35.9001C40.9976 35.6554 40.556 35.624 40.1004 35.7746C40.6471 35.2601 40.7523 34.5512 40.3668 34.2061C39.9672 33.8485 39.2242 34.0179 38.6494 34.5323C38.0746 35.0468 37.8853 35.7119 38.2849 36.0632C38.5232 36.2765 38.9158 36.3267 39.3153 36.2201L39.3013 36.2263C38.6354 36.7784 38.4181 37.5188 38.8667 37.9203C39.105 38.1336 39.4765 38.2026 39.8761 38.1399C39.7289 38.2779 39.6097 38.4222 39.5256 38.5728C39.4835 38.5101 39.4415 38.4536 39.3854 38.4034C38.9298 38.0019 37.9975 38.1023 37.2474 38.5791C36.946 38.7799 36.7287 39.0057 36.6026 39.2441C36.5675 39.15 36.5044 39.0685 36.4273 38.9932C35.9997 38.6105 35.0814 38.6293 34.3384 38.9932C33.5884 39.3633 33.343 39.9719 33.8127 40.3923C34.2893 40.8126 35.2567 40.844 35.9577 40.4362C36.217 40.2856 36.4133 40.0911 36.5254 39.8966C36.5605 40.0096 36.6376 40.1225 36.7427 40.2166C37.2264 40.6495 38.2218 40.6056 38.9298 40.0848C39.126 39.9468 39.2803 39.7837 39.3994 39.6206C39.4415 39.7021 39.4976 39.7837 39.5747 39.8527C39.6728 39.9343 39.785 40.0033 39.9111 40.0472C39.5817 40.1288 39.2382 40.2793 38.9368 40.5052C38.7685 40.6307 38.6284 40.7624 38.5092 40.9067C38.0185 40.5115 37.0652 40.5805 36.3222 41.0322C36.0768 41.1828 35.8876 41.3647 35.7614 41.553C35.7333 41.5153 35.6983 41.4777 35.6562 41.44C35.1936 41.026 34.2333 41.0071 33.4902 41.371C32.7332 41.7349 32.5369 42.3937 33.0626 42.8642C33.5884 43.3348 34.5767 43.385 35.2707 42.9646C35.46 42.8454 35.6142 42.7074 35.7193 42.5568C35.7614 42.6196 35.8175 42.6823 35.8805 42.7388C36.4203 43.2156 37.4367 43.1905 38.1447 42.6697C38.2639 42.5819 38.369 42.4878 38.4531 42.3874L38.4812 42.4125C38.8106 42.7011 39.3153 42.7827 39.827 42.6697C39.5606 42.8893 39.3784 43.1403 39.2732 43.3975C39.2382 43.3536 39.2032 43.3222 39.1681 43.2846C38.6704 42.8391 37.6891 42.9019 36.9671 43.4163C36.6656 43.6297 36.4624 43.9057 36.3782 44.1818C36.3292 44.0877 36.2591 43.9998 36.1679 43.9183C35.6773 43.4791 34.7169 43.4603 34.023 43.8744C33.322 44.2884 33.2028 45.0225 33.7706 45.5307C34.3384 46.0326 35.3058 46.064 35.9366 45.5872C36.182 45.3989 36.3502 45.1668 36.4273 44.9284C36.4904 45.0476 36.5745 45.1605 36.6867 45.2609C37.2545 45.7754 38.2498 45.7189 38.8947 45.1417C39.105 44.9535 39.2592 44.7402 39.3574 44.5269C39.3994 44.5833 39.4485 44.6398 39.5046 44.69C39.5677 44.7464 39.6237 44.7904 39.6938 44.828C39.4485 44.9158 39.2102 45.0476 39.0069 45.2358C38.362 45.8193 38.2989 46.7039 38.8667 47.2184C38.9788 47.3125 39.105 47.3878 39.2312 47.4443C38.9718 47.5133 38.7125 47.6639 38.5022 47.8834C37.9694 48.4481 37.9975 49.3202 38.5653 49.8284C39.1331 50.3366 39.9602 50.2299 40.4228 49.6025C40.8855 48.9751 40.8715 48.1156 40.3738 47.6701C40.2897 47.5948 40.1915 47.5321 40.0864 47.4882C40.3948 47.4066 40.6962 47.231 40.9345 46.9612C41.5093 46.3212 41.5794 45.4429 41.0747 44.9974C41.0397 44.9598 40.9976 44.9347 40.9556 44.9033C41.243 44.8092 41.5164 44.6461 41.7547 44.4202C41.6355 44.8719 41.7266 45.3237 42.0491 45.6123L42.0771 45.6311C41.965 45.7126 41.8598 45.8005 41.7617 45.9071C41.1729 46.5408 41.1448 47.4568 41.6846 47.9462C41.7477 47.9964 41.8108 48.0403 41.8809 48.0779C41.7126 48.1783 41.5654 48.3101 41.4322 48.4795C40.9556 49.1006 41.0187 49.9915 41.5444 50.4683C42.0701 50.9389 42.8061 50.757 43.2197 50.0856C43.6333 49.4143 43.6123 48.5485 43.1426 48.1344C43.1076 48.0968 43.0655 48.0717 43.0304 48.0466C43.2337 47.9336 43.43 47.7642 43.5982 47.5447C44.1099 46.8796 44.1871 46.0263 43.7525 45.5809C43.9067 45.4805 44.0539 45.355 44.1871 45.2107C44.4324 44.9409 44.6006 44.6461 44.6988 44.3575C44.7478 44.4641 44.8179 44.5582 44.9091 44.6398C44.9791 44.7088 45.0633 44.759 45.1544 44.7966C44.9721 44.897 44.8039 45.035 44.6497 45.2044C44.0679 45.8444 44.0118 46.7353 44.5025 47.1745C44.6006 47.2623 44.7128 47.3251 44.839 47.3627C44.6217 47.4694 44.4184 47.6388 44.2501 47.8646C43.7875 48.4983 43.8296 49.3704 44.3062 49.797C44.7829 50.2237 45.4698 50.0041 45.8834 49.3265C46.297 48.6552 46.318 47.827 45.8834 47.438C45.8063 47.369 45.7222 47.3188 45.624 47.2874C45.8764 47.1745 46.1287 46.98 46.339 46.7165C46.8788 46.0452 46.9909 45.2044 46.5423 44.7966C46.4862 44.7527 46.4302 44.7151 46.3671 44.6837C46.5213 44.6021 46.6685 44.508 46.8157 44.3888C46.7526 44.7402 46.8297 45.0664 47.068 45.2797C47.5167 45.6813 48.3298 45.493 48.9537 44.9033C48.8485 45.2546 48.9046 45.5934 49.1359 45.8005C49.5355 46.1581 50.2855 45.9887 50.8673 45.468C51.4491 44.9472 51.6384 44.2759 51.2388 43.9183C50.8533 43.5732 50.0752 43.6548 49.4934 44.1253C49.6476 43.7301 49.6126 43.3473 49.3462 43.1026C48.9537 42.7576 48.2246 42.814 47.6218 43.2281C47.6849 42.996 47.6919 42.7639 47.6218 42.5694C48.0214 42.676 48.5401 42.5819 49.0238 42.3184C49.0308 42.5317 49.1079 42.7199 49.2621 42.8642C49.6686 43.2281 50.4607 43.1466 51.1407 42.7388C51.0846 42.996 51.1407 43.2344 51.3299 43.4038C51.7365 43.7677 52.5847 43.6736 53.2716 43.247C53.3558 43.1905 53.4399 43.134 53.51 43.0776C53.2366 43.3975 53.2085 43.7677 53.4679 43.9998C53.8324 44.3261 54.6175 44.2759 55.2694 43.9434ZM57.4845 41.9106C58.2205 41.6345 58.4728 41.1201 58.0382 40.7311C57.6036 40.3421 56.6784 40.2605 55.9914 40.5742C55.3115 40.8816 55.1012 41.4463 55.4937 41.7977C55.8863 42.149 56.7695 42.1804 57.4845 41.9106ZM58.8794 39.7272C59.6294 39.4637 59.8537 38.9116 59.3631 38.4724C58.8724 38.0332 57.898 37.914 57.2041 38.2277C56.5241 38.5352 56.3349 39.1186 56.7695 39.5139C57.2041 39.9029 58.1434 39.9845 58.8794 39.7272ZM59.0546 37.2553C59.7696 36.9604 59.9238 36.3393 59.3841 35.8562C58.8373 35.3731 57.87 35.2539 57.2181 35.6052C56.5732 35.9565 56.44 36.5965 56.9167 37.0231C57.4004 37.4498 58.3467 37.5439 59.0546 37.2553ZM57.9191 34.5763C58.557 34.2186 58.62 33.5159 58.0452 33.0015C57.4705 32.487 56.5382 32.4117 55.9634 32.8258C55.3886 33.2462 55.3325 33.9551 55.8442 34.4069C56.3489 34.8649 57.2742 34.9339 57.9191 34.5763ZM48.0844 31.5145C48.5611 30.8934 48.505 29.9962 47.9723 29.5257C47.4466 29.0489 46.7035 29.2308 46.29 29.9084C45.8764 30.5797 45.8974 31.4518 46.3671 31.8659C46.8297 32.2862 47.6078 32.1357 48.0844 31.5145ZM37.7241 38.0709C38.376 37.6317 38.5583 36.9541 38.1587 36.5965C37.7591 36.2452 36.925 36.333 36.2521 36.7533C35.5651 37.1737 35.3198 37.7823 35.7474 38.165C36.1679 38.5414 37.0652 38.5163 37.7241 38.0709ZM37.8082 47.965C38.355 47.4129 38.39 46.5973 37.8783 46.1455C37.3736 45.6938 36.4694 45.7252 35.8525 46.2083C35.2357 46.6977 35.2006 47.507 35.7754 48.0278C36.3572 48.5485 37.2685 48.5171 37.8082 47.965ZM48.3859 47.6137C48.8625 47.0051 48.9607 46.2459 48.5611 45.8883C48.1616 45.5307 47.3975 45.6938 46.8928 46.2836C46.3951 46.8733 46.3671 47.689 46.7947 48.0717C47.2223 48.4544 47.9092 48.2348 48.3859 47.6137ZM56.0264 38.6293C56.7905 38.2528 56.9938 37.5878 56.4611 37.111C55.9283 36.6341 54.9189 36.5777 54.225 37.0106C53.531 37.4372 53.3557 38.1399 53.8254 38.5603C54.295 38.9806 55.2764 38.9994 56.0264 38.6293ZM44.8249 36.5651C44.86 36.6467 44.9161 36.7282 44.9791 36.7973C44.902 36.7784 44.8179 36.7722 44.7408 36.7659C44.7689 36.6969 44.7969 36.6279 44.8249 36.5651ZM45.4838 37.067C45.6871 37.111 45.9184 37.1047 46.1498 37.0545C46.0166 37.1361 45.8834 37.2427 45.7572 37.3557L45.6941 37.4184C45.6521 37.2866 45.582 37.1674 45.4838 37.067ZM46.8507 36.7533C46.9559 36.6843 47.061 36.6028 47.1592 36.5149C47.1381 36.5777 47.1241 36.6404 47.1171 36.7032C47.026 36.7094 46.9419 36.7282 46.8507 36.7533ZM42.4697 37.958C42.5328 37.9768 42.6029 37.9893 42.673 37.9956C42.6169 38.0897 42.5678 38.1775 42.5258 38.2717C42.5258 38.1587 42.5047 38.0583 42.4697 37.958ZM41.9089 39.5014C42.1262 39.2943 42.2944 39.0685 42.3996 38.8363C42.3926 38.9932 42.4206 39.1437 42.4837 39.2755C42.2944 39.3257 42.0982 39.401 41.9089 39.5014ZM40.8855 40.0597C41.0397 40.0221 41.1869 39.9656 41.3341 39.8904C41.243 39.9719 41.1589 40.0598 41.0818 40.1476C41.0187 40.1099 40.9556 40.0786 40.8855 40.0597ZM40.8294 42.1615C40.8995 42.1051 40.9626 42.0423 41.0187 41.9796C41.0818 42.0298 41.1589 42.0737 41.236 42.1051C41.1028 42.1114 40.9696 42.1302 40.8294 42.1615ZM42.3365 43.4979C42.3715 43.385 42.3926 43.2658 42.3996 43.1591C42.4346 43.2219 42.4767 43.2846 42.5258 43.3411C42.4627 43.3913 42.3996 43.4414 42.3365 43.4979ZM42.2804 42.607C42.2384 42.5192 42.1753 42.4439 42.0982 42.3749C42.0211 42.3059 41.9229 42.2431 41.8248 42.2055C42.007 42.1992 42.2033 42.1615 42.3996 42.0988C42.3295 42.2682 42.2874 42.4439 42.2804 42.607ZM44.6847 43.4352C44.6567 43.3787 44.6287 43.3285 44.5936 43.2846C44.6777 43.2281 44.7618 43.1654 44.839 43.0964C44.7689 43.203 44.7198 43.3222 44.6847 43.4352ZM47.012 42.0172C46.9138 41.9921 46.8157 41.9796 46.7176 41.9796C46.8017 41.9482 46.8858 41.9106 46.9769 41.8667C46.9839 41.9231 46.9909 41.9733 47.012 42.0172ZM46.0166 42.1051C45.7853 42.1929 45.5539 42.3309 45.3437 42.5066C45.4418 42.3498 45.5189 42.1866 45.568 42.0298C45.7011 42.08 45.8554 42.1051 46.0166 42.1051ZM48.5611 39.9343C48.498 39.9531 48.4279 39.9719 48.3648 40.0033C48.3578 39.9343 48.3508 39.8715 48.3298 39.8088C48.3999 39.859 48.477 39.9029 48.5611 39.9343ZM48.3859 38.1085C48.4069 38.0332 48.4209 37.958 48.4349 37.8827C48.498 37.8701 48.5681 37.8638 48.6382 37.845C48.5401 37.9329 48.456 38.0207 48.3859 38.1085Z" fill="#F8F9F9"/>
<path d="M44.864 42.2488C45.7472 42.2488 46.3851 41.9602 46.7847 41.383H49.1119C48.7964 42.23 48.2567 42.9013 47.4856 43.3906C46.7146 43.8863 45.8383 44.131 44.864 44.131C43.5532 44.131 42.4597 43.742 41.5835 42.9703C40.7072 42.1923 40.2656 41.2198 40.2656 40.0529C40.2656 38.8796 40.7072 37.9134 41.5835 37.1417C42.4597 36.37 43.5532 35.9873 44.864 35.9873C45.8383 35.9873 46.7146 36.232 47.4856 36.7276C48.2567 37.2233 48.7964 37.8883 49.1119 38.7353H46.7847C46.3851 38.1581 45.7472 37.8758 44.864 37.8758C44.17 37.8758 43.6163 38.0766 43.1887 38.4781C42.7681 38.8734 42.5578 39.4004 42.5578 40.0529C42.5578 40.7054 42.7681 41.2324 43.1887 41.6339C43.6163 42.0417 44.17 42.2488 44.864 42.2488ZM52.0069 37.148C52.8971 36.3763 54.0117 35.9873 55.3575 35.9873C56.7034 35.9873 57.8179 36.3763 58.7082 37.148C59.5984 37.926 60.047 38.8984 60.047 40.0654C60.047 41.2261 59.5984 42.1923 58.7082 42.9703C57.8179 43.742 56.7034 44.131 55.3575 44.131C54.0117 44.131 52.8971 43.742 52.0069 42.9703C51.1167 42.1923 50.675 41.2261 50.675 40.0654C50.675 38.8984 51.1167 37.926 52.0069 37.148ZM57.0749 38.4906C56.6193 38.0766 56.0515 37.8758 55.3575 37.8758C54.6706 37.8758 54.0958 38.0766 53.6402 38.4906C53.1915 38.9047 52.9602 39.4317 52.9602 40.0654C52.9602 40.7054 53.1915 41.2324 53.6402 41.6339C54.0958 42.0417 54.6706 42.2488 55.3575 42.2488C56.0515 42.2488 56.6193 42.0417 57.0749 41.6339C57.5305 41.2324 57.7548 40.7054 57.7548 40.0654C57.7548 39.4317 57.5305 38.9047 57.0749 38.4906ZM62.171 36.2006H70.7789V43.9239H68.4867V37.9887H64.4561V43.9239H62.171V36.2006ZM74.2417 37.148C75.1249 36.3763 76.2465 35.9873 77.5923 35.9873C78.9312 35.9873 80.0527 36.3763 80.943 37.148C81.8332 37.926 82.2748 38.8984 82.2748 40.0654C82.2748 41.2261 81.8332 42.1923 80.943 42.9703C80.0527 43.742 78.9312 44.131 77.5923 44.131C76.2465 44.131 75.1249 43.742 74.2417 42.9703C73.3515 42.1923 72.9028 41.2261 72.9028 40.0654C72.9028 38.8984 73.3515 37.926 74.2417 37.148ZM79.3027 38.4906C78.8541 38.0766 78.2793 37.8758 77.5923 37.8758C76.8984 37.8758 76.3306 38.0766 75.8749 38.4906C75.4193 38.9047 75.195 39.4317 75.195 40.0654C75.195 40.7054 75.4193 41.2324 75.8749 41.6339C76.3306 42.0417 76.8984 42.2488 77.5923 42.2488C78.2793 42.2488 78.8541 42.0417 79.3027 41.6339C79.7583 41.2324 79.9896 40.7054 79.9896 40.0654C79.9896 39.4317 79.7583 38.9047 79.3027 38.4906ZM84.3988 36.2006H93.0067V43.9239H90.7215V37.9887H86.6909V43.9239H84.3988V36.2006ZM101.58 41.5775H104.054C103.71 42.3617 103.157 42.9828 102.379 43.4408C101.608 43.9051 100.745 44.131 99.7991 44.131C98.4602 44.131 97.3457 43.742 96.4625 42.9703C95.5792 42.1923 95.1306 41.2198 95.1306 40.0529C95.1306 38.8922 95.5652 37.926 96.4204 37.148C97.2826 36.3763 98.3761 35.9873 99.708 35.9873C101.033 35.9873 102.105 36.37 102.946 37.1417C103.781 37.9134 104.194 38.8734 104.194 40.0215C104.194 40.3791 104.187 40.6175 104.159 40.7367H97.5139C97.6331 41.201 97.9065 41.5712 98.32 41.841C98.7406 42.1107 99.2313 42.2488 99.7991 42.2488C100.591 42.2488 101.18 42.0229 101.58 41.5775ZM97.57 39.2059H101.762C101.692 38.7604 101.467 38.4091 101.089 38.1393C100.717 37.8758 100.255 37.744 99.708 37.744C99.1752 37.744 98.7056 37.8821 98.292 38.1518C97.8854 38.4216 97.6401 38.773 97.57 39.2059ZM105.926 38.8169V36.2006H108.211V38.4593C108.211 38.9047 108.358 39.2184 108.659 39.4129C108.954 39.6011 109.43 39.6952 110.103 39.6952C110.79 39.6952 111.435 39.6325 112.045 39.5133V36.2006H114.33V43.9239H112.045V41.4206C111.267 41.5273 110.587 41.5775 109.991 41.5775C108.631 41.5775 107.615 41.3579 106.942 40.9124C106.262 40.467 105.926 39.7705 105.926 38.8169ZM123.394 36.2006H125.686V43.9239H123.394V39.0302L119.237 43.9239H116.945V36.2006H119.237V41.0944L123.394 36.2006ZM136.053 36.2006V37.9887H132.822V43.9239H130.53V37.9887H127.319V36.2006H136.053ZM143.519 41.5775H145.986C145.65 42.3617 145.096 42.9828 144.318 43.4408C143.54 43.9051 142.684 44.131 141.738 44.131C140.392 44.131 139.278 43.742 138.395 42.9703C137.511 42.1923 137.07 41.2198 137.07 40.0529C137.07 38.8922 137.497 37.926 138.359 37.148C139.222 36.3763 140.315 35.9873 141.647 35.9873C142.965 35.9873 144.044 36.37 144.879 37.1417C145.713 37.9134 146.133 38.8734 146.133 40.0215C146.133 40.3791 146.119 40.6175 146.098 40.7367H139.453C139.572 41.201 139.839 41.5712 140.259 41.841C140.673 42.1107 141.17 42.2488 141.738 42.2488C142.523 42.2488 143.119 42.0229 143.519 41.5775ZM139.502 39.2059H143.701C143.631 38.7604 143.406 38.4091 143.028 38.1393C142.649 37.8758 142.194 37.744 141.647 37.744C141.114 37.744 140.645 37.8821 140.231 38.1518C139.818 38.4216 139.579 38.773 139.502 39.2059ZM149.26 36.2006H156.648V43.9239H154.363V37.9887H151.545V39.4192C151.545 42.4182 150.423 43.9239 148.166 43.9239H147.276V42.0166H147.935C148.236 42.0166 148.482 41.9351 148.678 41.7782C148.867 41.6151 149 41.383 149.077 41.0755C149.147 40.7744 149.197 40.4983 149.225 40.2536C149.246 40.009 149.26 39.7078 149.26 39.3502V36.2006ZM165.711 36.2006H168.004V43.9239H165.711V39.0302L161.555 43.9239H159.262V36.2006H161.555V41.0944L165.711 36.2006Z" fill="white"/>
</g>
<defs>
<clipPath id="clip0_1395_1281">
<rect width="180" height="80" fill="white"/>
</clipPath>
</defs>
</svg>
