<svg width="151" height="80" viewBox="0 0 151 80" fill="none" xmlns="http://www.w3.org/2000/svg">
<g clip-path="url(#clip0_1154_2123)">
<path opacity="0.5" d="M42.635 39.1563L42.6978 39.0998C42.8044 38.9932 42.9048 38.8802 42.9927 38.761C42.9425 38.9618 42.9362 39.1626 42.9738 39.3382C42.8797 39.2504 42.7605 39.1939 42.635 39.1563ZM58.0064 13.3199C58.044 13.276 58.0315 13.1944 57.9687 13.1317C57.906 13.0752 57.8307 13.0627 57.7868 13.1066C57.7492 13.1505 57.768 13.2321 57.8307 13.2948C57.8872 13.3513 57.9688 13.3638 58.0064 13.3199ZM53.1817 9.43627C53.213 9.38608 53.1942 9.30451 53.1378 9.24805C53.075 9.18531 52.9997 9.17276 52.9684 9.21668C52.9307 9.2606 52.9558 9.34843 53.0123 9.4049C53.0687 9.46764 53.144 9.48019 53.1817 9.43627ZM48.3193 6.0483C48.3507 6.00438 48.3256 5.91655 48.2628 5.85381C48.2064 5.79734 48.1374 5.79107 48.106 5.83498C48.0809 5.88518 48.106 5.96674 48.1625 6.0232C48.2252 6.08594 48.2942 6.09222 48.3193 6.0483ZM43.6201 3.28146C43.6389 3.23127 43.6075 3.14343 43.5511 3.08696C43.4946 3.0305 43.4318 3.02422 43.413 3.07442C43.3879 3.12461 43.4193 3.21244 43.4758 3.26891C43.5322 3.32538 43.6012 3.33165 43.6201 3.28146ZM39.2785 1.2926C39.291 1.23613 39.2596 1.14829 39.2032 1.09183C39.1467 1.03536 39.0902 1.03536 39.0777 1.08555C39.0651 1.14202 39.0965 1.22985 39.153 1.28632C39.2094 1.34279 39.2659 1.34279 39.2785 1.2926ZM35.4952 0.219738C35.5015 0.163272 35.4638 0.0817097 35.4137 0.0315175C35.3697 -0.0124006 35.3258 -0.0124006 35.3195 0.0440656C35.3133 0.100532 35.3509 0.188368 35.4011 0.232286C35.445 0.282478 35.4889 0.276204 35.4952 0.219738ZM32.4586 0.232286C32.4586 0.17582 32.4209 0.0879837 32.377 0.0440656C32.3268 0.000147434 32.2955 0.0126955 32.2955 0.0691616C32.3017 0.131902 32.3394 0.219738 32.3833 0.263656C32.4272 0.307574 32.4649 0.295026 32.4586 0.232286ZM30.2815 1.39925C30.2752 1.33651 30.2313 1.24868 30.1937 1.20476C30.1498 1.16711 30.1247 1.18594 30.1309 1.24868C30.1435 1.31769 30.1811 1.40553 30.225 1.44945C30.269 1.48709 30.2941 1.46827 30.2815 1.39925ZM28.9702 3.70182C28.9577 3.62653 28.9138 3.54497 28.8761 3.50732C28.8385 3.46968 28.8197 3.49478 28.8322 3.56379C28.851 3.6328 28.8887 3.72064 28.9263 3.75828C28.964 3.79593 28.9828 3.77083 28.9702 3.70182ZM28.3993 6.97058C28.3868 6.90157 28.3491 6.81373 28.3115 6.78236C28.2801 6.75099 28.2675 6.78236 28.2801 6.85137C28.2989 6.92666 28.3366 7.00822 28.3679 7.0396C28.4056 7.07097 28.4181 7.03959 28.3993 6.97058ZM28.3303 10.9358C28.3115 10.8667 28.2801 10.7852 28.2487 10.7601C28.2236 10.7287 28.2111 10.7601 28.2236 10.8291C28.2362 10.8981 28.2738 10.9797 28.2989 11.0048C28.3303 11.0361 28.3428 11.0048 28.3303 10.9358ZM28.3868 15.1833C28.3805 15.1268 28.3554 15.0641 28.3303 15.0452C28.3115 15.0201 28.2989 15.0515 28.3052 15.108C28.3115 15.1644 28.3366 15.2272 28.3617 15.246C28.3805 15.2711 28.393 15.2397 28.3868 15.1833ZM28.1797 19.2928C28.186 19.2488 28.1672 19.1924 28.1483 19.1735C28.1295 19.1547 28.1107 19.1735 28.1107 19.2237C28.1107 19.2739 28.1232 19.3241 28.1421 19.3429C28.1672 19.3618 28.1797 19.3429 28.1797 19.2928ZM27.339 22.8438C27.3515 22.8062 27.3453 22.7623 27.3327 22.7497C27.3139 22.7309 27.2888 22.7435 27.2763 22.7811C27.2637 22.8188 27.27 22.8627 27.2888 22.8815C27.3013 22.9003 27.3264 22.8815 27.339 22.8438ZM25.6011 25.5417C25.6262 25.5166 25.6325 25.4852 25.6199 25.4664C25.6011 25.4538 25.5697 25.4601 25.5446 25.4852C25.5195 25.5103 25.5133 25.5417 25.5321 25.5542C25.5446 25.573 25.5823 25.5668 25.6011 25.5417ZM22.897 27.267C22.9346 27.2545 22.9472 27.2357 22.9284 27.2168C22.9158 27.198 22.8719 27.1917 22.8342 27.2043C22.7966 27.2168 22.7778 27.2419 22.7966 27.2608C22.8154 27.2733 22.8593 27.2796 22.897 27.267ZM19.3333 28.1015C19.3835 28.1015 19.4086 28.0827 19.3898 28.0638C19.371 28.045 19.3145 28.0325 19.2643 28.0325C19.2204 28.0325 19.1953 28.0513 19.2141 28.0701C19.233 28.0889 19.2894 28.1015 19.3333 28.1015ZM15.2176 28.3022C15.2741 28.3085 15.3054 28.296 15.2803 28.2709C15.2615 28.2521 15.1988 28.227 15.1423 28.2207C15.0858 28.2144 15.0545 28.227 15.0796 28.2458C15.0984 28.2709 15.1611 28.296 15.2176 28.3022ZM10.9575 28.2332C11.0203 28.2458 11.0516 28.2332 11.0265 28.2081C10.9952 28.183 10.9262 28.1517 10.8634 28.1391C10.8007 28.1266 10.7756 28.1391 10.8007 28.1642C10.8258 28.1893 10.8948 28.2207 10.9575 28.2332ZM6.99235 28.3022C7.05509 28.3211 7.08646 28.3085 7.05509 28.2771C7.02999 28.2458 6.94843 28.2081 6.88569 28.1956C6.82295 28.183 6.79786 28.1956 6.82295 28.227C6.85432 28.2583 6.92961 28.2897 6.99235 28.3022ZM3.72359 28.8732C3.78633 28.8857 3.80515 28.8669 3.77378 28.8355C3.74241 28.7979 3.66085 28.7665 3.59811 28.7477C3.53537 28.7414 3.51027 28.754 3.54791 28.7916C3.57928 28.823 3.66085 28.8606 3.72359 28.8732ZM1.4273 30.1907C1.48376 30.197 1.50258 30.1719 1.46494 30.1343C1.4273 30.0966 1.35201 30.059 1.28927 30.0527C1.2328 30.0464 1.21398 30.0715 1.25162 30.1092C1.28927 30.1468 1.36456 30.1844 1.4273 30.1907ZM0.260329 32.3741C0.316795 32.3741 0.329343 32.3427 0.285425 32.3051C0.247781 32.2611 0.172493 32.2235 0.116027 32.2235C0.0595605 32.2235 0.0470125 32.2549 0.0909306 32.2925C0.128575 32.3364 0.210137 32.3678 0.260329 32.3741ZM0.254055 35.4107C0.304247 35.4044 0.304247 35.3668 0.260329 35.3229C0.216411 35.2789 0.141123 35.2476 0.0909306 35.2539C0.0470125 35.2539 0.0407384 35.2915 0.0846566 35.3354C0.128575 35.3793 0.203863 35.4107 0.254055 35.4107ZM1.31436 39.1877C1.35828 39.1751 1.35828 39.1312 1.31436 39.0873C1.27045 39.0434 1.19516 39.012 1.15124 39.0245C1.10732 39.0371 1.10732 39.081 1.15124 39.1249C1.19516 39.1688 1.27045 39.2002 1.31436 39.1877ZM3.3095 43.5356C3.35342 43.5167 3.34715 43.4665 3.30323 43.4163C3.25304 43.3724 3.18402 43.3473 3.1401 43.3662C3.10246 43.3787 3.10246 43.4352 3.15265 43.4791C3.19657 43.5293 3.27186 43.5544 3.3095 43.5356ZM6.07634 48.2411C6.11399 48.216 6.10771 48.1595 6.05752 48.1156C6.0136 48.0654 5.94459 48.0466 5.90695 48.0654C5.86303 48.0905 5.87558 48.147 5.91949 48.1972C5.96969 48.2411 6.0387 48.2662 6.07634 48.2411ZM9.46431 53.1034C9.50196 53.0783 9.48941 53.0156 9.44549 52.9654C9.3953 52.9152 9.32629 52.8964 9.28864 52.9278C9.251 52.9529 9.26355 53.0156 9.30746 53.0658C9.35766 53.116 9.42667 53.1348 9.46431 53.1034ZM13.3542 57.9344C13.3918 57.9031 13.3793 57.834 13.3291 57.7839C13.2789 57.7399 13.2099 57.7211 13.1785 57.7525C13.1409 57.7839 13.1472 57.8529 13.1974 57.9031C13.2475 57.9533 13.3166 57.9658 13.3542 57.9344ZM22.2821 66.8624C22.3198 66.831 22.301 66.762 22.2508 66.7118C22.2068 66.6616 22.1378 66.649 22.1065 66.6867C22.0751 66.7243 22.0876 66.7933 22.1378 66.8373C22.188 66.8875 22.2508 66.9 22.2821 66.8624ZM27.1131 70.7522C27.1382 70.7146 27.1257 70.6456 27.0755 70.5954C27.0253 70.5515 26.9626 70.5389 26.9375 70.5766C26.9061 70.6142 26.9249 70.6832 26.9751 70.7271C27.0253 70.7773 27.0818 70.7899 27.1131 70.7522ZM31.9755 74.1339C31.9943 74.0963 31.9755 74.0273 31.9253 73.9771C31.8814 73.9332 31.8249 73.9269 31.7998 73.9645C31.7747 74.0022 31.7935 74.0712 31.8437 74.1214C31.8939 74.1653 31.9504 74.1716 31.9755 74.1339ZM36.6873 76.9071C36.7061 76.8631 36.6747 76.7816 36.6245 76.7314C36.5743 76.6812 36.5179 76.6749 36.4991 76.7188C36.4802 76.7628 36.5053 76.8443 36.5555 76.8945C36.612 76.951 36.6685 76.9573 36.6873 76.9071ZM41.0289 78.9022C41.0414 78.852 41.0038 78.7704 40.9536 78.7202C40.9034 78.6701 40.8532 78.6638 40.8407 78.714C40.8281 78.7642 40.8595 78.8457 40.9097 78.8959C40.9662 78.9524 41.0163 78.9524 41.0289 78.9022ZM44.7996 79.9562C44.8059 79.8998 44.7682 79.8182 44.718 79.768C44.6741 79.7178 44.6302 79.7241 44.6239 79.7806C44.6176 79.837 44.6553 79.9186 44.7055 79.9688C44.7494 80.019 44.7933 80.0127 44.7996 79.9562ZM47.8299 79.9374C47.8237 79.8747 47.786 79.7868 47.7421 79.7429C47.6919 79.699 47.6605 79.7115 47.6605 79.7743C47.6668 79.8307 47.7045 79.9186 47.7484 79.9625C47.7923 80.0127 47.8299 80.0002 47.8299 79.9374ZM50.0007 78.7579C49.9882 78.6952 49.9506 78.6073 49.9066 78.5634C49.8627 78.5258 49.8376 78.5446 49.8502 78.6073C49.8564 78.6763 49.9004 78.7642 49.938 78.8081C49.9819 78.8457 50.007 78.8269 50.0007 78.7579ZM51.2995 76.4553C51.2869 76.38 51.2493 76.2985 51.2116 76.2608C51.174 76.2232 51.1552 76.2483 51.1677 76.3173C51.1803 76.3863 51.2179 76.4742 51.2556 76.5118C51.2932 76.5494 51.312 76.5243 51.2995 76.4553ZM51.8641 73.174C51.8453 73.0925 51.8014 73.0046 51.7637 72.967C51.7324 72.9293 51.7136 72.9607 51.7324 73.0423C51.7449 73.1175 51.7888 73.2117 51.8265 73.2493C51.8641 73.2869 51.8767 73.2493 51.8641 73.174ZM51.9206 69.1963C51.9018 69.121 51.8641 69.0332 51.8328 69.0018C51.8077 68.9704 51.7888 69.0018 51.8077 69.0771C51.8202 69.1524 51.8579 69.2402 51.8892 69.2716C51.9206 69.3029 51.9331 69.2716 51.9206 69.1963ZM51.839 64.9174C51.8328 64.8484 51.8014 64.7731 51.7763 64.748C51.7449 64.7166 51.7324 64.7543 51.7386 64.8233C51.7512 64.8923 51.7763 64.9676 51.8077 64.9927C51.8328 65.0241 51.8453 64.9864 51.839 64.9174ZM52.0272 60.7954C52.0272 60.7326 52.0084 60.6699 51.9896 60.6448C51.9645 60.6197 51.9457 60.6511 51.9394 60.7075C51.9394 60.764 51.9582 60.833 51.9833 60.8581C52.0022 60.8769 52.0272 60.8518 52.0272 60.7954ZM52.8554 57.2255C52.868 57.1815 52.8617 57.1251 52.8429 57.1063C52.8178 57.0874 52.7927 57.1063 52.7739 57.1502C52.7613 57.1941 52.7676 57.2506 52.7864 57.2694C52.8115 57.2882 52.8366 57.2694 52.8554 57.2255ZM54.5745 54.5151C54.6059 54.4837 54.6121 54.4461 54.5933 54.4273C54.5745 54.4022 54.5306 54.4147 54.5055 54.4398C54.4741 54.4712 54.4678 54.5151 54.4867 54.5339C54.5055 54.5527 54.5494 54.5465 54.5745 54.5151ZM57.2786 52.7835C57.3225 52.7709 57.3413 52.7395 57.3225 52.7207C57.2974 52.6956 57.2472 52.6894 57.197 52.7082C57.1531 52.7207 57.1343 52.7521 57.1594 52.7709C57.1782 52.7897 57.2347 52.796 57.2786 52.7835ZM60.836 51.949C60.8924 51.9427 60.9238 51.9239 60.8987 51.9051C60.8736 51.88 60.8109 51.8612 60.7481 51.8612C60.6917 51.8612 60.6666 51.8863 60.6854 51.9051C60.7105 51.9302 60.7732 51.949 60.836 51.949ZM64.9517 51.7545C65.0207 51.7608 65.0584 51.7482 65.0333 51.7232C65.0019 51.6918 64.9266 51.6667 64.8576 51.6541C64.7886 51.6479 64.751 51.6604 64.7823 51.6918C64.8074 51.7169 64.8827 51.742 64.9517 51.7545ZM69.2243 51.8298C69.2996 51.8424 69.3373 51.8298 69.3059 51.7984C69.2745 51.7671 69.1867 51.7294 69.1114 51.7169C69.0361 51.6981 68.9985 51.7169 69.0298 51.7482C69.0612 51.7796 69.149 51.8173 69.2243 51.8298ZM73.2021 51.7733C73.2774 51.7859 73.315 51.7733 73.2774 51.7357C73.2397 51.6981 73.1456 51.6541 73.0703 51.6416C72.9887 51.6228 72.9574 51.6416 72.995 51.673C73.0327 51.7106 73.1205 51.7545 73.2021 51.7733ZM76.4897 51.2212C76.5649 51.2338 76.5963 51.215 76.5524 51.171C76.5147 51.1271 76.4144 51.0832 76.3391 51.0707C76.2638 51.0518 76.2324 51.0769 76.2763 51.1146C76.314 51.1585 76.4144 51.2024 76.4897 51.2212ZM78.7985 49.9162C78.8738 49.9288 78.8926 49.8974 78.8487 49.8535C78.8048 49.8096 78.7044 49.7657 78.6354 49.7531C78.5601 49.7406 78.5413 49.7719 78.5852 49.8158C78.6291 49.866 78.7295 49.91 78.7985 49.9162ZM79.978 47.7517C80.047 47.758 80.0596 47.7203 80.0094 47.6701C79.9592 47.6199 79.8651 47.576 79.8023 47.576C79.7333 47.5698 79.7208 47.6074 79.771 47.6576C79.8212 47.7078 79.9153 47.7517 79.978 47.7517ZM80.0031 44.7339C80.0658 44.7276 80.0721 44.6774 80.0219 44.6272C79.9655 44.5708 79.8713 44.5331 79.8149 44.5394C79.7521 44.5457 79.7459 44.5896 79.7961 44.6461C79.8525 44.6963 79.9466 44.7339 80.0031 44.7339ZM78.9553 40.9632C79.0055 40.9507 79.0055 40.8942 78.9491 40.8377C78.8926 40.7813 78.8048 40.7499 78.7483 40.7624C78.6981 40.775 78.6981 40.8315 78.7546 40.8879C78.811 40.9444 78.8989 40.9758 78.9553 40.9632ZM76.9665 36.6279C77.0167 36.609 77.0104 36.5463 76.9539 36.4898C76.8912 36.4271 76.8096 36.402 76.7594 36.4208C76.7092 36.4396 76.7155 36.5024 76.772 36.5651C76.8284 36.6216 76.9163 36.653 76.9665 36.6279ZM74.2059 31.9286C74.2498 31.9035 74.2436 31.8345 74.1808 31.7718C74.1243 31.7153 74.0365 31.6902 73.9926 31.7153C73.9424 31.7467 73.9549 31.8157 74.0114 31.8722C74.0742 31.9349 74.1557 31.96 74.2059 31.9286ZM70.8242 27.0725C70.8681 27.0412 70.8556 26.9659 70.7928 26.9031C70.7364 26.8467 70.6485 26.8278 70.6046 26.8592C70.5607 26.8906 70.5732 26.9659 70.636 27.0286C70.6925 27.0851 70.7803 27.1102 70.8242 27.0725ZM66.9343 22.2478C66.9782 22.2102 66.9657 22.1286 66.903 22.0721C66.8465 22.0094 66.7649 21.9969 66.721 22.0345C66.6771 22.0721 66.6896 22.1537 66.7461 22.2102C66.8088 22.2729 66.8904 22.2855 66.9343 22.2478ZM62.6366 17.6239C62.6743 17.5799 62.6617 17.4984 62.599 17.4356C62.5425 17.3792 62.4609 17.3666 62.417 17.4043C62.3731 17.4482 62.3919 17.5298 62.4484 17.5925C62.5111 17.649 62.5927 17.6678 62.6366 17.6239ZM56.1618 15.9675C56.2622 15.8483 56.1995 15.6099 56.0175 15.428C55.8419 15.2523 55.616 15.2021 55.5219 15.3276C55.4215 15.4468 55.4905 15.6915 55.6662 15.8671C55.8419 16.0428 56.0614 16.0867 56.1618 15.9675ZM51.5818 12.2784C51.6634 12.1529 51.5943 11.9145 51.4187 11.7388C51.2493 11.5694 51.0485 11.5318 50.9669 11.6635C50.8854 11.7953 50.9607 12.0337 51.1301 12.2031C51.2995 12.3725 51.5002 12.4102 51.5818 12.2784ZM47.0582 9.19786C47.121 9.05355 47.0394 8.80887 46.87 8.63947C46.7006 8.47007 46.5124 8.45125 46.4496 8.58928C46.3869 8.73358 46.4747 8.98454 46.6379 9.14767C46.8073 9.31706 46.9892 9.33589 47.0582 9.19786ZM42.7731 6.86392C42.817 6.70707 42.7229 6.44984 42.5598 6.28671C42.3966 6.12359 42.2335 6.12359 42.1896 6.27416C42.1457 6.43102 42.2461 6.69452 42.4029 6.85137C42.566 7.0145 42.7292 7.0145 42.7731 6.86392ZM38.9522 5.43972C38.9773 5.27032 38.8706 5.00681 38.7138 4.84996C38.5569 4.69311 38.4126 4.71194 38.3938 4.88133C38.375 5.05701 38.4817 5.32051 38.6322 5.47109C38.7891 5.62794 38.9271 5.60912 38.9522 5.43972ZM35.7713 5.06955C35.7775 4.88133 35.6583 4.61155 35.514 4.46725C35.3697 4.32295 35.2505 4.36059 35.2505 4.54881C35.2505 4.73703 35.3697 5.01309 35.514 5.15112C35.6583 5.29542 35.7713 5.25777 35.7713 5.06955ZM33.3683 5.83498C33.3495 5.63422 33.2303 5.35816 33.0985 5.2264C32.9605 5.09465 32.8727 5.15112 32.8915 5.35816C32.9103 5.5652 33.0295 5.84126 33.1613 5.96674C33.293 6.09849 33.3871 6.04203 33.3683 5.83498ZM31.7622 7.72346C31.7308 7.51015 31.6116 7.24036 31.4924 7.12116C31.3732 6.99568 31.2979 7.07724 31.3293 7.29056C31.3669 7.51015 31.4861 7.77993 31.6053 7.89914C31.7183 8.01834 31.7935 7.93678 31.7622 7.72346ZM30.8524 10.5781C30.8211 10.3648 30.7081 10.1139 30.6078 10.0135C30.5011 9.90682 30.4509 9.99466 30.4823 10.208C30.5199 10.4213 30.6266 10.6723 30.727 10.7726C30.8273 10.873 30.8838 10.7852 30.8524 10.5781ZM30.407 14.1292C30.3819 13.9285 30.2878 13.6901 30.1999 13.6022C30.1121 13.5144 30.0619 13.6085 30.0933 13.8093C30.1184 14.0163 30.2125 14.2484 30.3003 14.3363C30.3819 14.4241 30.4321 14.33 30.407 14.1292ZM30.087 17.9878C30.0807 17.8058 30.0054 17.5925 29.9302 17.5172C29.8549 17.4419 29.8047 17.5298 29.811 17.7117C29.8235 17.8999 29.8925 18.107 29.9678 18.1823C30.0431 18.2575 30.0933 18.1697 30.087 17.9878ZM29.5035 21.7145C29.5224 21.5577 29.4784 21.382 29.4157 21.313C29.3467 21.2502 29.2839 21.3193 29.2651 21.4761C29.2463 21.6267 29.2777 21.8086 29.3467 21.8714C29.4094 21.9404 29.4847 21.8651 29.5035 21.7145ZM28.3115 24.9268C28.3679 24.8076 28.3617 24.6633 28.2989 24.6006C28.2425 24.5378 28.1483 24.588 28.0919 24.7072C28.0354 24.8202 28.0354 24.9645 28.0982 25.0272C28.1609 25.0837 28.255 25.0398 28.3115 24.9268ZM26.3038 27.3549C26.4042 27.2796 26.4293 27.1666 26.3728 27.1039C26.3101 27.0474 26.1846 27.0663 26.0905 27.1415C25.9901 27.2168 25.9587 27.3235 26.0214 27.38C26.0779 27.4427 26.2097 27.4302 26.3038 27.3549ZM23.4554 28.9296C23.5871 28.892 23.6499 28.8104 23.5871 28.7477C23.5244 28.685 23.3613 28.6661 23.2295 28.6975C23.0915 28.7352 23.0287 28.8167 23.0915 28.8795C23.1542 28.9422 23.3173 28.9673 23.4554 28.9296ZM19.9294 29.7704C20.0925 29.7641 20.1741 29.7013 20.105 29.6386C20.036 29.5696 19.8478 29.5194 19.6847 29.5194C19.5153 29.5257 19.44 29.5821 19.509 29.6512C19.578 29.7202 19.7663 29.7704 19.9294 29.7704ZM16.0771 30.1656C16.2654 30.1844 16.3532 30.1343 16.2779 30.059C16.1963 29.9837 15.983 29.9021 15.7948 29.8833C15.6003 29.8582 15.5125 29.9084 15.594 29.99C15.6756 30.0652 15.8889 30.1468 16.0771 30.1656ZM12.319 30.4981C12.5198 30.5295 12.6076 30.4793 12.5135 30.3852C12.4257 30.2974 12.1872 30.197 11.9865 30.1656C11.7794 30.1343 11.6916 30.1844 11.7857 30.2723C11.8798 30.3664 12.1182 30.4668 12.319 30.4981ZM9.06905 31.1318C9.26982 31.1632 9.35138 31.1067 9.24472 31.0001C9.14434 30.8997 8.89338 30.7868 8.68634 30.7554C8.47929 30.7177 8.39773 30.7805 8.50439 30.8871C8.61105 30.9938 8.86201 31.1005 9.06905 31.1318ZM6.6661 32.3678C6.8606 32.3929 6.92961 32.3176 6.8104 32.1984C6.6912 32.0792 6.44024 31.9663 6.23947 31.9412C6.0387 31.9161 5.97596 31.9914 6.09517 32.1106C6.21437 32.2298 6.47161 32.349 6.6661 32.3678ZM5.32974 34.3755C5.51796 34.3818 5.56187 34.2814 5.43012 34.1559C5.30464 34.0241 5.0474 33.9112 4.85918 33.8987C4.67096 33.8924 4.62705 33.9928 4.7588 34.1245C4.89055 34.2563 5.14779 34.3629 5.32974 34.3755ZM5.14151 37.18C5.31091 37.1674 5.33601 37.0482 5.19171 36.9039C5.05368 36.7659 4.80272 36.6592 4.63332 36.6718C4.46392 36.6781 4.43883 36.8035 4.57685 36.9416C4.72116 37.0859 4.97212 37.1925 5.14151 37.18ZM6.05125 40.706C6.2081 40.6746 6.21437 40.5303 6.0638 40.3797C5.91949 40.2354 5.66853 40.135 5.51796 40.1664C5.36111 40.1978 5.35483 40.3421 5.50541 40.4927C5.65598 40.6432 5.90067 40.7373 6.05125 40.706ZM7.95228 44.7841C8.0903 44.7339 8.07776 44.5708 7.92718 44.4139C7.77033 44.2633 7.53192 44.1755 7.39389 44.2257C7.25586 44.2759 7.26841 44.439 7.42526 44.5959C7.57583 44.7527 7.81425 44.8343 7.95228 44.7841ZM10.6877 49.2198C10.8132 49.1508 10.7881 48.9689 10.625 48.812C10.4682 48.6552 10.2423 48.5799 10.1105 48.6426C9.98506 48.7116 10.0102 48.8936 10.1733 49.0567C10.3301 49.2135 10.5623 49.2888 10.6877 49.2198ZM14.1008 53.8061C14.22 53.7183 14.1761 53.5175 14.013 53.3481C13.8499 53.185 13.6177 53.116 13.4985 53.2038C13.3793 53.2854 13.4169 53.4924 13.5801 53.6555C13.7495 53.8249 13.9816 53.8877 14.1008 53.8061ZM18.0221 58.3297C18.1287 58.2293 18.0848 58.016 17.9154 57.8466C17.746 57.6835 17.5264 57.6207 17.4135 57.7211C17.3068 57.8152 17.3508 58.0348 17.5202 58.2042C17.6896 58.3736 17.9154 58.4238 18.0221 58.3297ZM22.3198 62.6274C22.4139 62.5145 22.3574 62.2949 22.1943 62.1255C22.0249 61.9561 21.8116 61.9122 21.7112 62.0188C21.6108 62.1255 21.6673 62.3513 21.8367 62.5207C22.0061 62.6901 22.2194 62.7341 22.3198 62.6274ZM26.8371 66.5424C26.9249 66.4232 26.8559 66.191 26.6928 66.0279C26.5234 65.8585 26.3226 65.8209 26.2348 65.9401C26.1469 66.0593 26.2159 66.2914 26.3791 66.4545C26.5485 66.6239 26.7555 66.6616 26.8371 66.5424ZM31.4046 69.9366C31.4736 69.8049 31.3983 69.5665 31.2352 69.4033C31.072 69.2402 30.8838 69.2151 30.8148 69.3469C30.7395 69.4723 30.8148 69.7108 30.9842 69.8802C31.1473 70.0433 31.3355 70.0684 31.4046 69.9366ZM35.8277 72.6533C35.8779 72.509 35.7901 72.2643 35.627 72.1074C35.4701 71.9506 35.3007 71.938 35.2505 72.0761C35.1941 72.2204 35.2819 72.4651 35.4388 72.6282C35.6019 72.785 35.7713 72.7976 35.8277 72.6533ZM39.887 74.5355C39.9121 74.3724 39.818 74.1214 39.6612 73.9708C39.5106 73.814 39.36 73.8202 39.3286 73.9771C39.2973 74.1339 39.3914 74.3912 39.5482 74.5417C39.7051 74.6986 39.8557 74.6923 39.887 74.5355ZM43.3879 75.4264C43.4005 75.2444 43.2875 74.9747 43.137 74.8304C42.9864 74.6798 42.8609 74.7049 42.8484 74.8868C42.8358 75.0625 42.9487 75.3323 43.0993 75.4829C43.2499 75.6334 43.3754 75.6083 43.3879 75.4264ZM46.1548 75.2005C46.1485 74.9998 46.0293 74.73 45.8913 74.5919C45.7532 74.4539 45.6466 74.4978 45.6529 74.6986C45.6654 74.8931 45.7846 75.1629 45.9226 75.3072C46.0607 75.4452 46.1673 75.395 46.1548 75.2005ZM48.1185 73.8202C48.0934 73.6069 47.968 73.3371 47.8425 73.2117C47.717 73.0862 47.6354 73.1552 47.6605 73.3622C47.6856 73.5756 47.8048 73.8453 47.9366 73.9771C48.0621 74.1026 48.1436 74.0336 48.1185 73.8202ZM49.3043 71.3734C49.2667 71.1538 49.1538 70.8903 49.0408 70.7773C48.9279 70.6644 48.8651 70.7522 48.9028 70.9656C48.9342 71.1852 49.0534 71.4549 49.1663 71.5679C49.2792 71.6808 49.342 71.593 49.3043 71.3734ZM49.8941 68.0732C49.8564 67.8599 49.7498 67.6027 49.6557 67.5086C49.5616 67.4145 49.5051 67.5086 49.5365 67.7219C49.5741 67.9352 49.6808 68.1862 49.7749 68.2866C49.8753 68.3869 49.9255 68.2928 49.8941 68.0732ZM50.1764 64.2649C50.1576 64.0641 50.0698 63.832 49.9882 63.7504C49.9066 63.6689 49.8564 63.763 49.8753 63.9638C49.8941 64.1645 49.9819 64.3967 50.0635 64.4782C50.1513 64.5661 50.2015 64.472 50.1764 64.2649ZM50.5403 60.375C50.5403 60.1993 50.4901 59.9986 50.4148 59.9296C50.3458 59.8543 50.2831 59.9358 50.2768 60.1115C50.2705 60.2872 50.327 60.488 50.4023 60.5632C50.4776 60.6385 50.534 60.5507 50.5403 60.375ZM51.3559 56.8302C51.3998 56.6859 51.3748 56.5165 51.312 56.4538C51.243 56.3847 51.1552 56.4475 51.1175 56.5918C51.0799 56.7361 51.105 56.9118 51.1677 56.9808C51.2367 57.0435 51.3183 56.9808 51.3559 56.8302ZM52.9182 53.9692C52.9997 53.8689 53.0185 53.7371 52.9558 53.6744C52.8931 53.6116 52.7739 53.6367 52.6923 53.7434C52.6107 53.8438 52.5982 53.9818 52.6609 54.0445C52.7237 54.1073 52.8366 54.0759 52.9182 53.9692ZM55.3525 51.9678C55.478 51.9051 55.5282 51.811 55.4654 51.742C55.4027 51.6792 55.2458 51.673 55.1203 51.7357C54.9949 51.7922 54.9509 51.8988 55.0137 51.9616C55.0764 52.0243 55.227 52.0243 55.3525 51.9678ZM58.5836 50.7946C58.7467 50.7758 58.8283 50.7068 58.753 50.6377C58.684 50.5625 58.4958 50.5185 58.3326 50.5436C58.1695 50.5625 58.0942 50.6377 58.1632 50.7068C58.2323 50.782 58.4205 50.8134 58.5836 50.7946ZM62.348 50.2488C62.5425 50.255 62.6366 50.2048 62.5551 50.1233C62.4735 50.0417 62.2476 49.9664 62.0531 49.9539C61.8649 49.9476 61.7708 50.0041 61.8524 50.0856C61.9277 50.1609 62.1535 50.2362 62.348 50.2488ZM66.2442 49.9664C66.4638 49.9978 66.5642 49.9476 66.47 49.8535C66.3759 49.7594 66.125 49.659 65.9117 49.6339C65.6983 49.6025 65.598 49.659 65.6921 49.7468C65.7799 49.8409 66.0309 49.9413 66.2442 49.9664ZM69.8517 49.5774C70.0776 49.6151 70.1717 49.5586 70.0588 49.4457C69.9521 49.339 69.6823 49.2198 69.4565 49.1884C69.2369 49.1508 69.1428 49.2073 69.2494 49.3139C69.3561 49.4206 69.6259 49.5398 69.8517 49.5774ZM72.7566 48.7179C72.9825 48.7555 73.064 48.6803 72.9386 48.5548C72.8131 48.4293 72.537 48.3101 72.3174 48.2787C72.0978 48.2473 72.0163 48.3226 72.1355 48.4418C72.261 48.561 72.537 48.6865 72.7566 48.7179ZM74.6953 47.1619C74.9086 47.1808 74.9651 47.0867 74.827 46.9486C74.689 46.8106 74.4067 46.6851 74.1996 46.6663C73.9926 46.6537 73.9298 46.7479 74.0616 46.8859C74.1996 47.0176 74.482 47.1431 74.6953 47.1619ZM75.5046 44.7966C75.6991 44.7966 75.7368 44.6774 75.5862 44.5269C75.4356 44.3763 75.1596 44.2571 74.9651 44.2633C74.7706 44.2633 74.7329 44.3826 74.8772 44.5331C75.0278 44.6774 75.3039 44.7966 75.5046 44.7966ZM75.1658 41.6534C75.3478 41.6345 75.3603 41.484 75.2035 41.3271C75.0404 41.1703 74.7706 41.0573 74.5949 41.0824C74.4192 41.1075 74.4004 41.2518 74.5573 41.4087C74.7141 41.5655 74.9902 41.6784 75.1658 41.6534ZM73.773 37.8576C73.9361 37.8137 73.9299 37.6443 73.7605 37.4749C73.5973 37.3117 73.3275 37.2113 73.1707 37.2553C73.0138 37.3055 73.0138 37.4749 73.1832 37.638C73.3464 37.8011 73.6099 37.9015 73.773 37.8576ZM71.4579 33.5975C71.6022 33.5348 71.5834 33.3403 71.4077 33.1709C71.2383 32.9952 70.9811 32.9136 70.8368 32.9764C70.6925 33.0454 70.7113 33.2336 70.887 33.403C71.0564 33.5724 71.3136 33.6603 71.4579 33.5975ZM68.3836 29.0865C68.5217 29.0049 68.484 28.7916 68.3083 28.6159C68.1327 28.4403 67.8817 28.365 67.7499 28.4465C67.6182 28.5344 67.6558 28.7414 67.8315 28.9171C68.0009 29.0865 68.2519 29.1681 68.3836 29.0865ZM64.7133 24.519C64.8325 24.4249 64.7886 24.199 64.6129 24.0234C64.431 23.8414 64.1926 23.7787 64.0734 23.8791C63.9479 23.9794 63.9981 24.199 64.1738 24.3747C64.3494 24.5504 64.5941 24.6194 64.7133 24.519ZM60.5913 20.0958C60.6979 19.9892 60.6478 19.7508 60.4658 19.5751C60.2901 19.3931 60.0517 19.3367 59.9451 19.4496C59.8384 19.5625 59.8949 19.7947 60.0705 19.9703C60.2462 20.146 60.4784 20.2025 60.5913 20.0958ZM54.5557 18.4458C54.7063 18.2575 54.5996 17.8748 54.3235 17.5988C54.0475 17.3227 53.7024 17.2537 53.5644 17.4545C53.4201 17.649 53.5267 18.0317 53.8028 18.3015C54.0726 18.5712 54.4114 18.6403 54.5557 18.4458ZM50.2705 15.0829C50.3897 14.8696 50.2705 14.4743 49.9945 14.1982C49.7247 13.9285 49.4047 13.8845 49.2918 14.1041C49.1789 14.33 49.3043 14.7253 49.5741 14.9888C49.8376 15.2586 50.1513 15.2962 50.2705 15.0829ZM46.092 12.4102C46.1799 12.1655 46.0418 11.7577 45.7721 11.4941C45.5085 11.2244 45.2262 11.2118 45.1384 11.4565C45.0568 11.7075 45.2011 12.1153 45.4584 12.3725C45.7219 12.636 45.9979 12.6486 46.092 12.4102ZM42.2335 10.597C42.2963 10.3272 42.1394 9.90682 41.8822 9.65586C41.6312 9.39863 41.3802 9.41745 41.3301 9.6935C41.2799 9.96956 41.443 10.3899 41.6877 10.6346C41.9324 10.8856 42.177 10.8667 42.2335 10.597ZM38.9146 9.80644C38.9397 9.51156 38.7703 9.07865 38.5318 8.84024C38.2934 8.60183 38.0864 8.65829 38.0676 8.95944C38.0487 9.2606 38.2244 9.6935 38.4566 9.92564C38.6824 10.1578 38.8895 10.1013 38.9146 9.80644ZM36.2795 10.139C36.2732 9.81898 36.0912 9.3798 35.8779 9.16021C35.6583 8.9469 35.4889 9.02846 35.4952 9.35471C35.5078 9.68723 35.6897 10.1201 35.903 10.3335C36.1101 10.5405 36.2795 10.4589 36.2795 10.139ZM34.3659 11.5757C34.3471 11.2495 34.1714 10.8228 33.9769 10.6283C33.7824 10.4401 33.6507 10.553 33.6758 10.8918C33.7071 11.2244 33.8828 11.651 34.071 11.8329C34.2592 12.0212 34.391 11.9082 34.3659 11.5757ZM33.1236 14.01C33.0923 13.6775 32.9291 13.2697 32.7597 13.1003C32.5903 12.9246 32.4837 13.0627 32.5151 13.4077C32.5527 13.7402 32.7096 14.1481 32.8727 14.3112C33.0358 14.4743 33.1487 14.3426 33.1236 14.01ZM32.3143 17.1533C32.2955 16.8333 32.1637 16.4506 32.0131 16.3063C31.8688 16.1557 31.7684 16.3063 31.7935 16.6263C31.8124 16.9525 31.9441 17.329 32.0884 17.467C32.2265 17.6113 32.3331 17.467 32.3143 17.1533ZM31.6241 20.6228C31.6367 20.3342 31.5426 19.9954 31.4108 19.87C31.2854 19.7445 31.1787 19.8762 31.1724 20.1711C31.1661 20.4597 31.254 20.7922 31.3732 20.9177C31.4987 21.0369 31.6116 20.9114 31.6241 20.6228ZM30.6893 23.9983C30.7458 23.7599 30.6956 23.4712 30.5827 23.3583C30.476 23.2454 30.3442 23.3583 30.2878 23.603C30.2313 23.8414 30.269 24.1237 30.3756 24.2304C30.4823 24.3371 30.6266 24.2367 30.6893 23.9983ZM29.1898 26.9094C29.309 26.7275 29.309 26.4953 29.2087 26.3887C29.1083 26.2883 28.9326 26.3573 28.8197 26.5392C28.7005 26.7212 28.6816 26.9408 28.782 27.0412C28.8887 27.1478 29.0706 27.0914 29.1898 26.9094ZM26.9626 29.1241C27.1382 29.0049 27.1947 28.823 27.0943 28.7226C26.9939 28.6222 26.7743 28.641 26.5987 28.754C26.4167 28.8732 26.3477 29.0363 26.4544 29.1367C26.5547 29.2433 26.7869 29.2371 26.9626 29.1241ZM24.0451 30.6111C24.2773 30.5546 24.3777 30.4166 24.271 30.3037C24.1643 30.197 23.8883 30.1656 23.6499 30.2158C23.4115 30.2723 23.3048 30.3978 23.4115 30.5107C23.5244 30.6174 23.8067 30.6675 24.0451 30.6111ZM20.6634 31.5459C20.9458 31.5334 21.0712 31.4204 20.952 31.2949C20.8266 31.1757 20.5003 31.0879 20.218 31.1005C19.9294 31.1067 19.7976 31.2071 19.9231 31.3326C20.0486 31.4581 20.3811 31.5522 20.6634 31.5459ZM17.1876 32.2298C17.4951 32.2486 17.6331 32.1419 17.4951 32.0039C17.357 31.8659 16.9869 31.7341 16.6732 31.7153C16.3532 31.6902 16.2089 31.7843 16.3532 31.9286C16.4975 32.0792 16.8739 32.211 17.1876 32.2298ZM14.0381 33.0329C14.3643 33.0579 14.4961 32.9513 14.3392 32.7882C14.1761 32.625 13.7746 32.4745 13.4483 32.4368C13.1095 32.4054 12.9778 32.5058 13.1472 32.6752C13.3103 32.8446 13.7118 33.0015 14.0381 33.0329ZM11.61 34.2814C11.93 34.3002 12.0429 34.1684 11.861 33.9865C11.679 33.8046 11.2587 33.6289 10.9324 33.6038C10.5999 33.5724 10.487 33.7042 10.6752 33.8924C10.8697 34.0806 11.2838 34.2563 11.61 34.2814ZM10.1607 36.1824C10.4682 36.1887 10.556 36.0256 10.349 35.8185C10.1419 35.6115 9.72155 35.4421 9.40785 35.4295C9.09415 35.417 9.01258 35.5801 9.21963 35.7934C9.43294 36.0067 9.8533 36.1824 10.1607 36.1824ZM9.83448 38.8238C10.1168 38.7987 10.1733 38.5979 9.94741 38.3783C9.72155 38.1525 9.30746 37.9831 9.01258 38.0019C8.72398 38.0207 8.67379 38.2215 8.90593 38.4536C9.13179 38.6795 9.55215 38.8489 9.83448 38.8238ZM10.625 42.149C10.8822 42.0925 10.9011 41.8541 10.6627 41.6157C10.4242 41.3773 10.0164 41.2267 9.75292 41.2706C9.48941 41.3208 9.47059 41.5592 9.71527 41.8039C9.95996 42.0486 10.3678 42.2055 10.625 42.149ZM12.4382 46.0075C12.6703 45.9197 12.6578 45.6499 12.4068 45.3989C12.1559 45.148 11.7606 45.01 11.5222 45.0915C11.2838 45.1668 11.3026 45.4429 11.5536 45.7001C11.8108 45.9573 12.2061 46.0891 12.4382 46.0075ZM15.1172 50.186C15.3242 50.0731 15.2866 49.7719 15.0294 49.5147C14.7721 49.2575 14.3894 49.1383 14.1761 49.2449C13.9628 49.3578 14.0067 49.659 14.2702 49.9225C14.5337 50.186 14.9102 50.3052 15.1172 50.186ZM18.4864 54.4774C18.6683 54.3394 18.6056 54.0069 18.342 53.7497C18.0785 53.4861 17.7146 53.3795 17.5264 53.5175C17.3382 53.6555 17.4009 53.9881 17.6645 54.2516C17.9342 54.5214 18.2981 54.6217 18.4864 54.4774ZM22.3511 58.6559C22.5143 58.4865 22.4264 58.1415 22.1629 57.878C21.8994 57.6145 21.5543 57.5329 21.3849 57.6897C21.2218 57.8529 21.3034 58.2042 21.5732 58.4677C21.843 58.7375 22.188 58.8253 22.3511 58.6559ZM26.5234 62.5145C26.6614 62.3262 26.5547 61.9623 26.2912 61.6988C26.034 61.4353 25.7077 61.3726 25.5634 61.5545C25.4191 61.7428 25.5195 62.1066 25.7893 62.3764C26.0591 62.6399 26.3853 62.7027 26.5234 62.5145ZM30.8085 65.8773C30.9152 65.6577 30.796 65.2688 30.5325 65.0052C30.269 64.7417 29.9615 64.7041 29.8423 64.9111C29.7231 65.1245 29.8486 65.5134 30.1121 65.7832C30.3819 66.0467 30.6956 66.0907 30.8085 65.8773ZM34.9619 68.525C35.0435 68.2866 34.8992 67.8787 34.6482 67.6278C34.391 67.3706 34.1212 67.358 34.0271 67.5964C33.9393 67.8286 34.0773 68.2301 34.3408 68.4936C34.598 68.7508 34.8804 68.7697 34.9619 68.525ZM38.7765 70.3005C38.8267 70.0307 38.6699 69.6104 38.4252 69.372C38.1868 69.1273 37.9421 69.1461 37.8856 69.4096C37.8292 69.6731 37.986 70.0872 38.237 70.3382C38.4817 70.5828 38.7263 70.5703 38.7765 70.3005ZM42.0453 71.0346C42.0641 70.7397 41.8947 70.3131 41.6688 70.0872C41.443 69.8613 41.2359 69.9115 41.2108 70.2001C41.1857 70.4887 41.3551 70.9154 41.5873 71.1475C41.8257 71.3859 42.0327 71.3357 42.0453 71.0346ZM44.6239 70.6456C44.6114 70.3256 44.4357 69.8927 44.2286 69.6857C44.0153 69.4786 43.8522 69.5602 43.8522 69.8739C43.8585 70.1876 44.0342 70.6205 44.2537 70.8338C44.4671 71.0471 44.6302 70.9656 44.6239 70.6456ZM46.4496 69.121C46.4246 68.7885 46.2489 68.3618 46.0607 68.1736C45.8724 67.9917 45.7407 68.1046 45.7595 68.4309C45.7846 68.7634 45.9603 69.1837 46.1548 69.3782C46.3493 69.5727 46.481 69.4598 46.4496 69.121ZM47.6229 66.6114C47.5852 66.2726 47.4221 65.8585 47.259 65.6891C47.0896 65.5197 46.9767 65.6577 47.008 65.9965C47.0331 66.3353 47.2025 66.7494 47.3719 66.9251C47.5476 67.1008 47.6605 66.9627 47.6229 66.6114ZM48.3444 63.3865C48.3193 63.0603 48.1876 62.6776 48.0433 62.5333C47.8989 62.389 47.7923 62.5333 47.8111 62.8533C47.8299 63.1795 47.968 63.5685 48.1185 63.7191C48.2691 63.8696 48.3695 63.7191 48.3444 63.3865ZM48.9593 59.8417C48.9718 59.5468 48.8777 59.2081 48.7522 59.0826C48.6267 58.9571 48.5138 59.0888 48.5013 59.3775C48.4887 59.6723 48.5891 60.0174 48.7146 60.1492C48.8463 60.2809 48.953 60.1429 48.9593 59.8417ZM49.8439 56.4098C49.9004 56.1652 49.8627 55.8765 49.7498 55.7636C49.6369 55.657 49.4925 55.7573 49.4361 56.002C49.3733 56.2467 49.4235 56.5416 49.5365 56.6545C49.6557 56.7675 49.7812 56.6545 49.8439 56.4098ZM51.3057 53.4611C51.4187 53.2791 51.4375 53.047 51.3371 52.9466C51.2304 52.8399 51.0422 52.9027 50.923 53.0846C50.8038 53.2666 50.7975 53.5112 50.9042 53.6116C51.0109 53.7183 51.1865 53.6493 51.3057 53.4611ZM53.5205 51.2401C53.7024 51.1208 53.7714 50.9452 53.671 50.8385C53.5644 50.7319 53.326 50.7381 53.1378 50.8573C52.9558 50.9765 52.8993 51.1648 52.9997 51.2714C53.1064 51.3781 53.3322 51.3593 53.5205 51.2401ZM56.4567 49.7657C56.7014 49.7092 56.8143 49.5774 56.7014 49.4645C56.5885 49.3516 56.2936 49.3014 56.0489 49.3641C55.8042 49.4206 55.7038 49.5649 55.8168 49.6778C55.9234 49.7908 56.212 49.8284 56.4567 49.7657ZM59.8886 48.8873C60.1898 48.881 60.3341 48.7681 60.2023 48.6363C60.0705 48.5046 59.7192 48.4042 59.418 48.4167C59.1232 48.4293 58.9914 48.5485 59.1169 48.674C59.2424 48.8057 59.5874 48.8936 59.8886 48.8873ZM63.4271 48.2662C63.7659 48.2913 63.9165 48.1909 63.7659 48.0403C63.6091 47.8834 63.2201 47.7391 62.8876 47.7266C62.5613 47.7078 62.4108 47.8144 62.5613 47.965C62.7056 48.1093 63.0946 48.2411 63.4271 48.2662ZM66.652 47.5447C67.0033 47.5823 67.1476 47.4694 66.972 47.2937C66.7963 47.1117 66.3697 46.9423 66.0246 46.9173C65.6858 46.8859 65.5478 47.0051 65.7172 47.1745C65.8866 47.3439 66.3069 47.507 66.652 47.5447ZM69.1679 46.3777C69.5192 46.4091 69.6384 46.271 69.4377 46.0703C69.2369 45.8695 68.7977 45.6875 68.4589 45.6687C68.1138 45.6436 67.9946 45.7817 68.1891 45.9762C68.3836 46.1706 68.8228 46.3463 69.1679 46.3777ZM70.6925 44.5582C71.025 44.5645 71.1191 44.3951 70.8932 44.1692C70.6674 43.9496 70.2219 43.7614 69.9019 43.7614C69.5757 43.7551 69.4878 43.9308 69.7012 44.1441C69.9208 44.3575 70.3599 44.5457 70.6925 44.5582ZM71.094 41.9859C71.4014 41.9671 71.4516 41.7537 71.2132 41.5153C70.9685 41.2706 70.5293 41.095 70.2282 41.1201C69.927 41.1452 69.8768 41.3585 70.109 41.5906C70.3474 41.829 70.7866 42.0047 71.094 41.9859ZM70.3599 38.7234C70.6423 38.6669 70.6548 38.416 70.3976 38.1587C70.1403 37.9015 69.7074 37.7384 69.4377 37.8011C69.1616 37.8576 69.149 38.1085 69.4 38.3595C69.651 38.6105 70.0776 38.7736 70.3599 38.7234ZM68.5907 34.9088C68.8416 34.8272 68.8291 34.5323 68.5593 34.2626C68.2895 33.9928 67.8691 33.8547 67.6245 33.9426C67.3798 34.0367 67.3986 34.319 67.6621 34.5825C67.9193 34.846 68.3397 34.9966 68.5907 34.9088ZM65.943 30.7554C66.1689 30.6425 66.125 30.3225 65.8489 30.0401C65.5666 29.7641 65.165 29.6386 64.9455 29.7641C64.7321 29.8833 64.7761 30.2033 65.0458 30.4731C65.3156 30.7428 65.7172 30.8746 65.943 30.7554ZM62.5864 26.4765C62.7872 26.3385 62.7182 25.9934 62.4421 25.7173C62.1661 25.4413 61.7833 25.3346 61.5951 25.4852C61.4006 25.6295 61.4697 25.9683 61.7394 26.2444C62.0155 26.5141 62.3919 26.6208 62.5864 26.4765ZM58.7342 22.3106C58.9036 22.1412 58.822 21.7835 58.5397 21.5012C58.2574 21.2252 57.8997 21.1373 57.7303 21.3067C57.5672 21.4824 57.6488 21.8463 57.9248 22.1161C58.2009 22.3921 58.5585 22.4737 58.7342 22.3106ZM53.0687 20.8613C53.2632 20.5977 53.1315 20.0896 52.7676 19.7257C52.4037 19.3618 51.9582 19.2928 51.77 19.5688C51.5881 19.8449 51.7261 20.3531 52.0774 20.7044C52.4288 21.0558 52.868 21.1248 53.0687 20.8613ZM49.0973 17.8811C49.2541 17.5799 49.091 17.0467 48.7334 16.689C48.382 16.3314 47.9742 16.3 47.8299 16.6137C47.6919 16.9337 47.855 17.467 48.1938 17.8058C48.5389 18.1509 48.9404 18.1823 49.0973 17.8811ZM45.2701 15.6726C45.3831 15.3338 45.2011 14.788 44.8623 14.4492C44.5235 14.1104 44.1722 14.123 44.0718 14.4743C43.9777 14.8257 44.1596 15.3715 44.4859 15.6915C44.8121 16.0177 45.1572 16.0052 45.2701 15.6726ZM41.8445 14.4367C41.9135 14.0665 41.7128 13.5018 41.3928 13.1881C41.0728 12.8682 40.7717 12.9246 40.7152 13.3073C40.6587 13.6963 40.8658 14.261 41.1669 14.5621C41.4744 14.8696 41.7755 14.8131 41.8445 14.4367ZM38.9898 14.2986C39.0212 13.8971 38.8079 13.3262 38.513 13.0313C38.2181 12.7364 37.9672 12.8431 37.9484 13.2634C37.9295 13.6838 38.1429 14.2484 38.4252 14.5245C38.7012 14.8068 38.9585 14.7064 38.9898 14.2986ZM36.7939 15.2837C36.8002 14.857 36.5869 14.2924 36.3234 14.0289C36.0536 13.7591 35.8528 13.9034 35.8591 14.3488C35.8654 14.788 36.0724 15.3464 36.3234 15.5974C36.5743 15.8483 36.7877 15.7103 36.7939 15.2837ZM35.2129 17.2725C35.2066 16.8396 35.0121 16.2938 34.78 16.0616C34.5478 15.8295 34.3722 16.0052 34.3847 16.4443C34.4035 16.8898 34.5855 17.4231 34.8051 17.6427C35.0309 17.8623 35.2129 17.6992 35.2129 17.2725ZM34.0522 20.008C34.0647 19.5939 33.9079 19.0857 33.7008 18.8849C33.5001 18.6842 33.3432 18.8661 33.337 19.2928C33.337 19.7131 33.4813 20.2025 33.6695 20.397C33.864 20.5915 34.0396 20.4158 34.0522 20.008ZM33.0107 23.1074C33.0609 22.7372 32.9542 22.2917 32.7848 22.1223C32.6092 21.9467 32.4398 22.1161 32.3959 22.4925C32.3519 22.8627 32.4398 23.2956 32.6029 23.4587C32.7723 23.6218 32.9542 23.4713 33.0107 23.1074ZM31.7496 26.1628C31.8626 25.8554 31.8186 25.4789 31.6681 25.3221C31.5112 25.1715 31.3104 25.3033 31.2038 25.617C31.0909 25.9244 31.116 26.282 31.2603 26.4326C31.4108 26.5832 31.6367 26.464 31.7496 26.1628ZM29.9866 28.8167C30.1748 28.5908 30.1999 28.2771 30.0619 28.1328C29.9176 27.9885 29.6604 28.0701 29.4722 28.3022C29.2839 28.5281 29.2337 28.8167 29.378 28.961C29.5161 29.1053 29.7984 29.0426 29.9866 28.8167ZM27.615 30.8746C27.8786 30.7303 27.9664 30.4793 27.8221 30.335C27.6778 30.1907 27.3515 30.2033 27.088 30.3476C26.812 30.4981 26.7053 30.724 26.8496 30.8683C27.0002 31.0189 27.3453 31.0252 27.615 30.8746ZM24.7165 32.3553C25.049 32.2737 25.187 32.0729 25.0302 31.9161C24.8733 31.7592 24.478 31.7028 24.1392 31.778C23.7879 31.8533 23.6373 32.0353 23.8004 32.1984C23.9636 32.3615 24.3714 32.4368 24.7165 32.3553ZM21.5794 33.4595C21.9622 33.4281 22.1316 33.2524 21.9559 33.0768C21.7739 32.9011 21.3159 32.7819 20.9207 32.8007C20.5191 32.8195 20.3372 32.9827 20.5254 33.1646C20.7136 33.3528 21.1842 33.4909 21.5794 33.4595ZM18.5993 34.5135C19.0196 34.5072 19.189 34.3316 18.9883 34.1308C18.7812 33.93 18.273 33.7606 17.8401 33.7544C17.4072 33.7418 17.2315 33.9049 17.4449 34.1183C17.6645 34.3378 18.1789 34.5135 18.5993 34.5135ZM16.1963 35.8499C16.623 35.8499 16.7735 35.6554 16.5414 35.4233C16.3093 35.1911 15.7634 34.9903 15.3305 34.9778C14.8851 34.9652 14.7282 35.1535 14.9792 35.3982C15.2239 35.6428 15.7697 35.8499 16.1963 35.8499ZM14.6906 37.7195C15.0984 37.707 15.2176 37.4749 14.9604 37.2113C14.6968 36.9541 14.1385 36.7408 13.7118 36.7471C13.2852 36.7471 13.166 36.9729 13.442 37.249C13.7181 37.5313 14.2765 37.7384 14.6906 37.7195ZM14.2639 40.2542C14.6529 40.2041 14.7282 39.9343 14.4396 39.6394C14.151 39.3508 13.5926 39.1437 13.1911 39.1814C12.7895 39.2128 12.7143 39.4888 13.0154 39.7962C13.3228 40.0974 13.8812 40.3044 14.2639 40.2542ZM14.9666 43.4163C15.318 43.3285 15.3493 43.0085 15.0356 42.6948C14.7219 42.3811 14.1761 42.1929 13.8122 42.2619C13.4483 42.3372 13.4169 42.6635 13.7432 42.9897C14.0694 43.316 14.6153 43.5042 14.9666 43.4163ZM16.7045 47.0678C17.0182 46.9361 17.0057 46.5722 16.6794 46.2397C16.3469 45.9134 15.8199 45.7377 15.4936 45.8569C15.1674 45.9761 15.1799 46.3463 15.5187 46.6914C15.8638 47.0302 16.3908 47.1996 16.7045 47.0678ZM19.3271 51.0016C19.5969 50.826 19.5467 50.4119 19.2079 50.0731C18.8691 49.7343 18.3609 49.59 18.0723 49.7468C17.7837 49.9037 17.8339 50.324 18.1915 50.6754C18.5428 51.0267 19.051 51.171 19.3271 51.0016ZM22.6209 54.9605C22.8531 54.7472 22.7715 54.2955 22.4264 53.9504C22.0814 53.6054 21.5983 53.4861 21.3473 53.6869C21.0963 53.8877 21.1842 54.3394 21.5418 54.697C21.8994 55.0547 22.3825 55.1676 22.6209 54.9605ZM26.354 58.6936C26.5547 58.4426 26.4355 57.9658 26.0905 57.6207C25.7454 57.2757 25.2999 57.1878 25.0866 57.4262C24.8733 57.6646 24.9862 58.1477 25.3439 58.4991C25.7015 58.8567 26.1532 58.9445 26.354 58.6936ZM30.2941 61.9686C30.4572 61.68 30.3066 61.1718 29.9678 60.833C29.629 60.4942 29.2149 60.444 29.0455 60.7201C28.8699 60.9961 29.0142 61.5043 29.3655 61.8557C29.7168 62.207 30.1372 62.2572 30.2941 61.9686ZM34.1839 64.5535C34.3032 64.2273 34.1275 63.694 33.8012 63.3677C33.475 63.0352 33.1048 63.0289 32.9731 63.3364C32.8413 63.6501 33.0107 64.1833 33.3495 64.5221C33.6946 64.8672 34.071 64.8798 34.1839 64.5535ZM37.7852 66.2412C37.8605 65.8711 37.666 65.3189 37.3523 64.999C37.0386 64.6853 36.7124 64.7166 36.6183 65.0743C36.5304 65.4256 36.7187 65.984 37.0512 66.3102C37.3837 66.6428 37.7099 66.6114 37.7852 66.2412ZM40.872 66.8624C40.9097 66.4545 40.6964 65.8899 40.4078 65.6013C40.1129 65.3064 39.8368 65.3817 39.7866 65.7707C39.7365 66.1659 39.9435 66.7306 40.2509 67.038C40.5583 67.3455 40.8344 67.2639 40.872 66.8624ZM43.3064 66.3416C43.3126 65.9087 43.0993 65.344 42.8358 65.0805C42.566 64.8108 42.3339 64.9362 42.3151 65.3503C42.3025 65.7707 42.5158 66.3353 42.7919 66.6177C43.0742 66.9 43.3064 66.7745 43.3064 66.3416ZM45.0756 64.7229C45.0631 64.2837 44.8623 63.7316 44.6239 63.4995C44.3918 63.2611 44.1973 63.4179 44.1973 63.8446C44.1973 64.2775 44.398 64.8296 44.649 65.0805C44.9 65.3315 45.0882 65.1746 45.0756 64.7229ZM46.3053 62.2133C46.2991 61.7741 46.1297 61.2534 45.9164 61.0463C45.7093 60.833 45.5336 61.0087 45.5274 61.4353C45.5274 61.8682 45.7093 62.4015 45.9289 62.6211C46.1485 62.847 46.3179 62.6588 46.3053 62.2133ZM47.259 59.139C47.2778 58.7312 47.1586 58.2607 46.9767 58.0787C46.7947 57.8968 46.6128 58.0662 46.5814 58.4677C46.55 58.8693 46.6943 59.3524 46.8826 59.5406C47.0771 59.7351 47.2339 59.5531 47.259 59.139ZM48.2817 55.9205C48.357 55.5691 48.3005 55.1676 48.1436 55.0045C47.9805 54.8476 47.7735 54.9856 47.6919 55.3307C47.6041 55.6821 47.6856 56.1024 47.855 56.2718C48.0182 56.4349 48.2064 56.2781 48.2817 55.9205ZM49.7121 52.9717C49.8564 52.6956 49.8753 52.3631 49.7247 52.2188C49.5804 52.0682 49.3232 52.1623 49.1663 52.4321C49.0157 52.7082 49.0283 53.0658 49.1788 53.2164C49.3294 53.3669 49.5553 53.254 49.7121 52.9717ZM51.7575 50.5876C51.9959 50.3931 52.0774 50.1295 51.9269 49.9852C51.7826 49.8409 51.4626 49.866 51.2305 50.0605C50.992 50.2488 50.9356 50.5374 51.0799 50.6879C51.2305 50.8322 51.5253 50.782 51.7575 50.5876ZM54.4428 48.8559C54.7627 48.743 54.9008 48.5422 54.7439 48.3791C54.5871 48.2222 54.1981 48.1783 53.8844 48.2975C53.5707 48.4105 53.4577 48.6426 53.6083 48.7995C53.7589 48.95 54.1291 48.9689 54.4428 48.8559ZM57.5672 47.6639C57.9499 47.6137 58.1256 47.4443 57.9499 47.2686C57.768 47.0866 57.3162 46.98 56.9398 47.0365C56.5634 47.0867 56.4065 47.2811 56.5759 47.4505C56.7453 47.6199 57.1845 47.7078 57.5672 47.6639ZM60.7607 46.7165C61.1936 46.7165 61.3818 46.5534 61.1748 46.3463C60.9677 46.1393 60.4595 45.9761 60.0392 45.995C59.6251 46.0075 59.4494 46.1832 59.6439 46.3777C59.8384 46.5722 60.3403 46.7228 60.7607 46.7165ZM63.6091 45.6687C64.0545 45.6813 64.2302 45.5056 63.9981 45.2672C63.7597 45.0288 63.2138 44.8343 62.7746 44.8343C62.3417 44.8343 62.1723 45.0162 62.3919 45.2421C62.6178 45.4617 63.1574 45.6499 63.6091 45.6687ZM65.7046 44.1943C66.1563 44.2006 66.3006 43.9936 66.0309 43.7238C65.7611 43.454 65.1901 43.2407 64.7572 43.247C64.3306 43.2595 64.1863 43.4728 64.4435 43.7238C64.6945 43.981 65.2592 44.1881 65.7046 44.1943ZM66.79 42.1051C67.2167 42.0863 67.3233 41.829 67.0222 41.5279C66.7273 41.233 66.1501 41.0197 65.736 41.051C65.3282 41.0824 65.2278 41.3396 65.5101 41.622C65.7924 41.9043 66.3697 42.1239 66.79 42.1051ZM66.7398 39.3382C67.1351 39.2818 67.1916 38.9743 66.8653 38.6481C66.5453 38.3281 65.9744 38.1211 65.598 38.1901C65.2215 38.2654 65.165 38.5665 65.4725 38.8802C65.7799 39.1877 66.3508 39.3947 66.7398 39.3382ZM65.5791 35.9816C65.9368 35.8813 65.943 35.5236 65.598 35.1786C65.2592 34.8335 64.707 34.6515 64.362 34.7645C64.0232 34.8774 64.0169 35.235 64.3432 35.5613C64.6694 35.8875 65.2215 36.0757 65.5791 35.9816ZM63.4271 32.211C63.7408 32.0667 63.7095 31.6651 63.3519 31.3075C62.9942 30.9499 62.4672 30.793 62.1598 30.9436C61.8649 31.1005 61.8963 31.502 62.2351 31.8471C62.5802 32.1921 63.1134 32.3553 63.4271 32.211ZM60.4784 28.2709C60.7544 28.0827 60.6791 27.6372 60.3152 27.2733C59.9513 26.9094 59.4431 26.7777 59.1796 26.9722C58.9161 27.1729 58.9914 27.6184 59.3428 27.9634C59.6941 28.3148 60.2023 28.4528 60.4784 28.2709ZM56.9461 24.4061C57.1845 24.1802 57.0778 23.6971 56.7077 23.3332C56.3438 22.9631 55.8607 22.8627 55.6411 23.1011C55.4152 23.3332 55.5219 23.8163 55.8732 24.1677C56.2308 24.519 56.7077 24.6257 56.9461 24.4061ZM51.6257 23.2203C51.8704 22.8878 51.7261 22.2666 51.2932 21.8337C50.8603 21.4071 50.3333 21.3444 50.1074 21.702C49.8815 22.0596 50.0321 22.6744 50.4399 23.0823C50.8477 23.4901 51.3748 23.5528 51.6257 23.2203ZM47.9742 20.6605C48.1687 20.2778 47.9868 19.6315 47.5727 19.2175C47.1586 18.8034 46.6881 18.7971 46.5187 19.1986C46.3493 19.6065 46.5312 20.2527 46.9202 20.6417C47.3155 21.0307 47.786 21.0369 47.9742 20.6605ZM44.5235 18.9791C44.6616 18.5461 44.4545 17.8811 44.0592 17.4858C43.6703 17.0906 43.2562 17.1408 43.1432 17.5925C43.024 18.0505 43.2374 18.7155 43.6012 19.0857C43.9714 19.4559 44.3855 19.4057 44.5235 18.9791ZM41.4932 18.3454C41.5873 17.8748 41.3614 17.1972 40.9975 16.8271C40.6336 16.4632 40.2823 16.5698 40.2133 17.0655C40.1443 17.5611 40.3639 18.2387 40.7089 18.5775C41.0477 18.9226 41.3991 18.8159 41.4932 18.3454ZM39.0275 18.8347C39.084 18.3328 38.8581 17.6615 38.5318 17.329C38.1993 16.9965 37.9044 17.1533 37.8668 17.6803C37.8354 18.2011 38.0487 18.8724 38.3562 19.1798C38.6636 19.4872 38.9647 19.3367 39.0275 18.8347ZM37.1139 20.3593C37.1641 19.8574 36.9571 19.2112 36.6685 18.9226C36.3799 18.634 36.1352 18.8285 36.1038 19.3492C36.0787 19.87 36.2669 20.5036 36.5367 20.7734C36.8065 21.0432 37.07 20.8613 37.1139 20.3593ZM35.6207 22.6933C35.6834 22.2102 35.5203 21.6079 35.2694 21.3569C35.0184 21.1059 34.7925 21.313 34.7423 21.8149C34.6921 22.3043 34.8364 22.894 35.0686 23.1262C35.3007 23.3646 35.558 23.1701 35.6207 22.6933ZM34.2592 25.4538C34.3722 25.0147 34.2655 24.4751 34.0459 24.2555C33.8326 24.0422 33.5879 24.2304 33.4875 24.6821C33.3934 25.1213 33.4624 25.6358 33.6695 25.8428C33.8765 26.0499 34.1463 25.8805 34.2592 25.4538ZM32.7096 28.227C32.8915 27.8631 32.8664 27.3988 32.6719 27.2043C32.4774 27.0098 32.1951 27.1604 32.0131 27.5305C31.8375 27.8944 31.8249 28.3273 32.0194 28.5156C32.2076 28.7038 32.5276 28.5783 32.7096 28.227ZM30.7332 30.6738C31.0093 30.404 31.0595 30.0213 30.8713 29.8331C30.6893 29.6449 30.338 29.739 30.0682 30.0088C29.7984 30.2786 29.7043 30.6236 29.8925 30.8118C30.0745 30.9938 30.4635 30.9436 30.7332 30.6738ZM28.2801 32.6439C28.6377 32.4619 28.7569 32.1419 28.5687 31.9537C28.3805 31.7655 27.9476 31.7718 27.5837 31.9474C27.2135 32.1231 27.0629 32.4054 27.2574 32.5999C27.4519 32.8007 27.9162 32.8258 28.2801 32.6439ZM25.5007 34.1873C25.9273 34.0743 26.103 33.8046 25.896 33.5975C25.6889 33.3905 25.1682 33.3215 24.729 33.4156C24.2835 33.5159 24.0891 33.7544 24.3086 33.974C24.522 34.1935 25.0615 34.3002 25.5007 34.1873ZM22.7339 35.5425C23.2044 35.4797 23.3989 35.2288 23.1668 34.9966C22.9284 34.7645 22.3511 34.6264 21.8618 34.6704C21.3661 34.7143 21.1591 34.9464 21.4038 35.1911C21.6547 35.4421 22.2508 35.6052 22.7339 35.5425ZM20.3999 37.0357C20.8956 36.9855 21.0775 36.7282 20.8077 36.4585C20.5442 36.195 19.9106 36.0067 19.3961 36.0318C18.8816 36.0569 18.6871 36.3079 18.9757 36.5902C19.2581 36.8788 19.898 37.0796 20.3999 37.0357ZM18.8691 38.9367C19.3584 38.8802 19.509 38.5854 19.2016 38.2842C18.9004 37.9831 18.2479 37.7697 17.7335 37.8011C17.219 37.8387 17.0684 38.1274 17.3884 38.4536C17.7146 38.7736 18.3797 38.9932 18.8691 38.9367ZM18.3797 41.4087C18.844 41.3146 18.9444 40.9695 18.6056 40.637C18.273 40.2982 17.608 40.0848 17.1249 40.1539C16.6355 40.2166 16.5351 40.5617 16.8928 40.9193C17.2504 41.2769 17.9154 41.4965 18.3797 41.4087ZM19.0134 44.439C19.4337 44.301 19.4839 43.8994 19.12 43.5356C18.7561 43.1717 18.1036 42.9709 17.6582 43.0838C17.2127 43.1968 17.1625 43.5983 17.5515 43.9873C17.9342 44.37 18.593 44.577 19.0134 44.439ZM20.7011 47.9023C21.0838 47.7141 21.0712 47.2435 20.6885 46.8608C20.2995 46.4718 19.6596 46.2899 19.2581 46.4593C18.8565 46.6224 18.8628 47.0929 19.2769 47.5007C19.6847 47.9148 20.3246 48.0905 20.7011 47.9023ZM23.2609 51.5475C23.5871 51.3028 23.5244 50.782 23.1291 50.3868C22.7276 49.9852 22.119 49.8347 21.7739 50.0543C21.4226 50.2738 21.4791 50.8009 21.9057 51.2212C22.3261 51.6479 22.9346 51.7922 23.2609 51.5475ZM26.4481 55.0986C26.7241 54.8037 26.6175 54.239 26.2097 53.8312C25.8081 53.4297 25.2372 53.323 24.9423 53.5928C24.6474 53.8689 24.7478 54.4398 25.1745 54.8664C25.6074 55.2931 26.172 55.3997 26.4481 55.0986ZM29.9866 58.2732C30.2062 57.9219 30.0619 57.3196 29.6604 56.918C29.2588 56.5165 28.7444 56.46 28.4997 56.78C28.255 57.1125 28.3993 57.7148 28.8197 58.1415C29.2463 58.5618 29.767 58.6246 29.9866 58.2732ZM33.5879 60.7828C33.751 60.3876 33.5754 59.7476 33.1864 59.3586C32.7974 58.9696 32.3331 58.9634 32.1449 59.3398C31.9567 59.7163 32.1323 60.3562 32.5402 60.7703C32.9542 61.1781 33.4248 61.1844 33.5879 60.7828ZM36.9696 62.3953C37.0825 61.9435 36.8755 61.2848 36.5116 60.9209C36.1414 60.5507 35.7399 60.6009 35.6019 61.0275C35.4638 61.4542 35.6646 62.1129 36.0536 62.5019C36.4489 62.8909 36.8567 62.847 36.9696 62.3953ZM39.8996 62.9285C39.9686 62.4392 39.749 61.7679 39.4102 61.4291C39.0714 61.0903 38.7263 61.1906 38.6322 61.6612C38.5444 62.1255 38.764 62.8031 39.1279 63.1607C39.4855 63.5246 39.8368 63.4179 39.8996 62.9285ZM42.2586 62.3262C42.29 61.8055 42.0767 61.1342 41.7692 60.8267C41.4618 60.5193 41.1607 60.6699 41.0979 61.1655C41.0414 61.6675 41.261 62.3451 41.5936 62.6776C41.9261 63.0038 42.221 62.847 42.2586 62.3262ZM44.0279 60.6636C44.053 60.1366 43.8648 59.4967 43.595 59.2206C43.3189 58.9508 43.0554 59.1328 43.0052 59.641C42.955 60.1492 43.1621 60.8017 43.4569 61.0965C43.7455 61.3851 43.9965 61.1906 44.0279 60.6636ZM45.3893 58.1979C45.4395 57.696 45.2952 57.1063 45.0568 56.8678C44.8184 56.6294 44.5674 56.8239 44.4984 57.307C44.4357 57.7964 44.5988 58.405 44.8561 58.6622C45.107 58.9194 45.3391 58.7061 45.3893 58.1979ZM46.6379 55.3244C46.7383 54.879 46.663 54.3582 46.4559 54.1512C46.2489 53.9442 45.9728 54.1136 45.8599 54.5465C45.747 54.9856 45.8536 55.5315 46.0732 55.7573C46.2928 55.9769 46.5375 55.7824 46.6379 55.3244ZM48.1123 52.476C48.2879 52.1059 48.3005 51.6667 48.106 51.4722C47.9115 51.2777 47.5915 51.4032 47.4033 51.7671C47.2151 52.1372 47.2464 52.6078 47.4409 52.8086C47.6417 53.0093 47.9303 52.8525 48.1123 52.476ZM50.0509 49.9915C50.327 49.7155 50.4211 49.3578 50.2329 49.1696C50.0384 48.9814 49.6431 49.0316 49.3671 49.3077C49.0973 49.59 49.0408 49.979 49.229 50.1735C49.4235 50.3617 49.7749 50.2676 50.0509 49.9915ZM52.5292 48.0466C52.9056 47.8646 53.0562 47.576 52.8617 47.3753C52.6609 47.1745 52.1904 47.1494 51.8202 47.3376C51.4563 47.5196 51.3308 47.8458 51.5253 48.0403C51.7198 48.2348 52.159 48.2222 52.5292 48.0466ZM55.3776 46.5722C55.8356 46.4655 56.0301 46.2208 55.8105 46.0012C55.5846 45.7754 55.0388 45.6687 54.5933 45.7879C54.1541 45.9009 53.9785 46.1769 54.1918 46.3902C54.4051 46.5973 54.9258 46.6726 55.3776 46.5722ZM58.2448 45.3174C58.7593 45.2672 58.9726 45.035 58.7154 44.7778C58.4581 44.5206 57.8433 44.3512 57.3476 44.4202C56.8645 44.4829 56.67 44.7464 56.9084 44.9849C57.1469 45.2233 57.7429 45.3676 58.2448 45.3174ZM60.7105 43.9559C61.2438 43.9245 61.4383 43.6736 61.1434 43.3787C60.8485 43.0838 60.1898 42.8768 59.6753 42.9207C59.1671 42.9709 58.9851 43.2407 59.2549 43.5167C59.531 43.7928 60.1772 43.981 60.7105 43.9559ZM62.3731 42.1866C62.9001 42.149 63.0633 41.8478 62.7307 41.5153C62.3919 41.1828 61.7143 40.9569 61.2061 41.0197C60.7042 41.0761 60.5474 41.3836 60.8611 41.691C61.1685 42.0047 61.8461 42.218 62.3731 42.1866ZM62.988 39.8402C63.4836 39.7711 63.5965 39.4198 63.2264 39.0496C62.8562 38.6795 62.1723 38.4536 61.6955 38.5477C61.2187 38.6418 61.112 38.9994 61.4571 39.3382C61.8022 39.6833 62.486 39.9092 62.988 39.8402ZM62.4547 36.9102C62.9189 36.7973 62.9629 36.3769 62.5676 35.9816C62.1723 35.5864 61.4947 35.3731 61.0618 35.5174C60.6289 35.6554 60.5787 36.0695 60.9552 36.4459C61.3253 36.8161 61.9967 37.0294 62.4547 36.9102ZM60.8485 33.5348C61.2626 33.3654 61.2501 32.8885 60.836 32.4682C60.4156 32.0478 59.7631 31.8659 59.3804 32.0604C58.9977 32.2549 59.004 32.7317 59.3992 33.127C59.7882 33.5159 60.4407 33.7042 60.8485 33.5348ZM58.3452 29.9398C58.7028 29.7139 58.6401 29.1806 58.2072 28.7477C57.7743 28.3211 57.1594 28.1705 56.8269 28.4214C56.4944 28.6661 56.5508 29.1994 56.9586 29.6072C57.3664 30.015 57.9876 30.1656 58.3452 29.9398ZM55.1768 26.4012C55.478 26.1252 55.3713 25.5417 54.9384 25.1088C54.4992 24.6696 53.922 24.5629 53.6397 24.8704C53.3636 25.1715 53.4703 25.7487 53.8844 26.1628C54.2922 26.5769 54.8694 26.6835 55.1768 26.4012ZM50.1827 25.5166C50.4776 25.1213 50.3395 24.4124 49.8627 23.9418C49.3922 23.465 48.7899 23.4336 48.5264 23.8665C48.2691 24.2994 48.4071 25.0021 48.8463 25.4413C49.2855 25.8742 49.8815 25.9118 50.1827 25.5166ZM46.8637 23.4211C47.0959 22.9631 46.9202 22.2164 46.4622 21.7647C46.0042 21.3067 45.4772 21.3381 45.2764 21.8337C45.0819 22.3294 45.2576 23.0634 45.6779 23.4838C46.0983 23.9042 46.6253 23.8791 46.8637 23.4211ZM43.7518 22.2855C43.9275 21.7773 43.7205 21.0118 43.2938 20.5852C42.8672 20.1586 42.4092 20.2527 42.2649 20.8048C42.1269 21.3506 42.3276 22.1035 42.7166 22.4988C43.1119 22.8878 43.5761 22.7999 43.7518 22.2855ZM41.054 22.2541C41.1857 21.7083 40.9787 20.9491 40.5897 20.5601C40.2007 20.1774 39.818 20.3342 39.7114 20.9177C39.611 21.4887 39.8117 22.2415 40.1631 22.5929C40.5207 22.9442 40.9222 22.7937 41.054 22.2541ZM38.8518 23.3081C38.971 22.7497 38.7765 22.0094 38.4315 21.6643C38.0864 21.3255 37.7539 21.5326 37.666 22.1223C37.5782 22.6995 37.7476 23.4211 38.0613 23.7348C38.375 24.0485 38.7389 23.8602 38.8518 23.3081ZM37.0449 25.2342C37.1767 24.6947 37.0261 24.0045 36.7249 23.7034C36.4238 23.4022 36.1101 23.6281 36.0034 24.1928C35.8968 24.7511 36.0097 25.4162 36.2857 25.6923C36.5618 25.9683 36.9131 25.7675 37.0449 25.2342ZM35.3823 27.6686C35.5642 27.1792 35.4827 26.5643 35.2192 26.3008C34.9557 26.0373 34.6294 26.2444 34.4663 26.7526C34.2969 27.2482 34.3408 27.838 34.5855 28.0827C34.8302 28.3273 35.2003 28.1517 35.3823 27.6686ZM33.5816 30.2033C33.8451 29.7955 33.8451 29.2559 33.6067 29.0175C33.3683 28.7853 32.9982 28.9485 32.7409 29.3626C32.49 29.7704 32.4398 30.2597 32.6656 30.4919C32.8978 30.724 33.3181 30.6048 33.5816 30.2033ZM31.4485 32.4996C31.7998 32.1921 31.8814 31.7404 31.6618 31.5145C31.4359 31.2887 30.9842 31.3765 30.6329 31.6777C30.2752 31.9851 30.1435 32.3866 30.3693 32.6188C30.6015 32.8446 31.0971 32.807 31.4485 32.4996ZM28.9953 34.4445C29.4408 34.2312 29.5914 33.8422 29.353 33.6038C29.1208 33.3717 28.5812 33.3716 28.1295 33.5787C27.6715 33.7857 27.4833 34.1245 27.728 34.3755C27.9727 34.6202 28.5499 34.6641 28.9953 34.4445ZM26.4606 36.1385C26.9688 35.9879 27.157 35.6366 26.8998 35.3793C26.6426 35.1221 26.0214 35.0405 25.4944 35.166C24.9549 35.304 24.7353 35.6115 25.0113 35.8938C25.2937 36.1699 25.9462 36.2891 26.4606 36.1385ZM24.2271 37.8325C24.7666 37.7133 24.9674 37.3682 24.6725 37.0796C24.3839 36.7847 23.6875 36.6341 23.1229 36.7282C22.5394 36.8224 22.3261 37.1423 22.646 37.4623C22.9597 37.776 23.675 37.9517 24.2271 37.8325ZM22.6962 39.8151C23.2421 39.6959 23.4177 39.3194 23.0852 38.9869C22.7527 38.6544 22.0186 38.4724 21.4414 38.5603C20.8579 38.6481 20.6697 39.0057 21.0336 39.3696C21.3975 39.7335 22.1441 39.9343 22.6962 39.8151ZM22.1692 42.2619C22.6899 42.1114 22.8154 41.6847 22.4453 41.3146C22.0751 40.9444 21.3285 40.7436 20.7701 40.8628C20.2117 40.982 20.08 41.3961 20.4878 41.7977C20.8893 42.2055 21.6422 42.4125 22.1692 42.2619ZM22.759 45.1856C23.2358 44.9849 23.2985 44.4955 22.897 44.0939C22.4955 43.6924 21.7551 43.5042 21.2406 43.6673C20.7325 43.8367 20.6634 44.3198 21.1026 44.759C21.5355 45.1919 22.2821 45.3864 22.759 45.1856ZM24.4028 48.4356C24.8231 48.1721 24.8231 47.6199 24.3965 47.1933C23.9698 46.7729 23.2609 46.6098 22.8029 46.8357C22.3449 47.0616 22.3511 47.6199 22.8092 48.0779C23.2672 48.5359 23.9824 48.6991 24.4028 48.4356ZM26.8935 51.7482C27.2512 51.422 27.1884 50.8009 26.7492 50.368C26.3163 49.9288 25.645 49.8158 25.2497 50.1045C24.8608 50.3993 24.9235 51.0142 25.394 51.4847C25.8646 51.9616 26.5359 52.0745 26.8935 51.7482ZM29.949 54.7974C30.2439 54.4022 30.1247 53.7308 29.6855 53.2917C29.2463 52.8525 28.6252 52.7835 28.2926 53.1411C27.9601 53.505 28.0793 54.1826 28.5499 54.6594C29.0267 55.1362 29.6541 55.199 29.949 54.7974ZM33.2177 57.2506C33.4436 56.7863 33.2805 56.071 32.8539 55.6444C32.4272 55.2178 31.8688 55.2115 31.6053 55.6381C31.3418 56.0585 31.4987 56.78 31.9629 57.2443C32.4272 57.7086 32.9856 57.7086 33.2177 57.2506ZM36.3861 58.8065C36.5493 58.292 36.361 57.5454 35.9595 57.1439C35.5517 56.7361 35.056 56.7988 34.8553 57.2819C34.6545 57.765 34.849 58.5116 35.2882 58.9508C35.7274 59.3963 36.2167 59.3273 36.3861 58.8065ZM39.1906 59.2833C39.3098 58.725 39.1091 57.9658 38.7326 57.5956C38.3624 57.2255 37.9295 57.3447 37.779 57.8717C37.6284 58.405 37.8417 59.1641 38.2432 59.5719C38.651 59.9798 39.0714 59.848 39.1906 59.2833ZM41.4994 58.6183C41.5873 58.0285 41.3991 57.2882 41.0665 56.9494C40.7277 56.6106 40.345 56.7863 40.2258 57.3384C40.1003 57.9031 40.3074 58.6622 40.6776 59.0324C41.0477 59.3963 41.4116 59.2143 41.4994 58.6183ZM43.3315 56.9369C43.4256 56.3596 43.275 55.657 42.9801 55.3621C42.679 55.0609 42.3276 55.2617 42.2084 55.8138C42.0829 56.3785 42.2649 57.1 42.5849 57.4262C42.9111 57.7462 43.2374 57.5266 43.3315 56.9369ZM44.8874 54.5653C45.0254 54.032 44.9376 53.3983 44.6804 53.1348C44.4169 52.8713 44.0592 53.0658 43.9087 53.5803C43.7518 54.1073 43.871 54.7723 44.1534 55.0547C44.4357 55.337 44.7557 55.1111 44.8874 54.5653ZM46.481 51.9302C46.6881 51.4659 46.6943 50.9201 46.4559 50.6817C46.2175 50.4495 45.8222 50.6001 45.6027 51.0456C45.3768 51.5036 45.4207 52.087 45.6717 52.338C45.9226 52.589 46.2677 52.3945 46.481 51.9302ZM48.3758 49.4269C48.6832 49.0692 48.7773 48.6112 48.5514 48.3854C48.3193 48.1532 47.855 48.2348 47.5476 48.5987C47.2339 48.9563 47.1963 49.4582 47.4284 49.6904C47.6605 49.9225 48.0683 49.7908 48.3758 49.4269ZM50.6972 47.3125C51.1112 47.0553 51.2744 46.6788 51.036 46.4404C50.7975 46.202 50.258 46.202 49.8502 46.4655C49.4424 46.729 49.3232 47.1557 49.5553 47.3878C49.7874 47.6199 50.2831 47.5698 50.6972 47.3125ZM53.3072 45.5934C53.8216 45.424 54.0349 45.0978 53.7652 44.828C53.5016 44.5645 52.868 44.4767 52.3723 44.6649C51.8892 44.8468 51.7073 45.2233 51.9582 45.4742C52.2092 45.7252 52.8052 45.7628 53.3072 45.5934ZM55.867 44.0563C56.4379 43.9434 56.67 43.6297 56.3626 43.3222C56.0614 43.0148 55.3588 42.8642 54.8066 43.0023C54.2671 43.134 54.06 43.4854 54.3424 43.7677C54.6247 44.05 55.3023 44.1692 55.867 44.0563ZM57.9374 42.3937C58.5397 42.3059 58.7467 41.9608 58.4017 41.6157C58.0503 41.2644 57.2974 41.0699 56.7328 41.1891C56.1681 41.3083 55.9799 41.6722 56.2936 41.9921C56.6136 42.3121 57.3476 42.4815 57.9374 42.3937ZM59.142 40.3484C59.7317 40.2417 59.8949 39.8464 59.5059 39.4574C59.1106 39.0622 58.3389 38.8489 57.7805 38.9869C57.2347 39.1186 57.0841 39.5265 57.4417 39.8904C57.7994 40.248 58.5585 40.4487 59.142 40.3484ZM59.2486 37.7886C59.8008 37.6443 59.9011 37.18 59.4682 36.7471C59.0416 36.3204 58.2699 36.1134 57.7554 36.2891C57.241 36.471 57.1469 36.9353 57.5421 37.3306C57.9374 37.7258 58.7028 37.9266 59.2486 37.7886ZM58.2197 34.777C58.7154 34.5763 58.753 34.043 58.2887 33.5787C57.8307 33.1207 57.0841 32.9387 56.6198 33.1772C56.1618 33.4156 56.1305 33.9489 56.5571 34.3755C56.9775 34.7959 57.7241 34.9778 58.2197 34.777ZM56.1869 31.5208C56.6198 31.2573 56.5885 30.655 56.1116 30.1782C55.6348 29.7013 54.9196 29.557 54.5243 29.8582C54.1228 30.1594 54.1604 30.7617 54.5996 31.2071C55.0388 31.6463 55.754 31.7906 56.1869 31.5208ZM53.395 28.3211C53.7652 27.9885 53.671 27.336 53.1942 26.8529C52.7111 26.3761 52.0523 26.282 51.7261 26.6459C51.3936 27.0161 51.4877 27.6686 51.9331 28.114C52.3723 28.5595 53.0311 28.6536 53.395 28.3211ZM48.7208 27.7689C49.0785 27.3047 48.9593 26.5267 48.4573 26.0248C47.9554 25.5229 47.3029 25.5291 46.9955 26.0373C46.6881 26.5455 46.801 27.3172 47.2527 27.7752C47.7107 28.227 48.3632 28.2207 48.7208 27.7689ZM45.703 26.144C45.9854 25.617 45.8285 24.8013 45.3517 24.3245C44.8749 23.8477 44.2977 23.9293 44.0592 24.5002C43.8208 25.0711 43.9714 25.8805 44.398 26.3134C44.831 26.7463 45.4144 26.671 45.703 26.144ZM42.8735 25.573C43.1056 25.0021 42.9299 24.1739 42.4907 23.7348C42.0516 23.2956 41.5559 23.4524 41.3677 24.0673C41.1795 24.6821 41.3363 25.4915 41.7316 25.8867C42.1269 26.282 42.6413 26.144 42.8735 25.573ZM40.4203 26.1252C40.6274 25.5291 40.458 24.7198 40.069 24.3245C39.6737 23.9355 39.2408 24.1426 39.0714 24.7762C38.9083 25.4036 39.0463 26.1942 39.3977 26.5455C39.749 26.8969 40.2195 26.7149 40.4203 26.1252ZM38.3248 27.6435C38.5381 27.06 38.4126 26.2946 38.0738 25.9495C37.7288 25.6044 37.321 25.8366 37.1327 26.4514C36.9508 27.0537 37.0323 27.7878 37.3461 28.1015C37.6598 28.4152 38.1115 28.2144 38.3248 27.6435ZM36.3924 29.7766C36.6622 29.2496 36.6057 28.5532 36.3046 28.252C35.9971 27.9446 35.5831 28.1642 35.3321 28.7163C35.0874 29.2559 35.0874 29.9021 35.3697 30.1907C35.6583 30.4731 36.1289 30.2974 36.3924 29.7766ZM34.3847 32.1043C34.7298 31.6651 34.7612 31.0628 34.4851 30.7868C34.209 30.5107 33.7448 30.6801 33.406 31.1256C33.0672 31.571 32.9731 32.1168 33.2428 32.3866C33.5126 32.6564 34.0396 32.5435 34.3847 32.1043ZM32.1637 34.319C32.6029 33.974 32.7158 33.4532 32.446 33.1834C32.1763 32.9136 31.6304 33.0015 31.185 33.3403C30.7332 33.6791 30.5701 34.1434 30.8399 34.4194C31.116 34.6955 31.7245 34.6641 32.1637 34.319ZM29.8298 36.3204C30.3442 36.0632 30.5199 35.5927 30.2376 35.3103C29.9553 35.028 29.309 35.028 28.7757 35.2664C28.2236 35.5174 28.0103 35.9252 28.3115 36.2326C28.6126 36.5338 29.2965 36.5902 29.8298 36.3204ZM27.6903 38.2528C28.2613 38.0395 28.4558 37.5941 28.1483 37.2804C27.8346 36.9667 27.1069 36.8851 26.5045 37.067C25.896 37.249 25.6638 37.6568 26.0089 37.9956C26.3477 38.3407 27.1069 38.4662 27.6903 38.2528ZM26.172 40.3484C26.7555 40.1413 26.9437 39.6833 26.5861 39.3257C26.2348 38.9743 25.4568 38.8426 24.8294 39.0057C24.1957 39.1688 23.9949 39.6017 24.3839 39.997C24.7729 40.386 25.576 40.5491 26.172 40.3484ZM25.6199 42.7952C26.1846 42.5694 26.3226 42.0612 25.9273 41.6659C25.5384 41.2769 24.729 41.1201 24.1204 41.302C23.5118 41.4902 23.3613 41.9796 23.7942 42.4188C24.2271 42.8517 25.049 43.0274 25.6199 42.7952ZM26.1908 45.6248C26.7053 45.3425 26.7806 44.7653 26.354 44.3386C25.9273 43.912 25.1305 43.7677 24.5659 43.9998C24.0012 44.2382 23.9197 44.8029 24.3902 45.2797C24.8608 45.7503 25.6701 45.9071 26.1908 45.6248ZM27.8095 48.6489C28.2613 48.2975 28.2675 47.645 27.8158 47.1996C27.3704 46.7541 26.6049 46.6349 26.103 46.9423C25.6011 47.2435 25.5948 47.8897 26.0905 48.3854C26.5861 48.881 27.3578 49.0002 27.8095 48.6489ZM30.2376 51.5475C30.614 51.1208 30.5513 50.4056 30.0933 49.9539C29.6416 49.4959 28.9263 49.4331 28.4997 49.8096C28.0731 50.1923 28.1358 50.9075 28.6377 51.4095C29.1396 51.9114 29.8549 51.9741 30.2376 51.5475ZM33.1048 53.9442C33.4122 53.4422 33.293 52.6768 32.8476 52.2313C32.4021 51.7859 31.7496 51.7859 31.3983 52.2376C31.0469 52.6894 31.1661 53.4611 31.6618 53.9567C32.1574 54.4523 32.8037 54.4461 33.1048 53.9442ZM36.0536 55.4876C36.292 54.9229 36.1414 54.1198 35.7148 53.6869C35.2819 53.2603 34.7047 53.3293 34.4161 53.8563C34.1338 54.3771 34.2906 55.1864 34.7674 55.6632C35.2443 56.1401 35.8152 56.0585 36.0536 55.4876ZM38.7514 55.933C38.9397 55.3182 38.7828 54.5088 38.3875 54.1136C37.9923 53.7183 37.4778 53.8563 37.2457 54.4273C37.0135 54.9982 37.1892 55.8201 37.6284 56.2593C38.0676 56.6984 38.5632 56.5479 38.7514 55.933ZM41.0477 55.224C41.2171 54.5966 41.0791 53.8061 40.7215 53.4548C40.3701 53.1034 39.9058 53.2854 39.6988 53.8751C39.4918 54.4712 39.6612 55.2805 40.0502 55.6758C40.4454 56.0648 40.8846 55.864 41.0477 55.224ZM42.9864 53.5489C43.1683 52.9466 43.0868 52.2125 42.7731 51.8988C42.4594 51.5851 42.0139 51.7796 41.7943 52.3568C41.581 52.9403 41.7065 53.7057 42.0516 54.0508C42.3966 54.3959 42.8044 54.1637 42.9864 53.5489ZM44.7933 51.284C45.0317 50.7444 45.0317 50.0856 44.7494 49.8033C44.4608 49.5147 43.9902 49.6904 43.7205 50.2174C43.4507 50.7507 43.5071 51.4471 43.8146 51.7545C44.122 52.0619 44.5423 51.8424 44.7933 51.284ZM46.7194 48.8747C47.0582 48.423 47.1523 47.8646 46.8826 47.5948C46.6065 47.3251 46.0732 47.438 45.7281 47.8834C45.3768 48.3289 45.3454 48.9438 45.6278 49.2198C45.9038 49.5021 46.3744 49.3328 46.7194 48.8747ZM48.9342 46.6537C49.3859 46.3087 49.5553 45.8381 49.2792 45.5621C48.9969 45.2797 48.3883 45.3111 47.9429 45.6624C47.4974 46.0138 47.3845 46.5471 47.6543 46.8169C47.924 47.0867 48.4824 46.9988 48.9342 46.6537ZM51.3371 44.7213C51.8955 44.4704 52.1151 44.0563 51.8077 43.7489C51.5002 43.4414 50.8038 43.385 50.2705 43.6548C49.7498 43.9245 49.5741 44.3951 49.8564 44.6837C50.145 44.966 50.7975 44.966 51.3371 44.7213ZM53.602 42.9207C54.2232 42.7325 54.4553 42.3247 54.1102 41.9796C53.7589 41.6283 52.9935 41.5028 52.4037 41.7224C51.8265 41.942 51.6257 42.3937 51.9457 42.7074C52.2594 43.0274 52.9935 43.1089 53.602 42.9207ZM55.2772 40.982C55.9171 40.8126 56.1242 40.3735 55.7289 39.9782C55.3337 39.5829 54.518 39.4198 53.922 39.6268C53.326 39.8339 53.144 40.2982 53.4954 40.6558C53.853 41.0134 54.6435 41.1514 55.2772 40.982ZM55.9862 38.6857C56.6073 38.4975 56.7579 37.9956 56.3187 37.5564C55.8795 37.1172 55.0451 36.9416 54.4678 37.1737C53.8969 37.4058 53.7589 37.9203 54.1541 38.3218C54.5557 38.7171 55.3713 38.874 55.9862 38.6857ZM55.547 35.9942C56.1179 35.7495 56.1995 35.1723 55.7227 34.6955C55.2458 34.2186 54.4302 34.0618 53.9032 34.3441C53.3762 34.6327 53.3072 35.2162 53.7338 35.6491C54.1667 36.082 54.976 36.2263 55.547 35.9942ZM54.0098 33.0517C54.518 32.7442 54.5243 32.0917 54.0224 31.5898C53.5205 31.0879 52.7425 30.9687 52.2845 31.3263C51.8265 31.6839 51.8202 32.3364 52.2719 32.7944C52.7299 33.2462 53.5016 33.3591 54.0098 33.0517ZM51.6194 30.1844C52.0523 29.8017 51.9896 29.0802 51.4814 28.5658C50.9669 28.0576 50.2454 27.9948 49.8627 28.4277C49.48 28.8606 49.5427 29.5821 50.0007 30.0464C50.465 30.5044 51.1865 30.5672 51.6194 30.1844ZM47.2214 29.9649C47.6417 29.4441 47.5602 28.6097 47.0457 28.0952C46.5312 27.5807 45.8285 27.6372 45.4709 28.2144C45.1133 28.7853 45.1886 29.6135 45.6403 30.0715C46.092 30.5232 46.801 30.4793 47.2214 29.9649ZM44.4357 28.8355C44.787 28.2521 44.6741 27.3862 44.191 26.9094C43.7142 26.4263 43.093 26.5581 42.7982 27.198C42.5096 27.8254 42.6037 28.6724 43.0303 29.099C43.4569 29.5257 44.0906 29.4127 44.4357 28.8355ZM41.8194 28.8418C42.1269 28.227 42.0076 27.3674 41.5747 26.9282C41.1356 26.489 40.5897 26.6898 40.3325 27.3549C40.069 28.0136 40.1568 28.8481 40.5458 29.2371C40.9348 29.6261 41.512 29.4567 41.8194 28.8418ZM39.4729 29.9272C39.7804 29.3186 39.6988 28.503 39.3098 28.114C38.9271 27.7313 38.4252 27.9634 38.1491 28.6097C37.8793 29.2433 37.917 30.0276 38.2621 30.3727C38.6134 30.724 39.1655 30.5295 39.4729 29.9272ZM37.3021 31.7843C37.6598 31.2197 37.6409 30.4731 37.3021 30.128C36.9571 29.7892 36.4489 30.0088 36.1163 30.5923C35.7838 31.1632 35.7399 31.8659 36.0599 32.1859C36.3799 32.5058 36.9508 32.3364 37.3021 31.7843ZM35.1376 33.9677C35.5705 33.4909 35.6332 32.8195 35.3195 32.5058C35.0058 32.1921 34.4412 32.3615 34.0083 32.8384C33.5816 33.3215 33.4499 33.9238 33.7636 34.2375C34.071 34.5512 34.7047 34.4445 35.1376 33.9677ZM32.9166 36.1699C33.4311 35.7809 33.5754 35.1786 33.2617 34.8649C32.948 34.5574 32.2955 34.6453 31.7684 35.0154C31.2289 35.3982 31.0281 35.9252 31.3544 36.2514C31.6806 36.5777 32.3959 36.5588 32.9166 36.1699ZM30.8399 38.3093C31.4171 37.9831 31.5991 37.4309 31.2728 37.0984C30.9403 36.7722 30.1999 36.7722 29.5914 37.0608C28.9765 37.3619 28.7506 37.8576 29.1083 38.2215C29.4659 38.5791 30.2501 38.6293 30.8399 38.3093ZM29.3153 40.5366C29.9176 40.2417 30.1058 39.6833 29.7419 39.3194C29.3718 38.9555 28.5687 38.8928 27.9225 39.1437C27.2637 39.4073 27.0504 39.9217 27.4519 40.3295C27.8597 40.7373 28.7005 40.8377 29.3153 40.5366ZM28.7381 43.0211C29.3279 42.7011 29.4722 42.1051 29.0706 41.7035C28.6628 41.2957 27.8284 41.2016 27.1884 41.4714C26.5422 41.7412 26.3728 42.3121 26.8308 42.7639C27.2825 43.2219 28.1421 43.3411 28.7381 43.0211ZM29.309 45.7503C29.8486 45.3738 29.9302 44.7151 29.491 44.2759C29.0581 43.843 28.2299 43.7551 27.6276 44.0751C27.0316 44.3888 26.9375 45.0413 27.4268 45.5307C27.9225 46.0263 28.7632 46.1267 29.309 45.7503ZM30.9403 48.4983C31.4108 48.0466 31.4234 47.3125 30.9654 46.8545C30.5074 46.4028 29.7106 46.3526 29.1836 46.7416C28.6503 47.1368 28.6314 47.8709 29.1459 48.3854C29.6667 48.8998 30.4697 48.9563 30.9403 48.4983ZM33.3056 50.8636C33.7008 50.3366 33.6507 49.5398 33.1927 49.0818C32.7346 48.6238 32.0006 48.6363 31.5489 49.1069C31.0971 49.5837 31.1473 50.3805 31.6618 50.9013C32.1763 51.4157 32.9103 51.3969 33.3056 50.8636ZM35.9846 52.4258C36.2983 51.8235 36.2105 50.9891 35.7775 50.5499C35.3384 50.1107 34.6733 50.1923 34.2969 50.7381C33.9204 51.284 34.0145 52.131 34.5102 52.6266C35.0058 53.1223 35.6583 53.0281 35.9846 52.4258ZM38.5883 52.865C38.8518 52.2251 38.7577 51.3781 38.3562 50.9765C37.9484 50.5687 37.3461 50.713 37.0261 51.3091C36.6998 51.9051 36.8253 52.7709 37.277 53.2289C37.735 53.6869 38.3122 53.5175 38.5883 52.865ZM40.916 52.1372C41.1732 51.4847 41.1105 50.6691 40.7403 50.2989C40.3701 49.9288 39.8055 50.117 39.5043 50.7319C39.1969 51.3467 39.3035 52.2 39.7176 52.6078C40.1317 53.0219 40.6525 52.8023 40.916 52.1372ZM42.9927 50.4621C43.2875 49.8472 43.2938 49.1006 42.9613 48.7681C42.6225 48.4356 42.0641 48.6175 41.7379 49.2073C41.4053 49.797 41.4618 50.5938 41.8257 50.9577C42.1896 51.3216 42.6978 51.0895 42.9927 50.4621ZM45.0443 48.2913C45.4207 47.758 45.5085 47.0929 45.1948 46.7792C44.8811 46.4655 44.2726 46.6036 43.8773 47.1306C43.482 47.6576 43.4632 48.3791 43.7895 48.7053C44.122 49.0379 44.6616 48.8371 45.0443 48.2913ZM47.2214 46.0514C47.7045 45.6123 47.8801 45.0413 47.5602 44.7213C47.2402 44.4014 46.5626 44.4704 46.0795 44.9096C45.5964 45.3488 45.4897 45.9887 45.8034 46.3024C46.1171 46.6161 46.732 46.4781 47.2214 46.0514ZM49.4675 43.9434C50.0572 43.6046 50.2831 43.0901 49.938 42.745C49.5929 42.4 48.8275 42.3811 48.2628 42.7388C48.1938 42.7827 48.1311 42.8329 48.0746 42.8831C48.3695 42.5066 48.4197 42.0988 48.1374 41.8102C47.7986 41.4714 47.1272 41.4526 46.5626 41.76C46.6504 41.4526 46.6065 41.1577 46.3932 40.9444C46.0669 40.6244 45.4772 40.593 44.9439 40.8377C44.969 40.5679 44.8937 40.317 44.7055 40.1288C44.6302 40.0472 44.5361 39.9907 44.442 39.9468C44.6804 39.8715 44.9313 39.7523 45.1635 39.5829C45.1133 39.8653 45.1823 40.135 45.3768 40.3233C45.7909 40.7436 46.663 40.6683 47.3531 40.1978C47.2402 40.4927 47.2778 40.7938 47.4911 41.0071C47.8739 41.3961 48.7083 41.3773 49.3859 41.0071C50.0635 40.6307 50.2893 40.0096 49.8564 39.5829C49.4361 39.1626 48.5828 39.1249 47.9554 39.5139C48.1123 39.1626 48.0683 38.7987 47.7986 38.5226C47.3719 38.096 46.5626 38.0897 45.9352 38.4975C45.9603 38.3595 45.9666 38.2277 45.9477 38.096C46.412 38.2215 47.008 38.0897 47.4974 37.7384C48.0307 37.3557 48.244 36.7847 48.0683 36.3142C48.5326 36.5149 49.1726 36.4522 49.6682 36.1259C50.3019 35.7056 50.4148 34.959 49.9004 34.4445C49.3859 33.93 48.5013 33.9049 47.9303 34.388C47.4974 34.7582 47.3406 35.2915 47.4911 35.7181C46.9767 35.486 46.2928 35.5927 45.7972 36.0381C45.3831 36.4083 45.1886 36.8914 45.2325 37.3055C45.0129 37.2364 44.7557 37.2364 44.5047 37.2929C44.8874 36.9227 45.0819 36.4585 45.0694 36.0381C45.4584 36.0381 45.8913 35.875 46.2426 35.5613C46.6818 35.166 46.8512 34.6139 46.7257 34.1434C47.1523 34.2437 47.648 34.1245 48.0307 33.792C48.564 33.3215 48.6142 32.556 48.1687 32.0353C48.6393 32.4243 49.3608 32.418 49.8313 32.0039C50.327 31.571 50.3082 30.7868 49.7812 30.266C49.2604 29.739 48.4824 29.7202 48.0433 30.2221C47.6292 30.6926 47.6292 31.4079 48.0182 31.8784C47.4911 31.433 46.7257 31.4894 46.2614 32.0165C45.9289 32.3992 45.8097 32.9011 45.9101 33.3277C45.4333 33.196 44.8811 33.3654 44.4922 33.8108C44.1785 34.1622 44.0153 34.5951 44.0153 34.9841C43.5887 34.9715 43.1244 35.166 42.748 35.555C42.8107 35.2978 42.8107 35.0343 42.7417 34.8084C43.1495 34.8586 43.6389 34.6641 44.0091 34.25C44.4545 33.7544 44.5612 33.0579 44.3165 32.5498C44.7494 32.7066 45.2827 32.5498 45.6591 32.1106C46.136 31.5459 46.1109 30.6675 45.6027 30.1594C45.0882 29.6449 44.3479 29.7515 43.9275 30.3852C43.6012 30.8871 43.5385 31.5271 43.7518 31.9976C43.2813 31.8094 42.7041 32.0227 42.3151 32.556C41.9637 33.0454 41.8382 33.6477 41.9637 34.112C41.8257 34.0869 41.6877 34.0932 41.5434 34.1308C41.9575 33.4971 41.9512 32.6878 41.5245 32.2611C41.2422 31.9851 40.872 31.9474 40.5144 32.1168C40.916 31.4894 40.8846 30.6236 40.4642 30.2033C40.0376 29.7829 39.4228 30.0025 39.0526 30.6738C38.6887 31.3389 38.6699 32.167 39.0526 32.5498C39.2659 32.7693 39.5733 32.8007 39.8745 32.6815L39.8619 32.7003C39.3914 33.3905 39.3161 34.2563 39.7302 34.6704C39.9247 34.8649 40.1945 34.9339 40.4831 34.8837C40.3011 35.1221 40.1756 35.3856 40.1066 35.6366C40.0627 35.5362 40 35.4421 39.9184 35.3605C39.7302 35.1723 39.4729 35.097 39.1969 35.1221C39.4478 34.5888 39.4228 33.9991 39.0965 33.6728C38.8832 33.4532 38.582 33.4093 38.2683 33.5097C38.5883 32.945 38.5695 32.2674 38.2307 31.9286C37.8542 31.5522 37.2394 31.7655 36.8128 32.3804C36.3924 32.9889 36.2983 33.7418 36.6559 34.0994C36.8316 34.2751 37.0763 34.3253 37.3398 34.2626C36.9194 34.8711 36.8316 35.5864 37.1955 35.9503C37.3398 36.0946 37.5405 36.1636 37.7539 36.1636C37.4778 36.609 37.3837 37.0859 37.5029 37.4498C37.2959 37.3807 37.0512 37.3807 36.7939 37.4498C37.2206 36.9102 37.2833 36.2451 36.9382 35.9001C36.6936 35.6554 36.2983 35.624 35.8905 35.7746C36.3799 35.2601 36.474 34.5512 36.1289 34.2061C35.7713 33.8485 35.1062 34.0179 34.5918 34.5323C34.0773 35.0468 33.9079 35.7119 34.2655 36.0632C34.4788 36.2765 34.8302 36.3267 35.1878 36.2201L35.1752 36.2263C34.5792 36.7784 34.3847 37.5188 34.7863 37.9203C34.9996 38.1336 35.3321 38.2026 35.6897 38.1399C35.558 38.2779 35.4513 38.4222 35.376 38.5728C35.3384 38.5101 35.3007 38.4536 35.2505 38.4034C34.8427 38.0019 34.0083 38.1023 33.337 38.5791C33.0672 38.7799 32.8727 39.0057 32.7597 39.2441C32.7284 39.15 32.6719 39.0685 32.6029 38.9932C32.2202 38.6105 31.3983 38.6293 30.7332 38.9932C30.0619 39.3633 29.8423 39.9719 30.2627 40.3923C30.6893 40.8126 31.5551 40.844 32.1825 40.4362C32.4147 40.2856 32.5903 40.0911 32.6907 39.8966C32.7221 40.0096 32.7911 40.1225 32.8852 40.2166C33.3181 40.6495 34.209 40.6056 34.8427 40.0848C35.0184 39.9468 35.1564 39.7837 35.2631 39.6206C35.3007 39.7021 35.3509 39.7837 35.4199 39.8527C35.5078 39.9343 35.6081 40.0033 35.7211 40.0472C35.4262 40.1288 35.1188 40.2793 34.849 40.5052C34.6984 40.6307 34.5729 40.7624 34.4663 40.9067C34.0271 40.5115 33.1738 40.5805 32.5088 41.0322C32.2892 41.1828 32.1198 41.3647 32.0069 41.553C31.9818 41.5153 31.9504 41.4777 31.9128 41.44C31.4987 41.026 30.6391 41.0071 29.9741 41.371C29.2965 41.7349 29.1208 42.3937 29.5914 42.8642C30.0619 43.3348 30.9466 43.385 31.5677 42.9646C31.7371 42.8454 31.8751 42.7074 31.9692 42.5568C32.0069 42.6196 32.0571 42.6823 32.1135 42.7388C32.5966 43.2156 33.5064 43.1905 34.14 42.6697C34.2467 42.5819 34.3408 42.4878 34.4161 42.3874L34.4412 42.4125C34.7361 42.7011 35.1878 42.7827 35.6458 42.6697C35.4074 42.8893 35.2443 43.1403 35.1501 43.3975C35.1188 43.3536 35.0874 43.3222 35.056 43.2846C34.6106 42.8391 33.7322 42.9019 33.086 43.4163C32.8162 43.6297 32.6343 43.9057 32.559 44.1818C32.5151 44.0877 32.4523 43.9998 32.3708 43.9183C31.9316 43.4791 31.072 43.4603 30.4509 43.8744C29.8235 44.2884 29.7168 45.0225 30.225 45.5307C30.7332 46.0326 31.5991 46.064 32.1637 45.5872C32.3833 45.3989 32.5339 45.1668 32.6029 44.9284C32.6594 45.0476 32.7346 45.1605 32.835 45.2609C33.3432 45.7754 34.2341 45.7189 34.8113 45.1417C34.9996 44.9535 35.1376 44.7402 35.2254 44.5269C35.2631 44.5833 35.307 44.6398 35.3572 44.69C35.4137 44.7464 35.4638 44.7904 35.5266 44.828C35.307 44.9158 35.0937 45.0476 34.9117 45.2358C34.3345 45.8193 34.2781 46.7039 34.7863 47.2184C34.8866 47.3125 34.9996 47.3878 35.1125 47.4443C34.8804 47.5133 34.6482 47.6639 34.46 47.8834C33.9832 48.4481 34.0083 49.3202 34.5165 49.8284C35.0247 50.3366 35.765 50.2299 36.1791 49.6025C36.5932 48.9751 36.5806 48.1156 36.1352 47.6701C36.0599 47.5948 35.972 47.5321 35.8779 47.4882C36.154 47.4066 36.4238 47.231 36.6371 46.9612C37.1516 46.3212 37.2143 45.4429 36.7626 44.9974C36.7312 44.9598 36.6936 44.9347 36.6559 44.9033C36.9131 44.8092 37.1578 44.6461 37.3711 44.4202C37.2645 44.8719 37.3461 45.3237 37.6347 45.6123L37.6598 45.6311C37.5594 45.7126 37.4653 45.8005 37.3774 45.9071C36.8504 46.5408 36.8253 47.4568 37.3084 47.9462C37.3649 47.9964 37.4213 48.0403 37.4841 48.0779C37.3335 48.1783 37.2018 48.3101 37.0825 48.4795C36.6559 49.1006 36.7124 49.9915 37.1829 50.4683C37.6535 50.9389 38.3123 50.757 38.6824 50.0856C39.0526 49.4143 39.0338 48.5485 38.6134 48.1344C38.582 48.0968 38.5444 48.0717 38.513 48.0466C38.695 47.9336 38.8706 47.7642 39.0212 47.5447C39.4792 46.8796 39.5482 46.0263 39.1592 45.5809C39.2973 45.4805 39.429 45.355 39.5482 45.2107C39.7678 44.9409 39.9184 44.6461 40.0062 44.3575C40.0502 44.4641 40.1129 44.5582 40.1945 44.6398C40.2572 44.7088 40.3325 44.759 40.414 44.7966C40.2509 44.897 40.1003 45.035 39.9623 45.2044C39.4416 45.8444 39.3914 46.7353 39.8306 47.1745C39.9184 47.2623 40.0188 47.3251 40.1317 47.3627C39.9372 47.4694 39.7553 47.6388 39.6047 47.8646C39.1906 48.4983 39.2283 49.3704 39.6549 49.797C40.0815 50.2237 40.6964 50.0041 41.0665 49.3265C41.4367 48.6552 41.4555 47.827 41.0665 47.438C40.9975 47.369 40.9222 47.3188 40.8344 47.2874C41.0603 47.1745 41.2861 46.98 41.4743 46.7165C41.9575 46.0452 42.0578 45.2044 41.6563 44.7966C41.6061 44.7527 41.5559 44.7151 41.4994 44.6837C41.6375 44.6021 41.7692 44.508 41.901 44.3888C41.8445 44.7402 41.9135 45.0664 42.1269 45.2797C42.5284 45.6813 43.2562 45.493 43.8146 44.9033C43.7205 45.2546 43.7706 45.5934 43.9777 45.8005C44.3353 46.1581 45.0066 45.9887 45.5274 45.468C46.0481 44.9472 46.2175 44.2759 45.8599 43.9183C45.5148 43.5732 44.8184 43.6548 44.2977 44.1253C44.4357 43.7301 44.4043 43.3473 44.1659 43.1026C43.8146 42.7576 43.1621 42.814 42.6225 43.2281C42.679 42.996 42.6852 42.7639 42.6225 42.5694C42.9801 42.676 43.4444 42.5819 43.8773 42.3184C43.8836 42.5317 43.9526 42.7199 44.0906 42.8642C44.4545 43.2281 45.1635 43.1466 45.7721 42.7388C45.7219 42.996 45.7721 43.2344 45.9415 43.4038C46.3053 43.7677 47.0645 43.6736 47.6794 43.247C47.7547 43.1905 47.8299 43.134 47.8927 43.0776C47.648 43.3975 47.6229 43.7677 47.855 43.9998C48.1813 44.3261 48.884 44.2759 49.4675 43.9434ZM51.45 41.9106C52.1088 41.6345 52.3347 41.1201 51.9457 40.7311C51.5567 40.3421 50.7285 40.2605 50.1137 40.5742C49.5051 40.8816 49.3169 41.4463 49.6682 41.7977C50.0196 42.149 50.8101 42.1804 51.45 41.9106ZM52.6986 39.7272C53.3699 39.4637 53.5707 38.9116 53.1315 38.4724C52.6923 38.0332 51.8202 37.914 51.1991 38.2277C50.5905 38.5352 50.4211 39.1186 50.8101 39.5139C51.1991 39.9029 52.0398 39.9845 52.6986 39.7272ZM52.8554 37.2553C53.4954 36.9604 53.6334 36.3393 53.1503 35.8562C52.6609 35.3731 51.7951 35.2539 51.2116 35.6052C50.6344 35.9565 50.5152 36.5965 50.9418 37.0231C51.3748 37.4498 52.2217 37.5439 52.8554 37.2553ZM51.839 34.5763C52.41 34.2186 52.4664 33.5159 51.952 33.0015C51.4375 32.487 50.6031 32.4117 50.0886 32.8258C49.5741 33.2462 49.5239 33.9551 49.9819 34.4069C50.4337 34.8649 51.2618 34.9339 51.839 34.5763ZM43.0366 31.5145C43.4632 30.8934 43.413 29.9962 42.9362 29.5257C42.4656 29.0489 41.8006 29.2308 41.4304 29.9084C41.0603 30.5797 41.0791 31.4518 41.4994 31.8659C41.9135 32.2862 42.61 32.1357 43.0366 31.5145ZM33.7636 38.0709C34.3471 37.6317 34.5102 36.9541 34.1526 36.5965C33.795 36.2452 33.0484 36.333 32.446 36.7533C31.8312 37.1737 31.6116 37.7823 31.9943 38.165C32.3708 38.5414 33.1738 38.5163 33.7636 38.0709ZM33.8389 47.965C34.3282 47.4129 34.3596 46.5973 33.9016 46.1455C33.4499 45.6938 32.6405 45.7252 32.0884 46.2083C31.5363 46.6977 31.5049 47.507 32.0194 48.0278C32.5402 48.5485 33.3558 48.5171 33.8389 47.965ZM43.3064 47.6137C43.733 47.0051 43.8208 46.2459 43.4632 45.8883C43.1056 45.5307 42.4217 45.6938 41.97 46.2836C41.5245 46.8733 41.4994 47.689 41.8822 48.0717C42.2649 48.4544 42.8797 48.2348 43.3064 47.6137ZM50.145 38.6293C50.8289 38.2528 51.0109 37.5878 50.534 37.111C50.0572 36.6341 49.1538 36.5777 48.5326 37.0106C47.9115 37.4372 47.7546 38.1399 48.175 38.5603C48.5954 38.9806 49.4737 38.9994 50.145 38.6293ZM40.1192 36.5651C40.1505 36.6467 40.2007 36.7282 40.2572 36.7973C40.1882 36.7784 40.1129 36.7722 40.0439 36.7659C40.069 36.6969 40.0941 36.6279 40.1192 36.5651ZM40.7089 37.067C40.8909 37.111 41.0979 37.1047 41.305 37.0545C41.1857 37.1361 41.0665 37.2427 40.9536 37.3557L40.8971 37.4184C40.8595 37.2866 40.7968 37.1674 40.7089 37.067ZM41.9324 36.7533C42.0265 36.6843 42.1206 36.6028 42.2084 36.5149C42.1896 36.5777 42.177 36.6404 42.1708 36.7032C42.0892 36.7094 42.0139 36.7282 41.9324 36.7533ZM38.0111 37.958C38.0676 37.9768 38.1303 37.9893 38.193 37.9956C38.1429 38.0897 38.0989 38.1775 38.0613 38.2717C38.0613 38.1587 38.0425 38.0583 38.0111 37.958ZM37.5092 39.5014C37.7037 39.2943 37.8542 39.0685 37.9484 38.8363C37.9421 38.9932 37.9672 39.1437 38.0236 39.2755C37.8542 39.3257 37.6786 39.401 37.5092 39.5014ZM36.5932 40.0597C36.7312 40.0221 36.863 39.9656 36.9947 39.8904C36.9131 39.9719 36.8379 40.0598 36.7688 40.1476C36.7124 40.1099 36.6559 40.0786 36.5932 40.0597ZM36.543 42.1615C36.6057 42.1051 36.6622 42.0423 36.7124 41.9796C36.7688 42.0298 36.8379 42.0737 36.9069 42.1051C36.7877 42.1114 36.6685 42.1302 36.543 42.1615ZM37.8919 43.4979C37.9233 43.385 37.9421 43.2658 37.9484 43.1591C37.9797 43.2219 38.0174 43.2846 38.0613 43.3411C38.0048 43.3913 37.9484 43.4414 37.8919 43.4979ZM37.8417 42.607C37.8041 42.5192 37.7476 42.4439 37.6786 42.3749C37.6096 42.3059 37.5217 42.2431 37.4339 42.2055C37.597 42.1992 37.7727 42.1615 37.9484 42.0988C37.8856 42.2682 37.848 42.4439 37.8417 42.607ZM39.9937 43.4352C39.9686 43.3787 39.9435 43.3285 39.9121 43.2846C39.9874 43.2281 40.0627 43.1654 40.1317 43.0964C40.069 43.203 40.0251 43.3222 39.9937 43.4352ZM42.0767 42.0172C41.9888 41.9921 41.901 41.9796 41.8131 41.9796C41.8884 41.9482 41.9637 41.9106 42.0453 41.8667C42.0516 41.9231 42.0578 41.9733 42.0767 42.0172ZM41.1857 42.1051C40.9787 42.1929 40.7717 42.3309 40.5834 42.5066C40.6713 42.3498 40.7403 42.1866 40.7842 42.0298C40.9034 42.08 41.0414 42.1051 41.1857 42.1051ZM43.4632 39.9343C43.4068 39.9531 43.344 39.9719 43.2875 40.0033C43.2813 39.9343 43.275 39.8715 43.2562 39.8088C43.3189 39.859 43.3879 39.9029 43.4632 39.9343ZM43.3064 38.1085C43.3252 38.0332 43.3377 37.958 43.3503 37.8827C43.4068 37.8701 43.4695 37.8638 43.5322 37.845C43.4444 37.9329 43.3691 38.0207 43.3064 38.1085Z" fill="#0190C3"/>
<path d="M40.1548 42.2483C40.9453 42.2483 41.5163 41.9597 41.8739 41.3825H43.9569C43.6745 42.2295 43.1914 42.9008 42.5013 43.3902C41.8112 43.8858 41.0269 44.1305 40.1548 44.1305C38.9816 44.1305 38.0028 43.7415 37.2186 42.9698C36.4343 42.1918 36.0391 41.2194 36.0391 40.0524C36.0391 38.8792 36.4343 37.913 37.2186 37.1413C38.0028 36.3696 38.9816 35.9868 40.1548 35.9868C41.0269 35.9868 41.8112 36.2315 42.5013 36.7272C43.1914 37.2228 43.6745 37.8879 43.9569 38.7349H41.8739C41.5163 38.1577 40.9453 37.8753 40.1548 37.8753C39.5337 37.8753 39.038 38.0761 38.6553 38.4776C38.2789 38.8729 38.0907 39.3999 38.0907 40.0524C38.0907 40.7049 38.2789 41.2319 38.6553 41.6335C39.038 42.0413 39.5337 42.2483 40.1548 42.2483ZM46.548 37.1475C47.3448 36.3758 48.3424 35.9868 49.547 35.9868C50.7516 35.9868 51.7492 36.3758 52.546 37.1475C53.3428 37.9255 53.7443 38.898 53.7443 40.065C53.7443 41.2257 53.3428 42.1918 52.546 42.9698C51.7492 43.7415 50.7516 44.1305 49.547 44.1305C48.3424 44.1305 47.3448 43.7415 46.548 42.9698C45.7512 42.1918 45.356 41.2257 45.356 40.065C45.356 38.898 45.7512 37.9255 46.548 37.1475ZM51.0842 38.4902C50.6763 38.0761 50.1682 37.8753 49.547 37.8753C48.9322 37.8753 48.4177 38.0761 48.0099 38.4902C47.6084 38.9043 47.4013 39.4313 47.4013 40.065C47.4013 40.7049 47.6084 41.2319 48.0099 41.6335C48.4177 42.0413 48.9322 42.2483 49.547 42.2483C50.1682 42.2483 50.6763 42.0413 51.0842 41.6335C51.492 41.2319 51.6927 40.7049 51.6927 40.065C51.6927 39.4313 51.492 38.9043 51.0842 38.4902ZM55.6454 36.2002H63.3499V43.9235H61.2983V37.9883H57.6907V43.9235H55.6454V36.2002ZM66.4492 37.1475C67.2398 36.3758 68.2436 35.9868 69.4482 35.9868C70.6465 35.9868 71.6504 36.3758 72.4472 37.1475C73.244 37.9255 73.6393 38.898 73.6393 40.065C73.6393 41.2257 73.244 42.1918 72.4472 42.9698C71.6504 43.7415 70.6465 44.1305 69.4482 44.1305C68.2436 44.1305 67.2398 43.7415 66.4492 42.9698C65.6524 42.1918 65.2509 41.2257 65.2509 40.065C65.2509 38.898 65.6524 37.9255 66.4492 37.1475ZM70.9791 38.4902C70.5775 38.0761 70.0631 37.8753 69.4482 37.8753C68.8271 37.8753 68.3189 38.0761 67.9111 38.4902C67.5033 38.9043 67.3025 39.4313 67.3025 40.065C67.3025 40.7049 67.5033 41.2319 67.9111 41.6335C68.3189 42.0413 68.8271 42.2483 69.4482 42.2483C70.0631 42.2483 70.5775 42.0413 70.9791 41.6335C71.3869 41.2319 71.5939 40.7049 71.5939 40.065C71.5939 39.4313 71.3869 38.9043 70.9791 38.4902ZM75.5403 36.2002H83.2448V43.9235H81.1994V37.9883H77.5919V43.9235H75.5403V36.2002ZM90.9179 41.577H93.1326C92.8252 42.3612 92.3296 42.9824 91.6331 43.4404C90.943 43.9047 90.1713 44.1305 89.3243 44.1305C88.126 44.1305 87.1284 43.7415 86.3379 42.9698C85.5473 42.1918 85.1458 41.2194 85.1458 40.0524C85.1458 38.8917 85.5348 37.9255 86.3002 37.1475C87.0719 36.3758 88.0507 35.9868 89.2427 35.9868C90.4285 35.9868 91.3885 36.3696 92.1413 37.1413C92.8879 37.913 93.2581 38.8729 93.2581 40.021C93.2581 40.3787 93.2518 40.6171 93.2267 40.7363H87.279C87.3856 41.2006 87.6303 41.5707 88.0005 41.8405C88.3769 42.1103 88.8161 42.2483 89.3243 42.2483C90.0333 42.2483 90.5603 42.0224 90.9179 41.577ZM87.3292 39.2054H91.081C91.0183 38.76 90.8175 38.4086 90.4787 38.1388C90.1462 37.8753 89.7321 37.7436 89.2427 37.7436C88.7659 37.7436 88.3456 37.8816 87.9754 38.1514C87.6115 38.4212 87.3919 38.7725 87.3292 39.2054ZM94.8078 38.8164V36.2002H96.8531V38.4588C96.8531 38.9043 96.9849 39.218 97.2547 39.4125C97.5182 39.6007 97.9448 39.6948 98.5471 39.6948C99.162 39.6948 99.7392 39.6321 100.285 39.5128V36.2002H102.33V43.9235H100.285V41.4201C99.5886 41.5268 98.98 41.577 98.4467 41.577C97.2296 41.577 96.3198 41.3574 95.7175 40.912C95.1089 40.4665 94.8078 39.7701 94.8078 38.8164ZM110.443 36.2002H112.494V43.9235H110.443V39.0297L106.722 43.9235H104.671V36.2002H106.722V41.0939L110.443 36.2002ZM121.774 36.2002V37.9883H118.881V43.9235H116.83V37.9883H113.956V36.2002H121.774ZM128.455 41.577H130.664C130.363 42.3612 129.867 42.9824 129.171 43.4404C128.474 43.9047 127.709 44.1305 126.862 44.1305C125.657 44.1305 124.66 43.7415 123.869 42.9698C123.079 42.1918 122.683 41.2194 122.683 40.0524C122.683 38.8917 123.066 37.9255 123.838 37.1475C124.609 36.3758 125.588 35.9868 126.78 35.9868C127.96 35.9868 128.926 36.3696 129.673 37.1413C130.419 37.913 130.796 38.8729 130.796 40.021C130.796 40.3787 130.783 40.6171 130.764 40.7363H124.816C124.923 41.2006 125.161 41.5707 125.538 41.8405C125.908 42.1103 126.354 42.2483 126.862 42.2483C127.564 42.2483 128.098 42.0224 128.455 41.577ZM124.86 39.2054H128.618C128.556 38.76 128.355 38.4086 128.016 38.1388C127.677 37.8753 127.27 37.7436 126.78 37.7436C126.303 37.7436 125.883 37.8816 125.513 38.1514C125.143 38.4212 124.929 38.7725 124.86 39.2054ZM133.594 36.2002H140.207V43.9235H138.161V37.9883H135.639V39.4187C135.639 42.4177 134.635 43.9235 132.615 43.9235H131.818V42.0162H132.408C132.678 42.0162 132.897 41.9346 133.073 41.7778C133.242 41.6146 133.362 41.3825 133.431 41.0751C133.493 40.7739 133.537 40.4979 133.562 40.2532C133.581 40.0085 133.594 39.7073 133.594 39.3497V36.2002ZM148.319 36.2002H150.37V43.9235H148.319V39.0297L144.598 43.9235H142.547V36.2002H144.598V41.0939L148.319 36.2002Z" fill="#0D2D42"/>
</g>
<defs>
<clipPath id="clip0_1154_2123">
<rect width="150.423" height="80" fill="white"/>
</clipPath>
</defs>
</svg>
